<svg xmlns="http://www.w3.org/2000/svg" xmlns:xlink="http://www.w3.org/1999/xlink" version="1.1" x="0px" y="0px" viewBox="0 0 48 60" enable-background="new 0 0 48 48" xml:space="preserve"><g><g><path fill="#000000" d="M24,28.4c-4.4,0-8.8-1.1-8.8-3.5v-2.7c0-0.4,0.3-0.8,0.7-0.9c0.4-0.1,0.8,0,1.1,0.3c1,1.2,3.8,2,7.1,2    c3.3,0,6-0.8,7.1-2c0.3-0.3,0.7-0.4,1.1-0.3c0.4,0.1,0.7,0.5,0.7,0.9v2.7C32.8,27.3,28.4,28.4,24,28.4z M17.2,24.1v0.7    c0.2,0.4,2.5,1.5,6.8,1.5s6.6-1.1,6.8-1.6l0-0.7c-1.7,0.9-4.1,1.4-6.8,1.4C21.3,25.5,18.9,25,17.2,24.1z"/><path fill="#000000" d="M24,34.6c-4.4,0-8.8-1.1-8.8-3.5v-2.7c0-0.4,0.3-0.8,0.7-0.9c0.4-0.1,0.8,0,1.1,0.3c1,1.2,3.8,2,7.1,2    c3.3,0,6-0.8,7.1-2c0.3-0.3,0.7-0.4,1.1-0.3c0.4,0.1,0.7,0.5,0.7,0.9v2.7C32.8,33.5,28.4,34.6,24,34.6z M17.2,30.4v0.7    c0.2,0.4,2.5,1.5,6.8,1.5s6.6-1.1,6.8-1.6l0-0.7c-1.7,0.9-4.1,1.4-6.8,1.4C21.3,31.7,18.9,31.2,17.2,30.4z"/><path fill="#000000" d="M24,22.2c-4,0-8.8-1.2-8.8-4.4c0-3.3,4.7-4.4,8.8-4.4c4,0,8.8,1.2,8.8,4.4C32.8,21.1,28,22.2,24,22.2z     M24,15.4c-3.7,0-6.8,1.1-6.8,2.4c0,1.3,3,2.4,6.8,2.4c3.7,0,6.8-1.1,6.8-2.4C30.8,16.5,27.7,15.4,24,15.4z"/></g><g><path fill="#000000" d="M39.1,15.5c-4,0-8.4-1.1-8.4-3.5V9.3c0-0.4,0.3-0.8,0.7-0.9c0.4-0.1,0.8,0,1.1,0.3c1,1.2,3.6,2,6.6,2    c3,0,5.6-0.8,6.6-2c0.3-0.3,0.7-0.5,1.1-0.3c0.4,0.1,0.7,0.5,0.7,0.9v2.7C47.5,14.4,43.2,15.5,39.1,15.5z M32.7,11.3v0.7    c0.1,0.4,2.3,1.5,6.4,1.5c4.1,0,6.2-1.1,6.4-1.6l0-0.6c-1.6,0.8-3.8,1.3-6.4,1.3C36.6,12.6,34.3,12.1,32.7,11.3z"/><path fill="#000000" d="M39.1,9.3c-4.1,0-8.3-1.4-8.3-4.4c0-3.1,4.2-4.4,8.3-4.4c4.1,0,8.3,1.4,8.3,4.4C47.4,8,43.3,9.3,39.1,9.3z     M39.1,2.5c-3.5,0-6.3,1.1-6.3,2.4s2.8,2.4,6.3,2.4c3.5,0,6.3-1.1,6.3-2.4S42.6,2.5,39.1,2.5z"/></g><g><path fill="#000000" d="M8.9,15.5c-4,0-8.4-1.1-8.4-3.5V9.3c0-0.4,0.3-0.8,0.7-0.9c0.4-0.1,0.8,0,1.1,0.3c1,1.2,3.6,2,6.6,2    c3,0,5.6-0.8,6.6-2c0.3-0.3,0.7-0.5,1.1-0.3c0.4,0.1,0.7,0.5,0.7,0.9v2.7C17.3,14.4,12.9,15.5,8.9,15.5z M2.5,11.3v0.7    c0.1,0.4,2.3,1.5,6.4,1.5c4.1,0,6.2-1.1,6.4-1.6l0-0.6c-1.6,0.8-3.8,1.3-6.4,1.3C6.3,12.6,4.1,12.1,2.5,11.3z"/><path fill="#000000" d="M8.9,9.3C4.7,9.3,0.6,8,0.6,4.9c0-3.1,4.2-4.4,8.3-4.4c4.1,0,8.3,1.4,8.3,4.4C17.2,8,13,9.3,8.9,9.3z     M8.9,2.5c-3.5,0-6.3,1.1-6.3,2.4c0,1.4,2.8,2.4,6.3,2.4c3.5,0,6.3-1.1,6.3-2.4S12.4,2.5,8.9,2.5z"/></g><g><path fill="#000000" d="M39.1,47.5c-4,0-8.4-1.1-8.4-3.5v-2.7c0-0.4,0.3-0.8,0.7-0.9c0.4-0.1,0.8,0,1.1,0.3c1,1.2,3.6,2,6.6,2    c3,0,5.6-0.8,6.6-2c0.3-0.3,0.7-0.5,1.1-0.3c0.4,0.1,0.7,0.5,0.7,0.9V44C47.5,46.4,43.2,47.5,39.1,47.5z M32.7,43.3V44    c0.1,0.4,2.3,1.5,6.4,1.5c4.1,0,6.2-1.1,6.4-1.6v-0.6c-1.6,0.8-3.8,1.3-6.4,1.3C36.6,44.6,34.3,44.2,32.7,43.3z"/><path fill="#000000" d="M39.1,41.4c-4.1,0-8.3-1.4-8.3-4.4c0-3.1,4.2-4.4,8.3-4.4c4.1,0,8.3,1.4,8.3,4.4    C47.4,40,43.3,41.4,39.1,41.4z M39.1,34.5c-3.5,0-6.3,1.1-6.3,2.4s2.8,2.4,6.3,2.4c3.5,0,6.3-1.1,6.3-2.4S42.6,34.5,39.1,34.5z"/></g><g><path fill="#000000" d="M8.9,47.5c-4,0-8.4-1.1-8.4-3.5v-2.7c0-0.4,0.3-0.8,0.7-0.9c0.4-0.1,0.8,0,1.1,0.3c1,1.2,3.6,2,6.6,2    c3,0,5.6-0.8,6.6-2c0.3-0.3,0.7-0.5,1.1-0.3c0.4,0.1,0.7,0.5,0.7,0.9V44C17.3,46.4,12.9,47.5,8.9,47.5z M2.5,43.3V44    c0.1,0.4,2.3,1.5,6.4,1.5c4.1,0,6.2-1.1,6.4-1.6v-0.6c-1.6,0.8-3.8,1.3-6.4,1.3C6.3,44.6,4.1,44.2,2.5,43.3z"/><path fill="#000000" d="M8.9,41.4c-4.1,0-8.3-1.4-8.3-4.4c0-3.1,4.2-4.4,8.3-4.4c4.1,0,8.3,1.4,8.3,4.4C17.2,40,13,41.4,8.9,41.4z     M8.9,34.5c-3.5,0-6.3,1.1-6.3,2.4c0,1.4,2.8,2.4,6.3,2.4c3.5,0,6.3-1.1,6.3-2.4S12.4,34.5,8.9,34.5z"/></g><g><g><path fill="#000000" d="M41.3,30.3c-0.6,0-1-0.4-1-1V18.7c0-0.6,0.4-1,1-1c0.6,0,1,0.4,1,1v10.7C42.3,29.9,41.9,30.3,41.3,30.3z"/><path fill="#000000" d="M41.3,25h-3.7c-0.6,0-1-0.4-1-1c0-0.6,0.4-1,1-1h3.7c0.6,0,1,0.4,1,1C42.3,24.6,41.9,25,41.3,25z"/></g><g><path fill="#000000" d="M6.7,30.3c-0.6,0-1-0.4-1-1V18.7c0-0.6,0.4-1,1-1c0.6,0,1,0.4,1,1v10.7C7.7,29.9,7.2,30.3,6.7,30.3z"/><path fill="#000000" d="M10.3,25H6.7c-0.6,0-1-0.4-1-1c0-0.6,0.4-1,1-1h3.7c0.6,0,1,0.4,1,1C11.3,24.6,10.9,25,10.3,25z"/></g></g></g><text visibility="hidden" x="0" y="63" fill="#000000" font-size="5px" font-weight="bold" font-family="'Helvetica Neue', Helvetica, Arial-Unicode, Arial, Sans-serif">Created by Creative Stall</text><text visibility="hidden" x="0" y="68" fill="#000000" font-size="5px" font-weight="bold" font-family="'Helvetica Neue', Helvetica, Arial-Unicode, Arial, Sans-serif">from the Noun Project</text></svg>
