<?xml version="1.0" encoding="UTF-8" standalone="no"?>
<!DOCTYPE svg PUBLIC "-//W3C//DTD SVG 1.0//EN" "http://www.w3.org/TR/2001/PR-SVG-20010719/DTD/svg10.dtd">
<svg width="43cm" height="21cm" viewBox="27 -139 848 405" xmlns="http://www.w3.org/2000/svg" xmlns:xlink="http://www.w3.org/1999/xlink">
  <g>
    <ellipse style="fill: none; fill-opacity:0; stroke-width: 2; stroke-dasharray: 4; stroke: #000000" cx="110.926" cy="-60.9999" rx="54.6261" ry="27.3131"/>
    <text font-size="12.8" style="fill: #000000;text-anchor:middle;font-family:sans-serif;font-style:normal;font-weight:normal" x="110.926" y="-57.0999">
      <tspan x="110.926" y="-57.0999">Fournisseur</tspan>
    </text>
  </g>
  <g>
    <rect style="fill: none; fill-opacity:0; stroke-width: 2; stroke-dasharray: 20; stroke: #000000" x="259" y="-137" width="615" height="402.667"/>
    <text font-size="12.8" style="fill: #000000;text-anchor:middle;font-family:sans-serif;font-style:normal;font-weight:normal" x="566.5" y="68.2333">
      <tspan x="566.5" y="68.2333"></tspan>
    </text>
  </g>
  <g>
    <rect style="fill: none; fill-opacity:0; stroke-width: 2.35099e-37; stroke-dasharray: 20; stroke: #000000" x="767.226" y="-137.3" width="106.15" height="38.3"/>
    <text font-size="12.8" style="fill: #000000;text-anchor:middle;font-family:sans-serif;font-style:italic;font-weight:normal" x="820.301" y="-114.25">
      <tspan x="820.301" y="-114.25">supermarché</tspan>
    </text>
  </g>
  <g>
    <line style="fill: none; fill-opacity:0; stroke-width: 2; stroke: #000000" x1="357.616" y1="116.905" x2="157.296" y2="-35.7845"/>
    <polygon style="fill: #000000" points="151.331,-40.3311 162.315,-38.2456 157.296,-35.7845 156.253,-30.2925 "/>
    <polygon style="fill: none; fill-opacity:0; stroke-width: 2; stroke: #000000" points="151.331,-40.3311 162.315,-38.2456 157.296,-35.7845 156.253,-30.2925 "/>
  </g>
  <g>
    <line style="fill: none; fill-opacity:0; stroke-width: 2; stroke: #000000" x1="165.552" y1="-61" x2="412.23" y2="-61.2113"/>
    <polygon style="fill: #000000" points="419.73,-61.2177 409.734,-56.2091 412.23,-61.2113 409.726,-66.2091 "/>
    <polygon style="fill: none; fill-opacity:0; stroke-width: 2; stroke: #000000" points="419.73,-61.2177 409.734,-56.2091 412.23,-61.2113 409.726,-66.2091 "/>
  </g>
  <g>
    <line style="fill: none; fill-opacity:0; stroke-width: 2; stroke: #000000" x1="441.652" y1="-35.7408" x2="442.335" y2="98.7391"/>
    <polygon style="fill: #000000" points="442.373,106.239 437.322,96.2645 442.335,98.7391 447.322,96.2137 "/>
    <polygon style="fill: none; fill-opacity:0; stroke-width: 2; stroke: #000000" points="442.373,106.239 437.322,96.2645 442.335,98.7391 447.322,96.2137 "/>
  </g>
  <g>
    <rect style="fill: none; fill-opacity:0; stroke-width: 2; stroke-dasharray: 20; stroke: #000000" x="286.5" y="50" width="533.5" height="195.5"/>
    <text font-size="12.8" style="fill: #000000;text-anchor:middle;font-family:sans-serif;font-style:normal;font-weight:normal" x="553.25" y="151.65">
      <tspan x="553.25" y="151.65"></tspan>
    </text>
  </g>
  <g>
    <line style="fill: none; fill-opacity:0; stroke-width: 2; stroke: #000000" x1="490.4" y1="144.406" x2="639.264" y2="143.271"/>
    <polygon style="fill: #000000" points="646.764,143.214 636.802,148.29 639.264,143.271 636.726,138.29 "/>
    <polygon style="fill: none; fill-opacity:0; stroke-width: 2; stroke: #000000" points="646.764,143.214 636.802,148.29 639.264,143.271 636.726,138.29 "/>
  </g>
  <g>
    <ellipse style="fill: none; fill-opacity:0; stroke-width: 2; stroke: #000000" cx="489.178" cy="-61.2197" rx="67.2122" ry="36.0325"/>
    <text font-size="12.8" style="fill: #000000;text-anchor:middle;font-family:sans-serif;font-style:normal;font-weight:normal" x="489.178" y="-65.3197">
      <tspan x="489.178" y="-65.3197">Gestionnaire </tspan>
      <tspan x="489.178" y="-49.3197">de stocks</tspan>
    </text>
  </g>
  <g>
    <ellipse style="fill: none; fill-opacity:0; stroke-width: 2; stroke: #000000" cx="412.618" cy="144.406" rx="77.7822" ry="38.8911"/>
    <text font-size="12.8" style="fill: #000000;text-anchor:middle;font-family:sans-serif;font-style:normal;font-weight:normal" x="412.618" y="140.306">
      <tspan x="412.618" y="140.306">Gestionnaire des</tspan>
      <tspan x="412.618" y="156.306">commandes</tspan>
    </text>
  </g>
  <g>
    <rect style="fill: none; fill-opacity:0; stroke-width: 2.35099e-37; stroke-dasharray: 20; stroke: #000000" x="441.306" y="55.4" width="132.3" height="37.3"/>
    <text font-size="12.8" style="fill: #000000;text-anchor:middle;font-family:sans-serif;font-style:normal;font-weight:normal" x="507.456" y="77.95">
      <tspan x="507.456" y="77.95">demander achats</tspan>
    </text>
  </g>
  <g>
    <rect style="fill: none; fill-opacity:0; stroke-width: 2.35099e-37; stroke-dasharray: 20; stroke: #000000" x="342.606" y="-55.6" width="69.7" height="38.3"/>
    <text font-size="12.8" style="fill: #000000;text-anchor:middle;font-family:sans-serif;font-style:normal;font-weight:normal" x="377.456" y="-32.55">
      <tspan x="377.456" y="-32.55">livrer</tspan>
    </text>
  </g>
  <g>
    <rect style="fill: none; fill-opacity:0; stroke-width: 2.35099e-37; stroke-dasharray: 20; stroke: #000000" x="182.606" y="-29.6" width="106.15" height="38.3"/>
    <text font-size="12.8" style="fill: #000000;text-anchor:middle;font-family:sans-serif;font-style:normal;font-weight:normal" x="235.681" y="-6.55">
      <tspan x="235.681" y="-6.55">commander</tspan>
    </text>
  </g>
  <g>
    <rect style="fill: none; fill-opacity:0; stroke-width: 2.35099e-37; stroke-dasharray: 20; stroke: #000000" x="485.196" y="106.4" width="157.35" height="37.3"/>
    <text font-size="12.8" style="fill: #000000;text-anchor:middle;font-family:sans-serif;font-style:normal;font-weight:normal" x="563.871" y="128.95">
      <tspan x="563.871" y="128.95">demander paiements</tspan>
    </text>
  </g>
  <g>
    <ellipse style="fill: none; fill-opacity:0; stroke-width: 2; stroke: #000000" cx="711.12" cy="143.197" rx="62.1202" ry="33.1971"/>
    <text font-size="12.8" style="fill: #000000;text-anchor:middle;font-family:sans-serif;font-style:normal;font-weight:normal" x="711.12" y="147.097">
      <tspan x="711.12" y="147.097">Trésorier</tspan>
    </text>
  </g>
  <g>
    <rect style="fill: none; fill-opacity:0; stroke-width: 2.35099e-37; stroke-dasharray: 20; stroke: #000000" x="751.252" y="207.733" width="68.748" height="38.3"/>
    <text font-size="12.8" style="fill: #000000;text-anchor:middle;font-family:sans-serif;font-style:italic;font-weight:normal" x="785.626" y="230.783">
      <tspan x="785.626" y="230.783">Achats</tspan>
    </text>
  </g>
  <g>
    <line style="fill: none; fill-opacity:0; stroke-width: 2; stroke: #000000" x1="556.39" y1="-61.2196" x2="704.592" y2="102.777"/>
    <polygon style="fill: #000000" points="709.621,108.341 699.206,104.274 704.592,102.777 706.626,97.5693 "/>
    <polygon style="fill: none; fill-opacity:0; stroke-width: 2; stroke: #000000" points="709.621,108.341 699.206,104.274 704.592,102.777 706.626,97.5693 "/>
  </g>
  <g>
    <rect style="fill: none; fill-opacity:0; stroke-width: 2.35099e-37; stroke-dasharray: 20; stroke: #000000" x="686.8" y="53.2" width="132.65" height="36"/>
    <text font-size="12.8" style="fill: #000000;text-anchor:middle;font-family:sans-serif;font-style:normal;font-weight:normal" x="753.125" y="75.1">
      <tspan x="753.125" y="75.1">informer livraison</tspan>
    </text>
  </g>
  <g>
    <path style="fill: none; fill-opacity:0; stroke-width: 2; stroke: #000000" d="M 114.575,-24.6628 A 392.389,392.389 0 0 0 667.194,166.671"/>
    <polygon style="fill: #000000" points="111.739,-31.6036 120.03,-24.1038 114.464,-24.6162 110.714,-20.4703 "/>
    <polygon style="fill: none; fill-opacity:0; stroke-width: 2; stroke: #000000" points="111.739,-31.6036 120.03,-24.1038 114.464,-24.6162 110.714,-20.4703 "/>
  </g>
  <g>
    <rect style="fill: none; fill-opacity:0; stroke-width: 2.35099e-37; stroke-dasharray: 20; stroke: #000000" x="27.3" y="28.2" width="106.15" height="38.3"/>
    <text font-size="12.8" style="fill: #000000;text-anchor:middle;font-family:sans-serif;font-style:normal;font-weight:normal" x="80.375" y="51.25">
      <tspan x="80.375" y="51.25">payer facture</tspan>
    </text>
  </g>
  <g>
    <rect style="fill: none; fill-opacity:0; stroke-width: 2; stroke-dasharray: 20; stroke: #000000" x="340" y="-128" width="231" height="121"/>
    <text font-size="12.8" style="fill: #000000;text-anchor:middle;font-family:sans-serif;font-style:normal;font-weight:normal" x="455.5" y="-63.6">
      <tspan x="455.5" y="-63.6"></tspan>
    </text>
  </g>
  <g>
    <rect style="fill: none; fill-opacity:0; stroke-width: 2.35099e-37; stroke-dasharray: 20; stroke: #000000" x="336.8" y="-129" width="68.748" height="38.3"/>
    <text font-size="12.8" style="fill: #000000;text-anchor:middle;font-family:sans-serif;font-style:italic;font-weight:normal" x="371.174" y="-105.95">
      <tspan x="371.174" y="-105.95">Stocks</tspan>
    </text>
  </g>
</svg>
