<?xml version="1.0" encoding="UTF-8" standalone="no"?>
<!DOCTYPE svg PUBLIC "-//W3C//DTD SVG 1.0//EN" "http://www.w3.org/TR/2001/PR-SVG-20010719/DTD/svg10.dtd">
<svg width="31cm" height="17cm" viewBox="317 199 605 334" xmlns="http://www.w3.org/2000/svg" xmlns:xlink="http://www.w3.org/1999/xlink">
  <g>
    <ellipse style="fill: none; fill-opacity:0; stroke-width: 2; stroke-dasharray: 4; stroke: #000000" cx="373" cy="277.999" rx="54.6261" ry="27.3131"/>
    <text font-size="12.8" style="fill: #000000;text-anchor:middle;font-family:sans-serif;font-style:normal;font-weight:normal" x="373" y="281.899">
      <tspan x="373" y="281.899">Fournisseur</tspan>
    </text>
  </g>
  <g>
    <rect style="fill: none; fill-opacity:0; stroke-width: 2; stroke-dasharray: 20; stroke: #000000" x="490.5" y="201" width="430" height="331"/>
    <text font-size="12.8" style="fill: #000000;text-anchor:middle;font-family:sans-serif;font-style:normal;font-weight:normal" x="705.5" y="370.4">
      <tspan x="705.5" y="370.4"></tspan>
    </text>
  </g>
  <g>
    <rect style="fill: none; fill-opacity:0; stroke-width: 2.35099e-37; stroke-dasharray: 20; stroke: #000000" x="814.3" y="199.7" width="106.15" height="38.3"/>
    <text font-size="12.8" style="fill: #000000;text-anchor:middle;font-family:sans-serif;font-style:normal;font-weight:normal" x="867.375" y="222.75">
      <tspan x="867.375" y="222.75">supermarché</tspan>
    </text>
  </g>
  <g>
    <line style="fill: none; fill-opacity:0; stroke-width: 2; stroke: #000000" x1="427.626" y1="278" x2="601.254" y2="278.426"/>
    <polygon style="fill: #000000" points="608.754,278.445 598.742,283.42 601.254,278.426 598.766,273.42 "/>
    <polygon style="fill: none; fill-opacity:0; stroke-width: 2; stroke: #000000" points="608.754,278.445 598.742,283.42 601.254,278.426 598.766,273.42 "/>
  </g>
  <g>
    <rect style="fill: none; fill-opacity:0; stroke-width: 2.35099e-37; stroke-dasharray: 20; stroke: #000000" x="423.3" y="239.7" width="64.7" height="37.3"/>
    <text font-size="12.8" style="fill: #000000;text-anchor:middle;font-family:sans-serif;font-style:normal;font-weight:normal" x="455.65" y="262.25">
      <tspan x="455.65" y="262.25">livrer</tspan>
    </text>
  </g>
  <g>
    <ellipse style="fill: none; fill-opacity:0; stroke-width: 2; stroke: #000000" cx="679.019" cy="273.66" rx="66.481" ry="32.34"/>
    <text font-size="12.8" style="fill: #000000;text-anchor:middle;font-family:sans-serif;font-style:normal;font-weight:normal" x="679.019" y="277.56">
      <tspan x="679.019" y="277.56">Stocks</tspan>
    </text>
  </g>
  <g>
    <ellipse style="fill: none; fill-opacity:0; stroke-width: 2; stroke: #000000" cx="679.001" cy="474.651" rx="66.499" ry="31.349"/>
    <text font-size="12.8" style="fill: #000000;text-anchor:middle;font-family:sans-serif;font-style:normal;font-weight:normal" x="679.001" y="478.551">
      <tspan x="679.001" y="478.551">Achats</tspan>
    </text>
  </g>
  <g>
    <rect style="fill: none; fill-opacity:0; stroke-width: 2.35099e-37; stroke-dasharray: 20; stroke: #000000" x="786.725" y="467" width="132.3" height="36"/>
    <text font-size="12.8" style="fill: #000000;text-anchor:middle;font-family:sans-serif;font-style:normal;font-weight:normal" x="852.875" y="488.9">
      <tspan x="852.875" y="488.9">demander achats</tspan>
    </text>
  </g>
  <g>
    <rect style="fill: none; fill-opacity:0; stroke-width: 2.35099e-37; stroke-dasharray: 20; stroke: #000000" x="516.3" y="349.7" width="106.15" height="38.3"/>
    <text font-size="12.8" style="fill: #000000;text-anchor:middle;font-family:sans-serif;font-style:normal;font-weight:normal" x="569.375" y="372.75">
      <tspan x="569.375" y="372.75">commander</tspan>
    </text>
  </g>
  <g>
    <path style="fill: none; fill-opacity:0; stroke-width: 2; stroke: #000000" d="M 377.22,314.082 A 317.757,317.757 0 0 0 617.564,486.648"/>
    <polygon style="fill: #000000" points="373.939,307.342 382.675,314.319 377.087,314.149 373.598,318.517 "/>
    <polygon style="fill: none; fill-opacity:0; stroke-width: 2; stroke: #000000" points="373.939,307.342 382.675,314.319 377.087,314.149 373.598,318.517 "/>
  </g>
  <g>
    <rect style="fill: none; fill-opacity:0; stroke-width: 2.35099e-37; stroke-dasharray: 20; stroke: #000000" x="501.8" y="487.2" width="106.15" height="38.3"/>
    <text font-size="12.8" style="fill: #000000;text-anchor:middle;font-family:sans-serif;font-style:normal;font-weight:normal" x="554.875" y="510.25">
      <tspan x="554.875" y="510.25">payer facture</tspan>
    </text>
  </g>
  <g>
    <line style="fill: none; fill-opacity:0; stroke-width: 2; stroke: #000000" x1="617.564" y1="462.654" x2="419.219" y2="303.408"/>
    <polygon style="fill: #000000" points="413.37,298.712 424.298,301.074 419.219,303.408 418.038,308.872 "/>
    <polygon style="fill: none; fill-opacity:0; stroke-width: 2; stroke: #000000" points="413.37,298.712 424.298,301.074 419.219,303.408 418.038,308.872 "/>
  </g>
  <g>
    <path style="fill: none; fill-opacity:0; stroke-width: 2; stroke: #000000" d="M 755.179,475.32 A 101.187,101.187 0 1 0 745.5,273.66"/>
    <polygon style="fill: #000000" points="747.721,474.912 758.236,471.114 755.169,475.788 757.069,481.045 "/>
    <polygon style="fill: none; fill-opacity:0; stroke-width: 2; stroke: #000000" points="747.721,474.912 758.236,471.114 755.169,475.788 757.069,481.045 "/>
  </g>
  <g>
    <line style="fill: none; fill-opacity:0; stroke-width: 2; stroke: #000000" x1="679.019" y1="306" x2="679.002" y2="433.566"/>
    <polygon style="fill: #000000" points="679.001,441.066 674.003,431.065 679.002,433.566 684.003,431.067 "/>
    <polygon style="fill: none; fill-opacity:0; stroke-width: 2; stroke: #000000" points="679.001,441.066 674.003,431.065 679.002,433.566 684.003,431.067 "/>
  </g>
  <g>
    <rect style="fill: none; fill-opacity:0; stroke-width: 2.35099e-37; stroke-dasharray: 20; stroke: #000000" x="680.125" y="373.2" width="132.65" height="36"/>
    <text font-size="12.8" style="fill: #000000;text-anchor:middle;font-family:sans-serif;font-style:normal;font-weight:normal" x="746.45" y="395.1">
      <tspan x="746.45" y="395.1">informer livraison</tspan>
    </text>
  </g>
</svg>
