<?xml version="1.0" encoding="UTF-8" standalone="no"?>
<!DOCTYPE svg PUBLIC "-//W3C//DTD SVG 1.0//EN" "http://www.w3.org/TR/2001/PR-SVG-20010719/DTD/svg10.dtd">
<svg width="43cm" height="22cm" viewBox="27 -130 848 426" xmlns="http://www.w3.org/2000/svg" xmlns:xlink="http://www.w3.org/1999/xlink">
  <g>
    <ellipse style="fill: none; fill-opacity:0; stroke-width: 2; stroke-dasharray: 4; stroke: #000000" cx="110.926" cy="-60.9999" rx="54.6261" ry="27.3131"/>
    <text font-size="12.8" style="fill: #000000;text-anchor:middle;font-family:sans-serif;font-style:normal;font-weight:normal" x="110.926" y="-57.0999">
      <tspan x="110.926" y="-57.0999">Fournisseur</tspan>
    </text>
  </g>
  <g>
    <rect style="fill: none; fill-opacity:0; stroke-width: 2; stroke-dasharray: 20; stroke: #000000" x="259" y="-128" width="615" height="423"/>
    <text font-size="12.8" style="fill: #000000;text-anchor:middle;font-family:sans-serif;font-style:normal;font-weight:normal" x="566.5" y="87.4">
      <tspan x="566.5" y="87.4"></tspan>
    </text>
  </g>
  <g>
    <rect style="fill: none; fill-opacity:0; stroke-width: 2.35099e-37; stroke-dasharray: 20; stroke: #000000" x="767.226" y="-128.3" width="106.15" height="38.3"/>
    <text font-size="12.8" style="fill: #000000;text-anchor:middle;font-family:sans-serif;font-style:italic;font-weight:normal" x="820.301" y="-105.25">
      <tspan x="820.301" y="-105.25">supermarché</tspan>
    </text>
  </g>
  <g>
    <line style="fill: none; fill-opacity:0; stroke-width: 2; stroke: #000000" x1="357.616" y1="116.905" x2="157.296" y2="-35.7845"/>
    <polygon style="fill: #000000" points="151.331,-40.3311 162.315,-38.2456 157.296,-35.7845 156.253,-30.2925 "/>
    <polygon style="fill: none; fill-opacity:0; stroke-width: 2; stroke: #000000" points="151.331,-40.3311 162.315,-38.2456 157.296,-35.7845 156.253,-30.2925 "/>
  </g>
  <g>
    <line style="fill: none; fill-opacity:0; stroke-width: 2; stroke: #000000" x1="165.552" y1="-61" x2="412.23" y2="-61.2113"/>
    <polygon style="fill: #000000" points="419.73,-61.2177 409.734,-56.2091 412.23,-61.2113 409.726,-66.2091 "/>
    <polygon style="fill: none; fill-opacity:0; stroke-width: 2; stroke: #000000" points="419.73,-61.2177 409.734,-56.2091 412.23,-61.2113 409.726,-66.2091 "/>
  </g>
  <g>
    <line style="fill: none; fill-opacity:0; stroke-width: 2; stroke: #000000" x1="441.652" y1="-35.7408" x2="442.335" y2="98.7391"/>
    <polygon style="fill: #000000" points="442.373,106.239 437.322,96.2645 442.335,98.7391 447.322,96.2137 "/>
    <polygon style="fill: none; fill-opacity:0; stroke-width: 2; stroke: #000000" points="442.373,106.239 437.322,96.2645 442.335,98.7391 447.322,96.2137 "/>
  </g>
  <g>
    <rect style="fill: none; fill-opacity:0; stroke-width: 2; stroke-dasharray: 20; stroke: #000000" x="286.5" y="50" width="533.5" height="223"/>
    <text font-size="12.8" style="fill: #000000;text-anchor:middle;font-family:sans-serif;font-style:normal;font-weight:normal" x="553.25" y="165.4">
      <tspan x="553.25" y="165.4"></tspan>
    </text>
  </g>
  <g>
    <line style="fill: none; fill-opacity:0; stroke-width: 2; stroke: #000000" x1="490.4" y1="144.406" x2="639.264" y2="143.271"/>
    <polygon style="fill: #000000" points="646.764,143.214 636.802,148.29 639.264,143.271 636.726,138.29 "/>
    <polygon style="fill: none; fill-opacity:0; stroke-width: 2; stroke: #000000" points="646.764,143.214 636.802,148.29 639.264,143.271 636.726,138.29 "/>
  </g>
  <g>
    <ellipse style="fill: none; fill-opacity:0; stroke-width: 2; stroke: #000000" cx="489.178" cy="-61.2197" rx="67.2122" ry="36.0325"/>
    <text font-size="12.8" style="fill: #000000;text-anchor:middle;font-family:sans-serif;font-style:normal;font-weight:normal" x="489.178" y="-65.3197">
      <tspan x="489.178" y="-65.3197">Gestionnaire </tspan>
      <tspan x="489.178" y="-49.3197">de stocks</tspan>
    </text>
  </g>
  <g>
    <ellipse style="fill: none; fill-opacity:0; stroke-width: 2; stroke: #000000" cx="412.618" cy="144.406" rx="77.7822" ry="38.8911"/>
    <text font-size="12.8" style="fill: #000000;text-anchor:middle;font-family:sans-serif;font-style:normal;font-weight:normal" x="412.618" y="140.306">
      <tspan x="412.618" y="140.306">Gestionnaire des</tspan>
      <tspan x="412.618" y="156.306">commandes</tspan>
    </text>
  </g>
  <g>
    <rect style="fill: none; fill-opacity:0; stroke-width: 2.35099e-37; stroke-dasharray: 20; stroke: #000000" x="442.306" y="2.4" width="132.3" height="37.3"/>
    <text font-size="12.8" style="fill: #000000;text-anchor:middle;font-family:sans-serif;font-style:normal;font-weight:normal" x="508.456" y="24.95">
      <tspan x="508.456" y="24.95">demander achats</tspan>
    </text>
  </g>
  <g>
    <rect style="fill: none; fill-opacity:0; stroke-width: 2.35099e-37; stroke-dasharray: 20; stroke: #000000" x="342.606" y="-55.6" width="69.7" height="38.3"/>
    <text font-size="12.8" style="fill: #000000;text-anchor:middle;font-family:sans-serif;font-style:normal;font-weight:normal" x="377.456" y="-32.55">
      <tspan x="377.456" y="-32.55">livrer</tspan>
    </text>
  </g>
  <g>
    <rect style="fill: none; fill-opacity:0; stroke-width: 2.35099e-37; stroke-dasharray: 20; stroke: #000000" x="172.606" y="-56.6" width="106.15" height="38.3"/>
    <text font-size="12.8" style="fill: #000000;text-anchor:middle;font-family:sans-serif;font-style:normal;font-weight:normal" x="225.681" y="-33.55">
      <tspan x="225.681" y="-33.55">commander</tspan>
    </text>
  </g>
  <g>
    <rect style="fill: none; fill-opacity:0; stroke-width: 2.35099e-37; stroke-dasharray: 20; stroke: #000000" x="489.196" y="105.4" width="157.35" height="37.3"/>
    <text font-size="12.8" style="fill: #000000;text-anchor:middle;font-family:sans-serif;font-style:normal;font-weight:normal" x="567.871" y="127.95">
      <tspan x="567.871" y="127.95">demander paiements</tspan>
    </text>
  </g>
  <g>
    <ellipse style="fill: none; fill-opacity:0; stroke-width: 2; stroke: #000000" cx="711.12" cy="143.197" rx="62.1202" ry="33.1971"/>
    <text font-size="12.8" style="fill: #000000;text-anchor:middle;font-family:sans-serif;font-style:normal;font-weight:normal" x="711.12" y="147.097">
      <tspan x="711.12" y="147.097">Trésorier</tspan>
    </text>
  </g>
  <g>
    <rect style="fill: none; fill-opacity:0; stroke-width: 2.35099e-37; stroke-dasharray: 20; stroke: #000000" x="288.252" y="233.4" width="68.748" height="38.3"/>
    <text font-size="12.8" style="fill: #000000;text-anchor:middle;font-family:sans-serif;font-style:italic;font-weight:normal" x="322.626" y="256.45">
      <tspan x="322.626" y="256.45">Achats</tspan>
    </text>
  </g>
  <g>
    <line style="fill: none; fill-opacity:0; stroke-width: 2; stroke: #000000" x1="556.39" y1="-61.2196" x2="704.592" y2="102.777"/>
    <polygon style="fill: #000000" points="709.621,108.341 699.206,104.274 704.592,102.777 706.626,97.5693 "/>
    <polygon style="fill: none; fill-opacity:0; stroke-width: 2; stroke: #000000" points="709.621,108.341 699.206,104.274 704.592,102.777 706.626,97.5693 "/>
  </g>
  <g>
    <rect style="fill: none; fill-opacity:0; stroke-width: 2.35099e-37; stroke-dasharray: 20; stroke: #000000" x="686.8" y="53.2" width="132.65" height="36"/>
    <text font-size="12.8" style="fill: #000000;text-anchor:middle;font-family:sans-serif;font-style:normal;font-weight:normal" x="753.125" y="75.1">
      <tspan x="753.125" y="75.1">informer livraison</tspan>
    </text>
  </g>
  <g>
    <path style="fill: none; fill-opacity:0; stroke-width: 2; stroke: #000000" d="M 114.374,-24.584 A 384.933,384.933 0 0 0 667.194,166.671"/>
    <polygon style="fill: #000000" points="111.692,-31.5858 119.813,-23.9015 114.259,-24.5389 110.417,-20.4784 "/>
    <polygon style="fill: none; fill-opacity:0; stroke-width: 2; stroke: #000000" points="111.692,-31.5858 119.813,-23.9015 114.259,-24.5389 110.417,-20.4784 "/>
  </g>
  <g>
    <rect style="fill: none; fill-opacity:0; stroke-width: 2.35099e-37; stroke-dasharray: 20; stroke: #000000" x="27.3" y="28.2" width="106.15" height="38.3"/>
    <text font-size="12.8" style="fill: #000000;text-anchor:middle;font-family:sans-serif;font-style:normal;font-weight:normal" x="80.375" y="51.25">
      <tspan x="80.375" y="51.25">payer facture</tspan>
    </text>
  </g>
  <g>
    <rect style="fill: none; fill-opacity:0; stroke-width: 2; stroke-dasharray: 20; stroke: #000000" x="340" y="-128" width="231" height="121"/>
    <text font-size="12.8" style="fill: #000000;text-anchor:middle;font-family:sans-serif;font-style:normal;font-weight:normal" x="455.5" y="-63.6">
      <tspan x="455.5" y="-63.6"></tspan>
    </text>
  </g>
  <g>
    <rect style="fill: none; fill-opacity:0; stroke-width: 2.35099e-37; stroke-dasharray: 20; stroke: #000000" x="344.8" y="-124" width="68.748" height="38.3"/>
    <text font-size="12.8" style="fill: #000000;text-anchor:middle;font-family:sans-serif;font-style:italic;font-weight:normal" x="379.174" y="-100.95">
      <tspan x="379.174" y="-100.95">Stocks</tspan>
    </text>
  </g>
</svg>
