<?xml version="1.0" encoding="UTF-8" standalone="no"?>
<!DOCTYPE svg PUBLIC "-//W3C//DTD SVG 1.0//EN" "http://www.w3.org/TR/2001/PR-SVG-20010719/DTD/svg10.dtd">
<svg width="62cm" height="43cm" viewBox="161 91 1232 859" xmlns="http://www.w3.org/2000/svg" xmlns:xlink="http://www.w3.org/1999/xlink">
  <g>
    <rect style="fill: #81d8d0" x="390.726" y="492.1" width="172.3" height="18"/>
    <rect style="fill: none; fill-opacity:0; stroke-width: 2; stroke: #000000" x="390.726" y="492.1" width="172.3" height="18"/>
    <text font-size="11.2" style="fill: #000000;text-anchor:middle;font-family:sans-serif;font-style:normal;font-weight:700" x="476.876" y="506.1">Fournisseur</text>
    <rect style="fill: #81d8d0" x="390.726" y="510.1" width="172.3" height="52"/>
    <rect style="fill: none; fill-opacity:0; stroke-width: 2; stroke: #000000" x="390.726" y="510.1" width="172.3" height="52"/>
    <polygon style="fill: #000000" points="393.726,520.1 395.726,523.1 397.726,520.1 395.726,517.1 "/>
    <text font-size="12.8" style="fill: #000000;text-anchor:start;font-family:monospace;font-style:normal;font-weight:normal" x="399.726" y="526.1">id-fournisseur</text>
    <line style="fill: none; fill-opacity:0; stroke-width: 1; stroke: #000000" x1="399.726" y1="527.7" x2="556.026" y2="527.7"/>
    <ellipse style="fill: none; fill-opacity:0; stroke-width: 0.2; stroke: #000000" cx="395.726" cy="536.1" rx="2" ry="2"/>
    <text font-size="12.8" style="fill: #000000;text-anchor:start;font-family:monospace;font-style:normal;font-weight:normal" x="399.726" y="542.1">nom-fournisseur</text>
    <ellipse style="fill: none; fill-opacity:0; stroke-width: 0.2; stroke: #000000" cx="395.726" cy="552.1" rx="2" ry="2"/>
    <text font-size="12.8" style="fill: #000000;text-anchor:start;font-family:monospace;font-style:normal;font-weight:normal" x="399.726" y="558.1">adresse-fournisseur</text>
  </g>
  <g>
    <rect style="fill: #81d8d0" x="836.352" y="492.1" width="210.8" height="18"/>
    <rect style="fill: none; fill-opacity:0; stroke-width: 2; stroke: #000000" x="836.352" y="492.1" width="210.8" height="18"/>
    <text font-size="11.2" style="fill: #000000;text-anchor:middle;font-family:sans-serif;font-style:normal;font-weight:700" x="941.752" y="506.1">Commande</text>
    <rect style="fill: #81d8d0" x="836.352" y="510.1" width="210.8" height="52"/>
    <rect style="fill: none; fill-opacity:0; stroke-width: 2; stroke: #000000" x="836.352" y="510.1" width="210.8" height="52"/>
    <polygon style="fill: #000000" points="839.352,520.1 841.352,523.1 843.352,520.1 841.352,517.1 "/>
    <text font-size="12.8" style="fill: #000000;text-anchor:start;font-family:monospace;font-style:normal;font-weight:normal" x="845.352" y="526.1">id-commande</text>
    <line style="fill: none; fill-opacity:0; stroke-width: 1; stroke: #000000" x1="845.352" y1="527.7" x2="1040.15" y2="527.7"/>
    <ellipse style="fill: none; fill-opacity:0; stroke-width: 0.2; stroke: #000000" cx="841.352" cy="536.1" rx="2" ry="2"/>
    <text font-size="12.8" style="fill: #000000;text-anchor:start;font-family:monospace;font-style:normal;font-weight:normal" x="845.352" y="542.1">date-commande</text>
    <ellipse style="fill: none; fill-opacity:0; stroke-width: 0.2; stroke: #000000" cx="841.352" cy="552.1" rx="2" ry="2"/>
    <text font-size="12.8" style="fill: #000000;text-anchor:start;font-family:monospace;font-style:normal;font-weight:normal" x="845.352" y="558.1">ref-commande-fournisseur</text>
  </g>
  <g>
    <polyline style="fill: none; fill-opacity:0; stroke-width: 2; stroke: #000000" points="563.026,520.1 601.626,520.1 601.626,519.854 640.226,519.854 "/>
    <text font-size="9.6" style="fill: #000000;text-anchor:start;font-family:monospace;font-style:normal;font-weight:normal" x="567.026" y="516.1">1,n</text>
  </g>
  <g>
    <polyline style="fill: none; fill-opacity:0; stroke-width: 2; stroke: #000000" points="836.352,520.1 795.889,520.1 795.889,519.855 755.426,519.855 "/>
    <text font-size="9.6" style="fill: #000000;text-anchor:end;font-family:monospace;font-style:normal;font-weight:normal" x="832.352" y="516.1">1,1</text>
  </g>
  <line style="fill: none; fill-opacity:0; stroke-width: 2; stroke: #000000" x1="822.95" y1="671.904" x2="1060.55" y2="671.904"/>
  <g>
    <path style="fill: none; fill-opacity:0; stroke-width: 2; stroke: #000000" d="M 659.426 494.1 L 736.226,494.1 C 746.83,494.1 755.426,505.631 755.426,519.855 C 755.426,534.078 746.83,545.609 736.226,545.609 L 659.426,545.609 C 648.822,545.609 640.226,534.078 640.226,519.855 C 640.226,505.631 648.822,494.1 659.426,494.1"/>
    <text font-size="12.8" style="fill: #000000;text-anchor:middle;font-family:sans-serif;font-style:normal;font-weight:normal" x="697.826" y="523.855">
      <tspan x="697.826" y="523.855">Passer</tspan>
    </text>
  </g>
  <g>
    <rect style="fill: #81d8d0" x="840.202" y="863.2" width="203.1" height="18"/>
    <rect style="fill: none; fill-opacity:0; stroke-width: 2; stroke: #000000" x="840.202" y="863.2" width="203.1" height="18"/>
    <text font-size="11.2" style="fill: #000000;text-anchor:middle;font-family:sans-serif;font-style:normal;font-weight:700" x="941.752" y="877.2">Produit acheté</text>
    <rect style="fill: #81d8d0" x="840.202" y="881.2" width="203.1" height="68"/>
    <rect style="fill: none; fill-opacity:0; stroke-width: 2; stroke: #000000" x="840.202" y="881.2" width="203.1" height="68"/>
    <polygon style="fill: #000000" points="843.202,891.2 845.202,894.2 847.202,891.2 845.202,888.2 "/>
    <text font-size="12.8" style="fill: #000000;text-anchor:start;font-family:monospace;font-style:normal;font-weight:normal" x="849.202" y="897.2">id-produit-acheté</text>
    <line style="fill: none; fill-opacity:0; stroke-width: 1; stroke: #000000" x1="849.202" y1="898.8" x2="1036.3" y2="898.8"/>
    <ellipse style="fill: none; fill-opacity:0; stroke-width: 0.2; stroke: #000000" cx="845.202" cy="907.2" rx="2" ry="2"/>
    <text font-size="12.8" style="fill: #000000;text-anchor:start;font-family:monospace;font-style:normal;font-weight:normal" x="849.202" y="913.2">nom-produit-acheté</text>
    <ellipse style="fill: none; fill-opacity:0; stroke-width: 0.2; stroke: #000000" cx="845.202" cy="923.2" rx="2" ry="2"/>
    <text font-size="12.8" style="fill: #000000;text-anchor:start;font-family:monospace;font-style:normal;font-weight:normal" x="849.202" y="929.2">prix-produit-acheté</text>
    <ellipse style="fill: none; fill-opacity:0; stroke-width: 0.2; stroke: #000000" cx="845.202" cy="939.2" rx="2" ry="2"/>
    <text font-size="12.8" style="fill: #000000;text-anchor:start;font-family:monospace;font-style:normal;font-weight:normal" x="849.202" y="945.2">ref-produit-fournisseur</text>
  </g>
  <g>
    <path style="fill: none; fill-opacity:0; stroke-width: 2; stroke: #000000" d="M 862.55 642.2 L 1020.95,642.2 C 1042.82,642.2 1060.55,655.499 1060.55,671.905 C 1060.55,688.31 1042.82,701.609 1020.95,701.609 L 862.55,701.609 C 840.68,701.609 822.95,688.31 822.95,671.905 C 822.95,655.499 840.68,642.2 862.55,642.2"/>
    <text font-size="12.8" style="fill: #000000;text-anchor:middle;font-family:sans-serif;font-style:normal;font-weight:normal" x="941.75" y="659.905">
      <tspan x="941.75" y="659.905">Acheter</tspan>
      <tspan x="941.75" y="675.905"></tspan>
      <tspan x="941.75" y="691.905">quantité-produit-acheté</tspan>
    </text>
  </g>
  <g>
    <rect style="fill: #81d8d0" x="600.726" y="314.2" width="203.1" height="18"/>
    <rect style="fill: none; fill-opacity:0; stroke-width: 2; stroke: #000000" x="600.726" y="314.2" width="203.1" height="18"/>
    <text font-size="11.2" style="fill: #000000;text-anchor:middle;font-family:sans-serif;font-style:normal;font-weight:700" x="702.276" y="328.2">Facture</text>
    <rect style="fill: #81d8d0" x="600.726" y="332.2" width="203.1" height="68"/>
    <rect style="fill: none; fill-opacity:0; stroke-width: 2; stroke: #000000" x="600.726" y="332.2" width="203.1" height="68"/>
    <polygon style="fill: #000000" points="603.726,342.2 605.726,345.2 607.726,342.2 605.726,339.2 "/>
    <text font-size="12.8" style="fill: #000000;text-anchor:start;font-family:monospace;font-style:normal;font-weight:normal" x="609.726" y="348.2">id-facture</text>
    <line style="fill: none; fill-opacity:0; stroke-width: 1; stroke: #000000" x1="609.726" y1="349.8" x2="796.826" y2="349.8"/>
    <ellipse style="fill: none; fill-opacity:0; stroke-width: 0.2; stroke: #000000" cx="605.726" cy="358.2" rx="2" ry="2"/>
    <text font-size="12.8" style="fill: #000000;text-anchor:start;font-family:monospace;font-style:normal;font-weight:normal" x="609.726" y="364.2">ref-facture-fournisseur</text>
    <ellipse style="fill: none; fill-opacity:0; stroke-width: 0.2; stroke: #000000" cx="605.726" cy="374.2" rx="2" ry="2"/>
    <text font-size="12.8" style="fill: #000000;text-anchor:start;font-family:monospace;font-style:normal;font-weight:normal" x="609.726" y="380.2">date-facturation</text>
    <ellipse style="fill: none; fill-opacity:0; stroke-width: 0.2; stroke: #000000" cx="605.726" cy="390.2" rx="2" ry="2"/>
    <text font-size="12.8" style="fill: #000000;text-anchor:start;font-family:monospace;font-style:normal;font-weight:normal" x="609.726" y="396.2">date-paiement</text>
  </g>
  <g>
    <rect style="fill: #81d8d0" x="1139.23" y="642.2" width="249.3" height="18"/>
    <rect style="fill: none; fill-opacity:0; stroke-width: 2; stroke: #000000" x="1139.23" y="642.2" width="249.3" height="18"/>
    <text font-size="11.2" style="fill: #000000;text-anchor:middle;font-family:sans-serif;font-style:normal;font-weight:700" x="1263.88" y="656.2">Livraison</text>
    <rect style="fill: #81d8d0" x="1139.23" y="660.2" width="249.3" height="68"/>
    <rect style="fill: none; fill-opacity:0; stroke-width: 2; stroke: #000000" x="1139.23" y="660.2" width="249.3" height="68"/>
    <polygon style="fill: #000000" points="1142.23,670.2 1144.23,673.2 1146.23,670.2 1144.23,667.2 "/>
    <text font-size="12.8" style="fill: #000000;text-anchor:start;font-family:monospace;font-style:normal;font-weight:normal" x="1148.23" y="676.2">id-livraison</text>
    <line style="fill: none; fill-opacity:0; stroke-width: 1; stroke: #000000" x1="1148.23" y1="677.8" x2="1381.53" y2="677.8"/>
    <ellipse style="fill: none; fill-opacity:0; stroke-width: 0.2; stroke: #000000" cx="1144.23" cy="686.2" rx="2" ry="2"/>
    <text font-size="12.8" style="fill: #000000;text-anchor:start;font-family:monospace;font-style:normal;font-weight:normal" x="1148.23" y="692.2">date-livraison</text>
    <ellipse style="fill: none; fill-opacity:0; stroke-width: 0.2; stroke: #000000" cx="1144.23" cy="702.2" rx="2" ry="2"/>
    <text font-size="12.8" style="fill: #000000;text-anchor:start;font-family:monospace;font-style:normal;font-weight:normal" x="1148.23" y="708.2">ref-bon-livraison-fournisseur</text>
    <ellipse style="fill: none; fill-opacity:0; stroke-width: 0.2; stroke: #000000" cx="1144.23" cy="718.2" rx="2" ry="2"/>
    <text font-size="12.8" style="fill: #000000;text-anchor:start;font-family:monospace;font-style:normal;font-weight:normal" x="1148.23" y="724.2">date-retour</text>
  </g>
  <g>
    <rect style="fill: #81d8d0" x="223.026" y="604.2" width="110.7" height="18"/>
    <rect style="fill: none; fill-opacity:0; stroke-width: 2; stroke: #000000" x="223.026" y="604.2" width="110.7" height="18"/>
    <text font-size="11.2" style="fill: #000000;text-anchor:middle;font-family:sans-serif;font-style:normal;font-weight:700" x="278.376" y="618.2">Ticket</text>
    <rect style="fill: #81d8d0" x="223.026" y="622.2" width="110.7" height="36"/>
    <rect style="fill: none; fill-opacity:0; stroke-width: 2; stroke: #000000" x="223.026" y="622.2" width="110.7" height="36"/>
    <polygon style="fill: #000000" points="226.026,632.2 228.026,635.2 230.026,632.2 228.026,629.2 "/>
    <text font-size="12.8" style="fill: #000000;text-anchor:start;font-family:monospace;font-style:normal;font-weight:normal" x="232.026" y="638.2">ref-ticket</text>
    <line style="fill: none; fill-opacity:0; stroke-width: 1; stroke: #000000" x1="232.026" y1="639.8" x2="326.726" y2="639.8"/>
    <ellipse style="fill: none; fill-opacity:0; stroke-width: 0.2; stroke: #000000" cx="228.026" cy="648.2" rx="2" ry="2"/>
    <text font-size="12.8" style="fill: #000000;text-anchor:start;font-family:monospace;font-style:normal;font-weight:normal" x="232.026" y="654.2">date-ticket</text>
  </g>
  <g>
    <rect style="fill: #81d8d0" x="196.076" y="873.2" width="164.6" height="18"/>
    <rect style="fill: none; fill-opacity:0; stroke-width: 2; stroke: #000000" x="196.076" y="873.2" width="164.6" height="18"/>
    <text font-size="11.2" style="fill: #000000;text-anchor:middle;font-family:sans-serif;font-style:normal;font-weight:700" x="278.376" y="887.2">Produit vendu</text>
    <rect style="fill: #81d8d0" x="196.076" y="891.2" width="164.6" height="52"/>
    <rect style="fill: none; fill-opacity:0; stroke-width: 2; stroke: #000000" x="196.076" y="891.2" width="164.6" height="52"/>
    <polygon style="fill: #000000" points="199.076,901.2 201.076,904.2 203.076,901.2 201.076,898.2 "/>
    <text font-size="12.8" style="fill: #000000;text-anchor:start;font-family:monospace;font-style:normal;font-weight:normal" x="205.076" y="907.2">id-produit-vendu</text>
    <line style="fill: none; fill-opacity:0; stroke-width: 1; stroke: #000000" x1="205.076" y1="908.8" x2="353.676" y2="908.8"/>
    <ellipse style="fill: none; fill-opacity:0; stroke-width: 0.2; stroke: #000000" cx="201.076" cy="917.2" rx="2" ry="2"/>
    <text font-size="12.8" style="fill: #000000;text-anchor:start;font-family:monospace;font-style:normal;font-weight:normal" x="205.076" y="923.2">nom-produit-vendu</text>
    <ellipse style="fill: none; fill-opacity:0; stroke-width: 0.2; stroke: #000000" cx="201.076" cy="933.2" rx="2" ry="2"/>
    <text font-size="12.8" style="fill: #000000;text-anchor:start;font-family:monospace;font-style:normal;font-weight:normal" x="205.076" y="939.2">prix-produit-vendu</text>
  </g>
  <g>
    <path style="fill: none; fill-opacity:0; stroke-width: 2; stroke: #000000" d="M 201.325 735.2 L 355.425,735.2 C 376.702,735.2 393.95,747.288 393.95,762.2 C 393.95,777.112 376.702,789.2 355.425,789.2 L 201.325,789.2 C 180.048,789.2 162.8,777.112 162.8,762.2 C 162.8,747.288 180.048,735.2 201.325,735.2"/>
    <text font-size="12.8" style="fill: #000000;text-anchor:middle;font-family:sans-serif;font-style:normal;font-weight:normal" x="278.375" y="750.2">
      <tspan x="278.375" y="750.2">Vendre</tspan>
      <tspan x="278.375" y="766.2"></tspan>
      <tspan x="278.375" y="782.2">quantité-produit-vendu</tspan>
    </text>
  </g>
  <g>
    <rect style="fill: #81d8d0" x="604.726" y="91.2" width="195.4" height="18"/>
    <rect style="fill: none; fill-opacity:0; stroke-width: 2; stroke: #000000" x="604.726" y="91.2" width="195.4" height="18"/>
    <text font-size="11.2" style="fill: #000000;text-anchor:middle;font-family:sans-serif;font-style:normal;font-weight:700" x="702.426" y="105.2">Employé</text>
    <rect style="fill: #81d8d0" x="604.726" y="109.2" width="195.4" height="68"/>
    <rect style="fill: none; fill-opacity:0; stroke-width: 2; stroke: #000000" x="604.726" y="109.2" width="195.4" height="68"/>
    <polygon style="fill: #000000" points="607.726,119.2 609.726,122.2 611.726,119.2 609.726,116.2 "/>
    <text font-size="12.8" style="fill: #000000;text-anchor:start;font-family:monospace;font-style:normal;font-weight:normal" x="613.726" y="125.2">id-employé</text>
    <line style="fill: none; fill-opacity:0; stroke-width: 1; stroke: #000000" x1="613.726" y1="126.8" x2="793.126" y2="126.8"/>
    <ellipse style="fill: none; fill-opacity:0; stroke-width: 0.2; stroke: #000000" cx="609.726" cy="135.2" rx="2" ry="2"/>
    <text font-size="12.8" style="fill: #000000;text-anchor:start;font-family:monospace;font-style:normal;font-weight:normal" x="613.726" y="141.2">nom-employé</text>
    <ellipse style="fill: none; fill-opacity:0; stroke-width: 0.2; stroke: #000000" cx="609.726" cy="151.2" rx="2" ry="2"/>
    <text font-size="12.8" style="fill: #000000;text-anchor:start;font-family:monospace;font-style:normal;font-weight:normal" x="613.726" y="157.2">date-naissance-employé</text>
    <ellipse style="fill: none; fill-opacity:0; stroke-width: 0.2; stroke: #000000" cx="609.726" cy="167.2" rx="2" ry="2"/>
    <text font-size="12.8" style="fill: #000000;text-anchor:start;font-family:monospace;font-style:normal;font-weight:normal" x="613.726" y="173.2">adresse-employé</text>
  </g>
  <g>
    <rect style="fill: #81d8d0" x="207.626" y="107.2" width="141.5" height="18"/>
    <rect style="fill: none; fill-opacity:0; stroke-width: 2; stroke: #000000" x="207.626" y="107.2" width="141.5" height="18"/>
    <text font-size="11.2" style="fill: #000000;text-anchor:middle;font-family:sans-serif;font-style:normal;font-weight:700" x="278.376" y="121.2">Fiche de paye</text>
    <rect style="fill: #81d8d0" x="207.626" y="125.2" width="141.5" height="36"/>
    <rect style="fill: none; fill-opacity:0; stroke-width: 2; stroke: #000000" x="207.626" y="125.2" width="141.5" height="36"/>
    <polygon style="fill: #000000" points="210.626,135.2 212.626,138.2 214.626,135.2 212.626,132.2 "/>
    <text font-size="12.8" style="fill: #000000;text-anchor:start;font-family:monospace;font-style:normal;font-weight:normal" x="216.626" y="141.2">ref-fiche-paye</text>
    <line style="fill: none; fill-opacity:0; stroke-width: 1; stroke: #000000" x1="216.626" y1="142.8" x2="342.126" y2="142.8"/>
    <ellipse style="fill: none; fill-opacity:0; stroke-width: 0.2; stroke: #000000" cx="212.626" cy="151.2" rx="2" ry="2"/>
    <text font-size="12.8" style="fill: #000000;text-anchor:start;font-family:monospace;font-style:normal;font-weight:normal" x="216.626" y="157.2">salaire-employé</text>
  </g>
  <g>
    <rect style="fill: #81d8d0" x="202.876" y="330.81" width="149.2" height="18"/>
    <rect style="fill: none; fill-opacity:0; stroke-width: 2; stroke: #000000" x="202.876" y="330.81" width="149.2" height="18"/>
    <text font-size="11.2" style="fill: #000000;text-anchor:middle;font-family:sans-serif;font-style:normal;font-weight:700" x="277.476" y="344.81">Bilan</text>
    <rect style="fill: #81d8d0" x="202.876" y="348.81" width="149.2" height="52"/>
    <rect style="fill: none; fill-opacity:0; stroke-width: 2; stroke: #000000" x="202.876" y="348.81" width="149.2" height="52"/>
    <polygon style="fill: #000000" points="205.876,358.81 207.876,361.81 209.876,358.81 207.876,355.81 "/>
    <text font-size="12.8" style="fill: #000000;text-anchor:start;font-family:monospace;font-style:normal;font-weight:normal" x="211.876" y="364.81">id-bilan</text>
    <line style="fill: none; fill-opacity:0; stroke-width: 1; stroke: #000000" x1="211.876" y1="366.41" x2="345.076" y2="366.41"/>
    <ellipse style="fill: none; fill-opacity:0; stroke-width: 0.2; stroke: #000000" cx="207.876" cy="374.81" rx="2" ry="2"/>
    <text font-size="12.8" style="fill: #000000;text-anchor:start;font-family:monospace;font-style:normal;font-weight:normal" x="211.876" y="380.81">date-début-bilan</text>
    <ellipse style="fill: none; fill-opacity:0; stroke-width: 0.2; stroke: #000000" cx="207.876" cy="390.81" rx="2" ry="2"/>
    <text font-size="12.8" style="fill: #000000;text-anchor:start;font-family:monospace;font-style:normal;font-weight:normal" x="211.876" y="396.81">date-fin-bilan</text>
  </g>
  <g>
    <polyline style="fill: none; fill-opacity:0; stroke-width: 2; stroke: #000000" points="941.752,562.1 941.752,602.15 941.75,602.15 941.75,642.2 "/>
    <text font-size="9.6" style="fill: #000000;text-anchor:start;font-family:monospace;font-style:normal;font-weight:normal" x="945.752" y="574.1">1,n</text>
  </g>
  <g>
    <polyline style="fill: none; fill-opacity:0; stroke-width: 2; stroke: #000000" points="941.752,701.608 941.752,701.608 941.752,863.2 941.752,863.2 "/>
    <text font-size="9.6" style="fill: #000000;text-anchor:start;font-family:monospace;font-style:normal;font-weight:normal" x="945.752" y="859.2">1,n</text>
  </g>
  <g>
    <path style="fill: none; fill-opacity:0; stroke-width: 2; stroke: #000000" d="M 1225.48 493.808 L 1302.28,493.808 C 1312.88,493.808 1321.48,505.339 1321.48,519.563 C 1321.48,533.786 1312.88,545.317 1302.28,545.317 L 1225.48,545.317 C 1214.87,545.317 1206.28,533.786 1206.28,519.563 C 1206.28,505.339 1214.87,493.808 1225.48,493.808"/>
    <text font-size="12.8" style="fill: #000000;text-anchor:middle;font-family:sans-serif;font-style:normal;font-weight:normal" x="1263.88" y="523.563">
      <tspan x="1263.88" y="523.563">Livrer</tspan>
    </text>
  </g>
  <g>
    <polyline style="fill: none; fill-opacity:0; stroke-width: 2; stroke: #000000" points="1047.15,520.1 1126.71,520.1 1126.71,519.563 1206.28,519.563 "/>
    <text font-size="9.6" style="fill: #000000;text-anchor:start;font-family:monospace;font-style:normal;font-weight:normal" x="1051.15" y="516.1">0,1</text>
  </g>
  <g>
    <polyline style="fill: none; fill-opacity:0; stroke-width: 2; stroke: #000000" points="1263.88,545.318 1264.8,545.318 1264.8,642.2 1263.88,642.2 "/>
    <text font-size="9.6" style="fill: #000000;text-anchor:start;font-family:monospace;font-style:normal;font-weight:normal" x="1267.88" y="638.2">1,1</text>
  </g>
  <g>
    <path style="fill: none; fill-opacity:0; stroke-width: 2; stroke: #000000" d="M 904.8 332.81 L 981.6,332.81 C 992.204,332.81 1000.8,344.341 1000.8,358.565 C 1000.8,372.788 992.204,384.319 981.6,384.319 L 904.8,384.319 C 894.196,384.319 885.6,372.788 885.6,358.565 C 885.6,344.341 894.196,332.81 904.8,332.81"/>
    <text font-size="12.8" style="fill: #000000;text-anchor:middle;font-family:sans-serif;font-style:normal;font-weight:normal" x="943.2" y="362.565">
      <tspan x="943.2" y="362.565">Facturer</tspan>
    </text>
  </g>
  <g>
    <polyline style="fill: none; fill-opacity:0; stroke-width: 2; stroke: #000000" points="943.2,384.318 942.6,384.318 942.6,492.1 941.752,492.1 "/>
    <text font-size="9.6" style="fill: #000000;text-anchor:start;font-family:monospace;font-style:normal;font-weight:normal" x="945.752" y="488.1">0,1</text>
  </g>
  <g>
    <polyline style="fill: none; fill-opacity:0; stroke-width: 2; stroke: #000000" points="885.6,358.564 844.714,358.564 844.714,358.2 803.826,358.2 "/>
    <text font-size="9.6" style="fill: #000000;text-anchor:start;font-family:monospace;font-style:normal;font-weight:normal" x="807.826" y="354.2">1,1</text>
  </g>
  <g>
    <path style="fill: none; fill-opacity:0; stroke-width: 2; stroke: #000000" d="M 429.251 109.446 L 506.151,109.446 C 516.769,109.446 525.376,120.977 525.376,135.201 C 525.376,149.424 516.769,160.955 506.151,160.955 L 429.251,160.955 C 418.633,160.955 410.026,149.424 410.026,135.201 C 410.026,120.977 418.633,109.446 429.251,109.446"/>
    <text font-size="12.8" style="fill: #000000;text-anchor:middle;font-family:sans-serif;font-style:normal;font-weight:normal" x="467.701" y="139.201">
      <tspan x="467.701" y="139.201">Rémunérer</tspan>
    </text>
  </g>
  <g>
    <polyline style="fill: none; fill-opacity:0; stroke-width: 2; stroke: #000000" points="349.126,135.2 348.95,135.2 348.95,135.2 410.026,135.2 "/>
    <text font-size="9.6" style="fill: #000000;text-anchor:end;font-family:monospace;font-style:normal;font-weight:normal" x="406.026" y="131.2">1,1</text>
  </g>
  <g>
    <polyline style="fill: none; fill-opacity:0; stroke-width: 2; stroke: #000000" points="525.376,135.2 569.576,135.2 569.576,135.2 604.726,135.2 "/>
    <text font-size="9.6" style="fill: #000000;text-anchor:end;font-family:monospace;font-style:normal;font-weight:normal" x="600.726" y="131.2">0,n</text>
  </g>
  <g>
    <path style="fill: none; fill-opacity:0; stroke-width: 2; stroke: #000000" d="M 410.553 332.81 L 487.453,332.81 C 498.071,332.81 506.678,344.341 506.678,358.565 C 506.678,372.788 498.071,384.319 487.453,384.319 L 410.553,384.319 C 399.935,384.319 391.328,372.788 391.328,358.565 C 391.328,344.341 399.935,332.81 410.553,332.81"/>
    <text font-size="12.8" style="fill: #000000;text-anchor:middle;font-family:sans-serif;font-style:normal;font-weight:normal" x="449.003" y="354.565">
      <tspan x="449.003" y="354.565">Soustraire</tspan>
      <tspan x="449.003" y="370.565">Facture</tspan>
    </text>
  </g>
  <g>
    <path style="fill: none; fill-opacity:0; stroke-width: 2; stroke: #000000" d="M 239.925 220.81 L 316.825,220.81 C 327.443,220.81 336.05,232.341 336.05,246.565 C 336.05,260.788 327.443,272.319 316.825,272.319 L 239.925,272.319 C 229.307,272.319 220.7,260.788 220.7,246.565 C 220.7,232.341 229.307,220.81 239.925,220.81"/>
    <text font-size="12.8" style="fill: #000000;text-anchor:middle;font-family:sans-serif;font-style:normal;font-weight:normal" x="278.375" y="242.565">
      <tspan x="278.375" y="242.565">Soustraire</tspan>
      <tspan x="278.375" y="258.565">Paye</tspan>
    </text>
  </g>
  <g>
    <polyline style="fill: none; fill-opacity:0; stroke-width: 2; stroke: #000000" points="278.376,658.2 278.376,696.7 278.375,696.7 278.375,735.2 "/>
    <text font-size="9.6" style="fill: #000000;text-anchor:start;font-family:monospace;font-style:normal;font-weight:normal" x="282.376" y="670.2">1,n</text>
  </g>
  <g>
    <polyline style="fill: none; fill-opacity:0; stroke-width: 2; stroke: #000000" points="278.376,789.2 278.528,789.2 278.528,873.2 278.376,873.2 "/>
    <text font-size="9.6" style="fill: #000000;text-anchor:start;font-family:monospace;font-style:normal;font-weight:normal" x="282.376" y="869.2">0,n</text>
  </g>
  <g>
    <path style="fill: none; fill-opacity:0; stroke-width: 2; stroke: #000000" d="M 239.925 483.808 L 316.825,483.808 C 327.443,483.808 336.05,495.339 336.05,509.563 C 336.05,523.786 327.443,535.317 316.825,535.317 L 239.925,535.317 C 229.307,535.317 220.7,523.786 220.7,509.563 C 220.7,495.339 229.307,483.808 239.925,483.808"/>
    <text font-size="12.8" style="fill: #000000;text-anchor:middle;font-family:sans-serif;font-style:normal;font-weight:normal" x="278.375" y="505.563">
      <tspan x="278.375" y="505.563">Ajouter</tspan>
      <tspan x="278.375" y="521.563">Vente</tspan>
    </text>
  </g>
  <g>
    <polyline style="fill: none; fill-opacity:0; stroke-width: 2; stroke: #000000" points="278.376,161.2 278.528,161.2 278.528,220.81 278.376,220.81 "/>
    <text font-size="9.6" style="fill: #000000;text-anchor:start;font-family:monospace;font-style:normal;font-weight:normal" x="282.376" y="216.81">0,n</text>
  </g>
  <g>
    <polyline style="fill: none; fill-opacity:0; stroke-width: 2; stroke: #000000" points="278.376,272.318 277.528,272.318 277.528,330.81 277.476,330.81 "/>
    <text font-size="9.6" style="fill: #000000;text-anchor:start;font-family:monospace;font-style:normal;font-weight:normal" x="281.476" y="326.81">0,n</text>
  </g>
  <g>
    <polyline style="fill: none; fill-opacity:0; stroke-width: 2; stroke: #000000" points="391.656,358.564 360.028,358.564 360.028,358.81 352.076,358.81 "/>
    <text font-size="9.6" style="fill: #000000;text-anchor:start;font-family:monospace;font-style:normal;font-weight:normal" x="356.076" y="354.81">0,n</text>
  </g>
  <g>
    <polyline style="fill: none; fill-opacity:0; stroke-width: 2; stroke: #000000" points="600.726,358.2 550.98,358.2 550.98,358.564 506.678,358.564 "/>
    <text font-size="9.6" style="fill: #000000;text-anchor:end;font-family:monospace;font-style:normal;font-weight:normal" x="596.726" y="354.2">0,n</text>
  </g>
  <g>
    <polyline style="fill: none; fill-opacity:0; stroke-width: 2; stroke: #000000" points="277.476,400.81 278.028,400.81 278.028,483.808 278.376,483.808 "/>
    <text font-size="9.6" style="fill: #000000;text-anchor:end;font-family:monospace;font-style:normal;font-weight:normal" x="274.376" y="479.808">0,n</text>
  </g>
  <g>
    <polyline style="fill: none; fill-opacity:0; stroke-width: 2; stroke: #000000" points="278.376,535.318 274.88,535.318 274.88,604.2 278.376,604.2 "/>
    <text font-size="9.6" style="fill: #000000;text-anchor:end;font-family:monospace;font-style:normal;font-weight:normal" x="274.376" y="600.2">0,n</text>
  </g>
  <line style="fill: none; fill-opacity:0; stroke-width: 2; stroke: #000000" x1="162.8" y1="762.2" x2="393.95" y2="762.2"/>
  <g>
    <path style="fill: none; fill-opacity:0; stroke-width: 2; stroke: #000000" d="M 475.1 874.2 L 637.65,874.2 C 660.093,874.2 678.287,886.288 678.287,901.2 C 678.287,916.112 660.093,928.2 637.65,928.2 L 475.1,928.2 C 452.656,928.2 434.462,916.112 434.462,901.2 C 434.462,886.288 452.656,874.2 475.1,874.2"/>
    <text font-size="12.8" style="fill: #000000;text-anchor:middle;font-family:sans-serif;font-style:normal;font-weight:normal" x="556.375" y="889.2">
      <tspan x="556.375" y="889.2">Fournir</tspan>
      <tspan x="556.375" y="905.2"></tspan>
      <tspan x="556.375" y="921.2">quantité-produit-fourni</tspan>
    </text>
  </g>
  <g>
    <rect style="fill: #81d8d0" x="469.8" y="774.2" width="172.3" height="18"/>
    <rect style="fill: none; fill-opacity:0; stroke-width: 2; stroke: #000000" x="469.8" y="774.2" width="172.3" height="18"/>
    <text font-size="11.2" style="fill: #000000;text-anchor:middle;font-family:sans-serif;font-style:normal;font-weight:700" x="555.95" y="788.2">Ravitaillement</text>
    <rect style="fill: #81d8d0" x="469.8" y="792.2" width="172.3" height="36"/>
    <rect style="fill: none; fill-opacity:0; stroke-width: 2; stroke: #000000" x="469.8" y="792.2" width="172.3" height="36"/>
    <polygon style="fill: #000000" points="472.8,802.2 474.8,805.2 476.8,802.2 474.8,799.2 "/>
    <text font-size="12.8" style="fill: #000000;text-anchor:start;font-family:monospace;font-style:normal;font-weight:normal" x="478.8" y="808.2">id-ravitaillement</text>
    <line style="fill: none; fill-opacity:0; stroke-width: 1; stroke: #000000" x1="478.8" y1="809.8" x2="635.1" y2="809.8"/>
    <ellipse style="fill: none; fill-opacity:0; stroke-width: 0.2; stroke: #000000" cx="474.8" cy="818.2" rx="2" ry="2"/>
    <text font-size="12.8" style="fill: #000000;text-anchor:start;font-family:monospace;font-style:normal;font-weight:normal" x="478.8" y="824.2">date-ravitaillement</text>
  </g>
  <g>
    <polyline style="fill: none; fill-opacity:0; stroke-width: 2; stroke: #000000" points="555.95,828.2 556,828.2 556,874.2 557.376,874.2 "/>
    <text font-size="9.6" style="fill: #000000;text-anchor:end;font-family:monospace;font-style:normal;font-weight:normal" x="553.376" y="870.2">1,n</text>
  </g>
  <g>
    <polyline style="fill: none; fill-opacity:0; stroke-width: 2; stroke: #000000" points="434.462,901.2 398,901.2 398,901.2 360.676,901.2 "/>
    <text font-size="9.6" style="fill: #000000;text-anchor:start;font-family:monospace;font-style:normal;font-weight:normal" x="364.676" y="897.2">1,n</text>
  </g>
  <g>
    <path style="fill: none; fill-opacity:0; stroke-width: 2; stroke: #000000" d="M 1189.44 880.2 L 1351.99,880.2 C 1374.43,880.2 1392.63,892.288 1392.63,907.2 C 1392.63,922.112 1374.43,934.2 1351.99,934.2 L 1189.44,934.2 C 1166.99,934.2 1148.8,922.112 1148.8,907.2 C 1148.8,892.288 1166.99,880.2 1189.44,880.2"/>
    <text font-size="12.8" style="fill: #000000;text-anchor:middle;font-family:sans-serif;font-style:normal;font-weight:normal" x="1270.71" y="895.2">
      <tspan x="1270.71" y="895.2">Prélever</tspan>
      <tspan x="1270.71" y="911.2"></tspan>
      <tspan x="1270.71" y="927.2">quantité-produit-prélevé</tspan>
    </text>
  </g>
  <g>
    <rect style="fill: #81d8d0" x="1195.8" y="770.2" width="149.2" height="18"/>
    <rect style="fill: none; fill-opacity:0; stroke-width: 2; stroke: #000000" x="1195.8" y="770.2" width="149.2" height="18"/>
    <text font-size="11.2" style="fill: #000000;text-anchor:middle;font-family:sans-serif;font-style:normal;font-weight:700" x="1270.4" y="784.2">Prélèvement</text>
    <rect style="fill: #81d8d0" x="1195.8" y="788.2" width="149.2" height="36"/>
    <rect style="fill: none; fill-opacity:0; stroke-width: 2; stroke: #000000" x="1195.8" y="788.2" width="149.2" height="36"/>
    <polygon style="fill: #000000" points="1198.8,798.2 1200.8,801.2 1202.8,798.2 1200.8,795.2 "/>
    <text font-size="12.8" style="fill: #000000;text-anchor:start;font-family:monospace;font-style:normal;font-weight:normal" x="1204.8" y="804.2">id-prélèvement</text>
    <line style="fill: none; fill-opacity:0; stroke-width: 1; stroke: #000000" x1="1204.8" y1="805.8" x2="1338" y2="805.8"/>
    <ellipse style="fill: none; fill-opacity:0; stroke-width: 0.2; stroke: #000000" cx="1200.8" cy="814.2" rx="2" ry="2"/>
    <text font-size="12.8" style="fill: #000000;text-anchor:start;font-family:monospace;font-style:normal;font-weight:normal" x="1204.8" y="820.2">date-prélèvement</text>
  </g>
  <g>
    <polyline style="fill: none; fill-opacity:0; stroke-width: 2; stroke: #000000" points="1270.4,824.2 1271,824.2 1271,880.2 1270.71,880.2 "/>
    <text font-size="9.6" style="fill: #000000;text-anchor:start;font-family:monospace;font-style:normal;font-weight:normal" x="1274.71" y="876.2">1,n</text>
  </g>
  <g>
    <polyline style="fill: none; fill-opacity:0; stroke-width: 2; stroke: #000000" points="1148.8,907.2 1099.12,907.2 1099.12,907.2 1043.3,907.2 "/>
    <text font-size="9.6" style="fill: #000000;text-anchor:start;font-family:monospace;font-style:normal;font-weight:normal" x="1047.3" y="903.2">0,n</text>
  </g>
  <line style="fill: none; fill-opacity:0; stroke-width: 2; stroke: #000000" x1="434.462" y1="901.2" x2="678.288" y2="901.2"/>
  <line style="fill: none; fill-opacity:0; stroke-width: 2; stroke: #000000" x1="1148.8" y1="907.2" x2="1392.63" y2="907.2"/>
  <g>
    <path style="fill: none; fill-opacity:0; stroke-width: 2; stroke: #000000" d="M 517 700 L 593.8,700 C 604.404,700 613,709.561 613,721.355 C 613,733.148 604.404,742.709 593.8,742.709 L 517,742.709 C 506.396,742.709 497.8,733.148 497.8,721.355 C 497.8,709.561 506.396,700 517,700"/>
    <text font-size="12.8" style="fill: #000000;text-anchor:middle;font-family:sans-serif;font-style:normal;font-weight:normal" x="555.4" y="725.355">
      <tspan x="555.4" y="725.355">Ravitailler</tspan>
    </text>
  </g>
  <g>
    <rect style="fill: #81d8d0" x="609.8" y="608.2" width="133.8" height="18"/>
    <rect style="fill: none; fill-opacity:0; stroke-width: 2; stroke: #000000" x="609.8" y="608.2" width="133.8" height="18"/>
    <text font-size="11.2" style="fill: #000000;text-anchor:middle;font-family:sans-serif;font-style:normal;font-weight:700" x="676.7" y="622.2">Stand</text>
    <rect style="fill: #81d8d0" x="609.8" y="626.2" width="133.8" height="52"/>
    <rect style="fill: none; fill-opacity:0; stroke-width: 2; stroke: #000000" x="609.8" y="626.2" width="133.8" height="52"/>
    <polygon style="fill: #000000" points="612.8,636.2 614.8,639.2 616.8,636.2 614.8,633.2 "/>
    <text font-size="12.8" style="fill: #000000;text-anchor:start;font-family:monospace;font-style:normal;font-weight:normal" x="618.8" y="642.2">id-stand</text>
    <line style="fill: none; fill-opacity:0; stroke-width: 1; stroke: #000000" x1="618.8" y1="643.8" x2="736.6" y2="643.8"/>
    <ellipse style="fill: none; fill-opacity:0; stroke-width: 0.2; stroke: #000000" cx="614.8" cy="652.2" rx="2" ry="2"/>
    <text font-size="12.8" style="fill: #000000;text-anchor:start;font-family:monospace;font-style:normal;font-weight:normal" x="618.8" y="658.2">nom-stand</text>
    <ellipse style="fill: none; fill-opacity:0; stroke-width: 0.2; stroke: #000000" cx="614.8" cy="668.2" rx="2" ry="2"/>
    <text font-size="12.8" style="fill: #000000;text-anchor:start;font-family:monospace;font-style:normal;font-weight:normal" x="618.8" y="674.2">location-stand</text>
  </g>
  <g>
    <polyline style="fill: none; fill-opacity:0; stroke-width: 2; stroke: #000000" points="555.4,742.709 556,742.709 556,774.2 555.95,774.2 "/>
    <text font-size="9.6" style="fill: #000000;text-anchor:start;font-family:monospace;font-style:normal;font-weight:normal" x="559.95" y="770.2">1,1</text>
  </g>
  <g>
    <polyline style="fill: none; fill-opacity:0; stroke-width: 2; stroke: #000000" points="609.8,652.2 555,652.2 555,700 555.4,700 "/>
    <text font-size="9.6" style="fill: #000000;text-anchor:end;font-family:monospace;font-style:normal;font-weight:normal" x="605.8" y="648.2">0,n</text>
  </g>
</svg>
