<?xml version="1.0" encoding="UTF-8" standalone="no"?>
<!DOCTYPE svg PUBLIC "-//W3C//DTD SVG 1.0//EN" "http://www.w3.org/TR/2001/PR-SVG-20010719/DTD/svg10.dtd">
<svg width="21cm" height="10cm" viewBox="157 -137 415 181" xmlns="http://www.w3.org/2000/svg" xmlns:xlink="http://www.w3.org/1999/xlink">
  <g>
    <ellipse style="fill: none; fill-opacity:0; stroke-width: 2; stroke-dasharray: 4; stroke: #000000" cx="515.287" cy="-47.6491" rx="56.4366" ry="37.1091"/>
    <text font-size="12.8" style="fill: #000000;text-anchor:middle;font-family:sans-serif;font-style:normal;font-weight:normal" x="515.287" y="-43.7491">
      <tspan x="515.287" y="-43.7491">Fournisseur</tspan>
    </text>
  </g>
  <g>
    <ellipse style="fill: none; fill-opacity:0; stroke-width: 2; stroke: #000000" cx="219.237" cy="-47.649" rx="60.4085" ry="39.7208"/>
    <text font-size="12.8" style="fill: #000000;text-anchor:middle;font-family:sans-serif;font-style:normal;font-weight:normal" x="219.237" y="-51.749">
      <tspan x="219.237" y="-51.749">Gestionnaire</tspan>
      <tspan x="219.237" y="-35.749">de stock</tspan>
    </text>
  </g>
  <g>
    <path style="fill: none; fill-opacity:0; stroke-width: 2; stroke: #000000" d="M 270.762,-15.4334 A 236.839,236.839 0 0 0 475.38,-21.4102"/>
    <polygon style="fill: #000000" points="263.957,-18.5719 275.137,-18.6265 270.681,-15.2506 270.709,-9.6605 "/>
    <polygon style="fill: none; fill-opacity:0; stroke-width: 2; stroke: #000000" points="263.957,-18.5719 275.137,-18.6265 270.681,-15.2506 270.709,-9.6605 "/>
  </g>
  <g>
    <rect style="fill: none; fill-opacity:0; stroke-width: 2.35099e-37; stroke: #ffffff" x="295.9" y="-136.8" width="140.05" height="38"/>
    <text font-size="12.8" style="fill: #000000;text-anchor:middle;font-family:sans-serif;font-style:normal;font-weight:normal" x="365.925" y="-113.9">
      <tspan x="365.925" y="-113.9">bon de commande</tspan>
    </text>
  </g>
  <g>
    <path style="fill: none; fill-opacity:0; stroke-width: 2; stroke: #000000" d="M 466.642,-78.1708 A 236.839,236.839 0 0 0 261.952,-75.736"/>
    <polygon style="fill: #000000" points="473.393,-74.915 462.213,-75.0539 466.727,-78.3522 466.796,-83.9419 "/>
    <polygon style="fill: none; fill-opacity:0; stroke-width: 2; stroke: #000000" points="473.393,-74.915 462.213,-75.0539 466.727,-78.3522 466.796,-83.9419 "/>
  </g>
  <g>
    <rect style="fill: none; fill-opacity:0; stroke-width: 2.35099e-37; stroke: #ffffff" x="271.824" y="5.2818" width="182.7" height="38"/>
    <text font-size="12.8" style="fill: #000000;text-anchor:middle;font-family:sans-serif;font-style:normal;font-weight:normal" x="363.174" y="28.1818">
      <tspan x="363.174" y="28.1818">bon de commande validé</tspan>
    </text>
  </g>
</svg>
