<?xml version="1.0" encoding="UTF-8" standalone="no"?>
<!DOCTYPE svg PUBLIC "-//W3C//DTD SVG 1.0//EN" "http://www.w3.org/TR/2001/PR-SVG-20010719/DTD/svg10.dtd">
<svg width="74cm" height="41cm" viewBox="108 59 1480 804" xmlns="http://www.w3.org/2000/svg" xmlns:xlink="http://www.w3.org/1999/xlink">
  <g>
    <rect style="fill: none; fill-opacity:0; stroke-width: 2; stroke: #000000" x="109.8" y="99" width="550.5" height="763.8"/>
    <text font-size="12.8" style="fill: #000000;text-anchor:middle;font-family:sans-serif;font-style:normal;font-weight:normal" x="385.05" y="484.8">
      <tspan x="385.05" y="484.8"></tspan>
    </text>
  </g>
  <g>
    <rect style="fill: none; fill-opacity:0; stroke-width: 2; stroke: #000000" x="109.1" y="61" width="550.2" height="38"/>
    <text font-size="12.8" style="fill: #000000;text-anchor:middle;font-family:sans-serif;font-style:normal;font-weight:normal" x="384.2" y="83.9">
      <tspan x="384.2" y="83.9">Caisse</tspan>
    </text>
  </g>
  <g>
    <rect style="fill: none; fill-opacity:0; stroke-width: 2.35099e-37; stroke: #000000" x="321.624" y="441" width="52.1" height="38"/>
    <text font-size="12.8" style="fill: #000000;text-anchor:middle;font-family:sans-serif;font-style:normal;font-weight:normal" x="347.674" y="463.9">
      <tspan x="347.674" y="463.9">refus</tspan>
    </text>
  </g>
  <g>
    <polyline style="fill: none; fill-opacity:0; stroke-width: 2; stroke: #000000" points="318.192,161 378.738,161 378.738,193.264 "/>
    <polygon style="fill: #000000" points="378.738,200.764 373.738,190.764 378.738,193.264 383.738,190.764 "/>
    <polygon style="fill: none; fill-opacity:0; stroke-width: 2; stroke: #000000" points="378.738,200.764 373.738,190.764 378.738,193.264 383.738,190.764 "/>
  </g>
  <g>
    <path style="fill: none; fill-opacity:0; stroke-width: 2; stroke: #000000" d="M 360.3 203 L 434.05,203 L 434.05,235 L 397.175,243 L 360.3,235 L 360.3,203"/>
    <text font-size="12.8" style="fill: #000000;text-anchor:middle;font-family:sans-serif;font-style:normal;font-weight:normal" x="397.175" y="223">
      <tspan x="397.175" y="223"></tspan>
    </text>
  </g>
  <g>
    <rect style="fill: none; fill-opacity:0; stroke-width: 2.35099e-37; stroke: #000000" x="258.342" y="123" width="119.7" height="38"/>
    <text font-size="12.8" style="fill: #000000;text-anchor:middle;font-family:sans-serif;font-style:normal;font-weight:normal" x="318.192" y="145.9">
      <tspan x="318.192" y="145.9">demande client</tspan>
    </text>
  </g>
  <g>
    <rect style="fill: none; fill-opacity:0; stroke-width: 2; stroke: #000000" x="300.458" y="243.532" width="173.583" height="99.8"/>
    <text font-size="12.8" style="fill: #000000;text-anchor:middle;font-family:sans-serif;font-style:normal;font-weight:normal" x="387.25" y="281.332">
      <tspan x="387.25" y="281.332">Service client</tspan>
      <tspan x="387.25" y="297.332">Vérification</tspan>
      <tspan x="387.25" y="313.332">paiement</tspan>
    </text>
  </g>
  <g>
    <line style="fill: none; fill-opacity:0; stroke-width: 2; stroke: #000000" x1="346.383" y1="397" x2="347.388" y2="431.268"/>
    <polygon style="fill: #000000" points="347.608,438.765 342.317,428.916 347.388,431.268 352.313,428.623 "/>
    <polygon style="fill: none; fill-opacity:0; stroke-width: 2; stroke: #000000" points="347.608,438.765 342.317,428.916 347.388,431.268 352.313,428.623 "/>
  </g>
  <g>
    <rect style="fill: none; fill-opacity:0; stroke-width: 2; stroke: #000000" x="300.424" y="343" width="91.918" height="54"/>
    <text font-size="12.8" style="fill: #000000;text-anchor:middle;font-family:sans-serif;font-style:normal;font-weight:normal" x="346.383" y="365.9">
      <tspan x="346.383" y="365.9">vente</tspan>
      <tspan x="346.383" y="381.9">impossible</tspan>
    </text>
  </g>
  <g>
    <rect style="fill: none; fill-opacity:0; stroke-width: 2; stroke: #000000" x="392.842" y="343" width="81.582" height="54"/>
    <text font-size="12.8" style="fill: #000000;text-anchor:middle;font-family:sans-serif;font-style:normal;font-weight:normal" x="433.633" y="373.9">
      <tspan x="433.633" y="373.9">OK</tspan>
    </text>
  </g>
  <g>
    <line style="fill: none; fill-opacity:0; stroke-width: 2; stroke: #000000" x1="433.633" y1="397" x2="434.351" y2="435.266"/>
    <polygon style="fill: #000000" points="434.492,442.764 429.305,432.86 434.351,435.266 439.303,432.672 "/>
    <polygon style="fill: none; fill-opacity:0; stroke-width: 2; stroke: #000000" points="434.492,442.764 429.305,432.86 434.351,435.266 439.303,432.672 "/>
  </g>
  <g>
    <polyline style="fill: none; fill-opacity:0; stroke-width: 2; stroke: #000000" points="434.534,497 385.212,497 385.212,517.264 "/>
    <polygon style="fill: #000000" points="385.212,524.764 380.212,514.764 385.212,517.264 390.212,514.764 "/>
    <polygon style="fill: none; fill-opacity:0; stroke-width: 2; stroke: #000000" points="385.212,524.764 380.212,514.764 385.212,517.264 390.212,514.764 "/>
  </g>
  <g>
    <path style="fill: none; fill-opacity:0; stroke-width: 2; stroke: #000000" d="M 329.9 527 L 403.65,527 L 403.65,559 L 366.775,567 L 329.9,559 L 329.9,527"/>
    <text font-size="12.8" style="fill: #000000;text-anchor:middle;font-family:sans-serif;font-style:normal;font-weight:normal" x="366.775" y="547">
      <tspan x="366.775" y="547"></tspan>
    </text>
  </g>
  <g>
    <rect style="fill: none; fill-opacity:0; stroke-width: 2.35099e-37; stroke: #000000" x="383.542" y="445" width="101.982" height="52"/>
    <text font-size="12.8" style="fill: #000000;text-anchor:middle;font-family:sans-serif;font-style:normal;font-weight:normal" x="434.533" y="466.9">
      <tspan x="434.533" y="466.9">ticket de</tspan>
      <tspan x="434.533" y="482.9">caisse</tspan>
    </text>
  </g>
  <g>
    <rect style="fill: none; fill-opacity:0; stroke-width: 2; stroke: #000000" x="279.058" y="567" width="173.583" height="99.8"/>
    <text font-size="12.8" style="fill: #000000;text-anchor:middle;font-family:sans-serif;font-style:normal;font-weight:normal" x="365.85" y="612.8">
      <tspan x="365.85" y="612.8">Diminution</tspan>
      <tspan x="365.85" y="628.8">produits en vente</tspan>
    </text>
  </g>
  <g>
    <rect style="fill: none; fill-opacity:0; stroke-width: 2; stroke: #000000" x="360.524" y="667.468" width="91.976" height="70.332"/>
    <text font-size="12.8" style="fill: #000000;text-anchor:middle;font-family:sans-serif;font-style:normal;font-weight:normal" x="406.512" y="690.534">
      <tspan x="406.512" y="690.534">seuil</tspan>
      <tspan x="406.512" y="706.534">produit</tspan>
      <tspan x="406.512" y="722.534">atteint</tspan>
    </text>
  </g>
  <g>
    <rect style="fill: none; fill-opacity:0; stroke-width: 2; stroke: #000000" x="279.5" y="667.468" width="80.524" height="70.532"/>
    <text font-size="12.8" style="fill: #000000;text-anchor:middle;font-family:sans-serif;font-style:normal;font-weight:normal" x="319.762" y="706.634">
      <tspan x="319.762" y="706.634">OK</tspan>
    </text>
  </g>
  <g>
    <line style="fill: none; fill-opacity:0; stroke-width: 2; stroke: #000000" x1="319.762" y1="738" x2="319.625" y2="769.732"/>
    <polygon style="fill: #000000" points="319.593,777.232 314.636,767.21 319.625,769.732 324.636,767.254 "/>
    <polygon style="fill: none; fill-opacity:0; stroke-width: 2; stroke: #000000" points="319.593,777.232 314.636,767.21 319.625,769.732 324.636,767.254 "/>
  </g>
  <g>
    <rect style="fill: none; fill-opacity:0; stroke-width: 2.35099e-37; stroke: #000000" x="283.142" y="779.468" width="72.882" height="52"/>
    <text font-size="12.8" style="fill: #000000;text-anchor:middle;font-family:sans-serif;font-style:normal;font-weight:normal" x="319.583" y="801.368">
      <tspan x="319.583" y="801.368">attente</tspan>
      <tspan x="319.583" y="817.368">client</tspan>
    </text>
  </g>
  <g>
    <rect style="fill: none; fill-opacity:0; stroke-width: 2; stroke: #000000" x="1201.78" y="100" width="384.883" height="762.333"/>
    <text font-size="12.8" style="fill: #000000;text-anchor:middle;font-family:sans-serif;font-style:normal;font-weight:normal" x="1394.23" y="485.067">
      <tspan x="1394.23" y="485.067"></tspan>
    </text>
  </g>
  <g>
    <rect style="fill: none; fill-opacity:0; stroke-width: 2; stroke: #000000" x="660.467" y="61" width="541.2" height="801.333"/>
    <text font-size="12.8" style="fill: #000000;text-anchor:middle;font-family:sans-serif;font-style:normal;font-weight:normal" x="931.067" y="465.567">
      <tspan x="931.067" y="465.567"></tspan>
    </text>
  </g>
  <g>
    <rect style="fill: none; fill-opacity:0; stroke-width: 2.35099e-37; stroke: #000000" x="1300.11" y="492.867" width="132.1" height="38"/>
    <text font-size="12.8" style="fill: #000000;text-anchor:middle;font-family:sans-serif;font-style:normal;font-weight:normal" x="1366.16" y="515.767">
      <tspan x="1366.16" y="515.767">besoin de produit</tspan>
    </text>
  </g>
  <g>
    <polyline style="fill: none; fill-opacity:0; stroke-width: 2; stroke: #000000" points="1307,182.867 1393.89,182.867 1393.89,207.133 "/>
    <polygon style="fill: #000000" points="1393.89,214.633 1388.89,204.633 1393.89,207.133 1398.89,204.633 "/>
    <polygon style="fill: none; fill-opacity:0; stroke-width: 2; stroke: #000000" points="1393.89,214.633 1388.89,204.633 1393.89,207.133 1398.89,204.633 "/>
  </g>
  <g>
    <path style="fill: none; fill-opacity:0; stroke-width: 2; stroke: #000000" d="M 1375.46 216.869 L 1449.21,216.869 L 1449.21,248.869 L 1412.33,256.869 L 1375.46,248.869 L 1375.46,216.869"/>
    <text font-size="12.8" style="fill: #000000;text-anchor:middle;font-family:sans-serif;font-style:normal;font-weight:normal" x="1412.33" y="236.869">
      <tspan x="1412.33" y="236.869"></tspan>
    </text>
  </g>
  <g>
    <rect style="fill: none; fill-opacity:0; stroke-width: 2.35099e-37; stroke: #000000" x="1235" y="130.867" width="144" height="52"/>
    <text font-size="12.8" style="fill: #000000;text-anchor:middle;font-family:sans-serif;font-style:normal;font-weight:normal" x="1307" y="152.767">
      <tspan x="1307" y="152.767">demande de</tspan>
      <tspan x="1307" y="168.767">prélèvement</tspan>
    </text>
  </g>
  <g>
    <rect style="fill: none; fill-opacity:0; stroke-width: 2; stroke: #000000" x="1316.95" y="257.401" width="188.055" height="99.8"/>
    <text font-size="12.8" style="fill: #000000;text-anchor:middle;font-family:sans-serif;font-style:normal;font-weight:normal" x="1410.97" y="303.201">
      <tspan x="1410.97" y="303.201">Diminution</tspan>
      <tspan x="1410.97" y="319.201">état des stocks</tspan>
    </text>
  </g>
  <g>
    <line style="fill: none; fill-opacity:0; stroke-width: 2; stroke: #000000" x1="1366.46" y1="425.333" x2="1366.21" y2="483.131"/>
    <polygon style="fill: #000000" points="1366.17,490.631 1361.22,480.608 1366.21,483.131 1371.22,480.653 "/>
    <polygon style="fill: none; fill-opacity:0; stroke-width: 2; stroke: #000000" points="1366.17,490.631 1361.22,480.608 1366.21,483.131 1371.22,480.653 "/>
  </g>
  <g>
    <rect style="fill: none; fill-opacity:0; stroke-width: 2; stroke: #000000" x="1414.02" y="356.533" width="92.5" height="68.8"/>
    <text font-size="12.8" style="fill: #000000;text-anchor:middle;font-family:sans-serif;font-style:normal;font-weight:normal" x="1460.27" y="386.833">
      <tspan x="1460.27" y="386.833">seuil</tspan>
      <tspan x="1460.27" y="402.833">non atteint</tspan>
    </text>
  </g>
  <g>
    <rect style="fill: none; fill-opacity:0; stroke-width: 2; stroke: #000000" x="1317.71" y="356.533" width="97.5" height="68.8"/>
    <text font-size="12.8" style="fill: #000000;text-anchor:middle;font-family:sans-serif;font-style:normal;font-weight:normal" x="1366.46" y="386.833">
      <tspan x="1366.46" y="386.833">seuil</tspan>
      <tspan x="1366.46" y="402.833">atteint</tspan>
    </text>
  </g>
  <g>
    <rect style="fill: none; fill-opacity:0; stroke-width: 2; stroke: #000000" x="1199.96" y="61.2" width="386.378" height="38"/>
    <text font-size="12.8" style="fill: #000000;text-anchor:middle;font-family:sans-serif;font-style:normal;font-weight:normal" x="1393.15" y="84.1">
      <tspan x="1393.15" y="84.1">Bureau des stocks</tspan>
    </text>
  </g>
  <g>
    <rect style="fill: none; fill-opacity:0; stroke-width: 2; stroke: #000000" x="1275.63" y="257.867" width="42.05" height="80.8"/>
    <text font-size="12.8" style="fill: #000000;text-anchor:middle;font-family:sans-serif;font-style:normal;font-weight:normal" x="1296.66" y="302.167">
      <tspan x="1296.66" y="302.167">4</tspan>
    </text>
  </g>
  <g>
    <rect style="fill: none; fill-opacity:0; stroke-width: 2; stroke: #000000" x="1275.63" y="338.867" width="42.075" height="86.1333"/>
    <text font-size="12.8" style="fill: #000000;text-anchor:middle;font-family:sans-serif;font-style:normal;font-weight:normal" x="1296.67" y="385.833">
      <tspan x="1296.67" y="385.833">TR</tspan>
    </text>
  </g>
  <g>
    <rect style="fill: none; fill-opacity:0; stroke-width: 2.35099e-37; stroke: #000000" x="720.182" y="459.533" width="118.3" height="52"/>
    <text font-size="12.8" style="fill: #000000;text-anchor:middle;font-family:sans-serif;font-style:normal;font-weight:normal" x="779.332" y="481.433">
      <tspan x="779.332" y="481.433">pas de </tspan>
      <tspan x="779.332" y="497.433">ravitaillement</tspan>
    </text>
  </g>
  <g>
    <polyline style="fill: none; fill-opacity:0; stroke-width: 2; stroke: #000000" points="776.4,187.2 859.296,187.2 859.296,211.464 "/>
    <polygon style="fill: #000000" points="859.296,218.964 854.296,208.964 859.296,211.464 864.296,208.964 "/>
    <polygon style="fill: none; fill-opacity:0; stroke-width: 2; stroke: #000000" points="859.296,218.964 854.296,208.964 859.296,211.464 864.296,208.964 "/>
  </g>
  <g>
    <path style="fill: none; fill-opacity:0; stroke-width: 2; stroke: #000000" d="M 840.858 221.2 L 914.608,221.2 L 914.608,253.2 L 877.733,261.2 L 840.858,253.2 L 840.858,221.2"/>
    <text font-size="12.8" style="fill: #000000;text-anchor:middle;font-family:sans-serif;font-style:normal;font-weight:normal" x="877.733" y="241.2">
      <tspan x="877.733" y="241.2">A ou B</tspan>
    </text>
  </g>
  <g>
    <rect style="fill: none; fill-opacity:0; stroke-width: 2.35099e-37; stroke: #000000" x="694.8" y="135.2" width="163.2" height="52"/>
    <text font-size="12.8" style="fill: #000000;text-anchor:middle;font-family:sans-serif;font-style:normal;font-weight:normal" x="776.4" y="157.1">
      <tspan x="776.4" y="157.1">A : besoin de</tspan>
      <tspan x="776.4" y="173.1">ravitaillement</tspan>
    </text>
  </g>
  <g>
    <rect style="fill: none; fill-opacity:0; stroke-width: 2; stroke: #000000" x="734" y="261.732" width="282" height="99.8"/>
    <text font-size="12.8" style="fill: #000000;text-anchor:middle;font-family:sans-serif;font-style:normal;font-weight:normal" x="875" y="307.532">
      <tspan x="875" y="307.532">Vérification des besoins</tspan>
      <tspan x="875" y="323.532">en ravitaillement</tspan>
    </text>
  </g>
  <g>
    <rect style="fill: none; fill-opacity:0; stroke-width: 2; stroke: #000000" x="734.657" y="360.667" width="88.7" height="56.3333"/>
    <text font-size="12.8" style="fill: #000000;text-anchor:middle;font-family:sans-serif;font-style:normal;font-weight:normal" x="779.007" y="384.733">
      <tspan x="779.007" y="384.733">besoin</tspan>
      <tspan x="779.007" y="400.733">non valide</tspan>
    </text>
  </g>
  <g>
    <rect style="fill: none; fill-opacity:0; stroke-width: 2; stroke: #000000" x="823.733" y="360.867" width="87.6" height="56.1333"/>
    <text font-size="12.8" style="fill: #000000;text-anchor:middle;font-family:sans-serif;font-style:normal;font-weight:normal" x="867.533" y="384.833">
      <tspan x="867.533" y="384.833">tout est</tspan>
      <tspan x="867.533" y="400.833">OK</tspan>
    </text>
  </g>
  <g>
    <line style="fill: none; fill-opacity:0; stroke-width: 2; stroke: #000000" x1="867.533" y1="417" x2="867.902" y2="531.797"/>
    <polygon style="fill: #000000" points="867.926,539.297 862.894,529.313 867.902,531.797 872.894,529.281 "/>
    <polygon style="fill: none; fill-opacity:0; stroke-width: 2; stroke: #000000" points="867.926,539.297 862.894,529.313 867.902,531.797 872.894,529.281 "/>
  </g>
  <g>
    <rect style="fill: none; fill-opacity:0; stroke-width: 2.35099e-37; stroke: #000000" x="813.383" y="541.533" width="109.1" height="36"/>
    <text font-size="12.8" style="fill: #000000;text-anchor:middle;font-family:sans-serif;font-style:normal;font-weight:normal" x="867.933" y="563.433">
      <tspan x="867.933" y="563.433">ravitaillement</tspan>
    </text>
  </g>
  <g>
    <rect style="fill: none; fill-opacity:0; stroke-width: 2; stroke: #000000" x="912.099" y="360.867" width="103.5" height="56.1333"/>
    <text font-size="12.8" style="fill: #000000;text-anchor:middle;font-family:sans-serif;font-style:normal;font-weight:normal" x="963.849" y="384.833">
      <tspan x="963.849" y="384.833">produit</tspan>
      <tspan x="963.849" y="400.833">manquant</tspan>
    </text>
  </g>
  <g>
    <polyline style="fill: none; fill-opacity:0; stroke-width: 2; stroke: #000000" points="978.315,184.533 896.171,184.533 896.171,211.464 "/>
    <polygon style="fill: #000000" points="896.171,218.964 891.171,208.964 896.171,211.464 901.171,208.964 "/>
    <polygon style="fill: none; fill-opacity:0; stroke-width: 2; stroke: #000000" points="896.171,218.964 891.171,208.964 896.171,211.464 901.171,208.964 "/>
  </g>
  <g>
    <rect style="fill: none; fill-opacity:0; stroke-width: 2.35099e-37; stroke: #000000" x="896.715" y="132.533" width="163.2" height="52"/>
    <text font-size="12.8" style="fill: #000000;text-anchor:middle;font-family:sans-serif;font-style:normal;font-weight:normal" x="978.315" y="162.433">
      <tspan x="978.315" y="162.433">B : prélèvement</tspan>
    </text>
  </g>
  <g>
    <rect style="fill: none; fill-opacity:0; stroke-width: 2; stroke: #000000" x="659.133" y="61.2" width="541.2" height="38"/>
    <text font-size="12.8" style="fill: #000000;text-anchor:middle;font-family:sans-serif;font-style:normal;font-weight:normal" x="929.733" y="84.1">
      <tspan x="929.733" y="84.1">Four</tspan>
    </text>
  </g>
  <g>
    <polyline style="fill: none; fill-opacity:0; stroke-width: 2; stroke: #000000" points="1015.6,388.933 1125.3,388.933 1125.3,156.867 1225.26,156.867 "/>
    <polygon style="fill: #000000" points="1232.76,156.867 1222.76,161.867 1225.26,156.867 1222.76,151.867 "/>
    <polygon style="fill: none; fill-opacity:0; stroke-width: 2; stroke: #000000" points="1232.76,156.867 1222.76,161.867 1225.26,156.867 1222.76,151.867 "/>
  </g>
  <g>
    <line style="fill: none; fill-opacity:0; stroke-width: 2; stroke: #000000" x1="779.007" y1="417" x2="779.258" y2="449.798"/>
    <polygon style="fill: #000000" points="779.315,457.297 774.239,447.336 779.258,449.798 784.238,447.259 "/>
    <polygon style="fill: none; fill-opacity:0; stroke-width: 2; stroke: #000000" points="779.315,457.297 774.239,447.336 779.258,449.798 784.238,447.259 "/>
  </g>
  <g>
    <rect style="fill: none; fill-opacity:0; stroke-width: 2; stroke: #000000" x="692.402" y="262.333" width="42.05" height="64.3998"/>
    <text font-size="12.8" style="fill: #000000;text-anchor:middle;font-family:sans-serif;font-style:normal;font-weight:normal" x="713.427" y="298.433">
      <tspan x="713.427" y="298.433">3</tspan>
    </text>
  </g>
  <g>
    <rect style="fill: none; fill-opacity:0; stroke-width: 2; stroke: #000000" x="692.402" y="326" width="42.075" height="91.3333"/>
    <text font-size="12.8" style="fill: #000000;text-anchor:middle;font-family:sans-serif;font-style:normal;font-weight:normal" x="713.44" y="375.567">
      <tspan x="713.44" y="375.567">TR</tspan>
    </text>
  </g>
  <g>
    <line style="fill: none; fill-opacity:0; stroke-width: 2; stroke: #000000" x1="1460.27" y1="425.333" x2="1461" y2="431.672"/>
    <polygon style="fill: #000000" points="1461.85,439.124 1455.74,429.756 1461,431.672 1465.68,428.62 "/>
    <polygon style="fill: none; fill-opacity:0; stroke-width: 2; stroke: #000000" points="1461.85,439.124 1455.74,429.756 1461,431.672 1465.68,428.62 "/>
  </g>
  <g>
    <rect style="fill: none; fill-opacity:0; stroke-width: 2.35099e-37; stroke: #000000" x="1411.4" y="441.345" width="101.4" height="38"/>
    <text font-size="12.8" style="fill: #000000;text-anchor:middle;font-family:sans-serif;font-style:normal;font-weight:normal" x="1462.1" y="464.245">
      <tspan x="1462.1" y="464.245">attente</tspan>
    </text>
  </g>
  <g>
    <rect style="fill: none; fill-opacity:0; stroke-width: 2; stroke: #000000" x="258.3" y="244" width="42.05" height="64.3998"/>
    <text font-size="12.8" style="fill: #000000;text-anchor:middle;font-family:sans-serif;font-style:normal;font-weight:normal" x="279.325" y="280.1">
      <tspan x="279.325" y="280.1">1</tspan>
    </text>
  </g>
  <g>
    <rect style="fill: none; fill-opacity:0; stroke-width: 2; stroke: #000000" x="258.1" y="308" width="42.05" height="89"/>
    <text font-size="12.8" style="fill: #000000;text-anchor:middle;font-family:sans-serif;font-style:normal;font-weight:normal" x="279.125" y="356.4">
      <tspan x="279.125" y="356.4">TR</tspan>
    </text>
  </g>
  <g>
    <rect style="fill: none; fill-opacity:0; stroke-width: 2; stroke: #000000" x="237.3" y="567" width="42.05" height="64.3998"/>
    <text font-size="12.8" style="fill: #000000;text-anchor:middle;font-family:sans-serif;font-style:normal;font-weight:normal" x="258.325" y="603.1">
      <tspan x="258.325" y="603.1">2</tspan>
    </text>
  </g>
  <g>
    <rect style="fill: none; fill-opacity:0; stroke-width: 2; stroke: #000000" x="237.3" y="631" width="42.05" height="107"/>
    <text font-size="12.8" style="fill: #000000;text-anchor:middle;font-family:sans-serif;font-style:normal;font-weight:normal" x="258.325" y="688.4">
      <tspan x="258.325" y="688.4">TR</tspan>
    </text>
  </g>
  <g>
    <polyline style="fill: none; fill-opacity:0; stroke-width: 2; stroke: #000000" points="452.5,702.634 573.65,702.634 573.65,161.2 685.064,161.2 "/>
    <polygon style="fill: #000000" points="692.564,161.2 682.564,166.2 685.064,161.2 682.564,156.2 "/>
    <polygon style="fill: none; fill-opacity:0; stroke-width: 2; stroke: #000000" points="692.564,161.2 682.564,166.2 685.064,161.2 682.564,156.2 "/>
  </g>
</svg>
