<?xml version="1.0" encoding="UTF-8" standalone="no"?>
<!DOCTYPE svg PUBLIC "-//W3C//DTD SVG 1.0//EN" "http://www.w3.org/TR/2001/PR-SVG-20010719/DTD/svg10.dtd">
<svg width="22cm" height="15cm" viewBox="225 89 433 292" xmlns="http://www.w3.org/2000/svg" xmlns:xlink="http://www.w3.org/1999/xlink">
  <g>
    <ellipse style="fill: none; fill-opacity:0; stroke-width: 2; stroke: #000000" cx="566.286" cy="182.391" rx="59.0516" ry="38.8286"/>
    <text font-size="12.8" style="fill: #000000;text-anchor:middle;font-family:sans-serif;font-style:normal;font-weight:normal" x="566.286" y="186.291">
      <tspan x="566.286" y="186.291">Boulangerie</tspan>
    </text>
  </g>
  <g>
    <ellipse style="fill: none; fill-opacity:0; stroke-width: 2; stroke-dasharray: 4; stroke: #000000" cx="285.022" cy="182.309" rx="58.222" ry="38.2831"/>
    <text font-size="12.8" style="fill: #000000;text-anchor:middle;font-family:sans-serif;font-style:normal;font-weight:normal" x="285.022" y="186.209">
      <tspan x="285.022" y="186.209">Fournisseur</tspan>
    </text>
  </g>
  <g>
    <line style="fill: none; fill-opacity:0; stroke-width: 2; stroke: #000000" x1="507.234" y1="182.391" x2="352.98" y2="182.314"/>
    <polygon style="fill: #000000" points="345.48,182.31 355.483,177.315 352.98,182.314 355.478,187.315 "/>
    <polygon style="fill: none; fill-opacity:0; stroke-width: 2; stroke: #000000" points="345.48,182.31 355.483,177.315 352.98,182.314 355.478,187.315 "/>
  </g>
  <g>
    <rect style="fill: none; fill-opacity:0; stroke-width: 2.35099e-37; stroke: #000000" x="458.012" y="89.5" width="76.55" height="38"/>
    <text font-size="12.8" style="fill: #000000;text-anchor:middle;font-family:sans-serif;font-style:normal;font-weight:normal" x="496.287" y="112.4">
      <tspan x="496.287" y="112.4">livrer</tspan>
    </text>
  </g>
  <g>
    <ellipse style="fill: none; fill-opacity:0; stroke-width: 2; stroke-dasharray: 4; stroke: #000000" cx="566.022" cy="341.483" rx="58.222" ry="38.2831"/>
    <text font-size="12.8" style="fill: #000000;text-anchor:middle;font-family:sans-serif;font-style:normal;font-weight:normal" x="566.022" y="345.383">
      <tspan x="566.022" y="345.383">Client</tspan>
    </text>
  </g>
  <g>
    <line style="fill: none; fill-opacity:0; stroke-width: 2; stroke: #000000" x1="566.022" y1="303.2" x2="566.255" y2="230.956"/>
    <polygon style="fill: #000000" points="566.279,223.456 571.247,233.472 566.255,230.956 561.247,233.44 "/>
    <polygon style="fill: none; fill-opacity:0; stroke-width: 2; stroke: #000000" points="566.279,223.456 571.247,233.472 566.255,230.956 561.247,233.44 "/>
  </g>
  <g>
    <rect style="fill: none; fill-opacity:0; stroke-width: 2.35099e-37; stroke: #000000" x="581.8" y="234.2" width="76.55" height="38"/>
    <text font-size="12.8" style="fill: #000000;text-anchor:middle;font-family:sans-serif;font-style:normal;font-weight:normal" x="620.075" y="257.1">
      <tspan x="620.075" y="257.1">acheter</tspan>
    </text>
  </g>
  <g>
    <rect style="fill: none; fill-opacity:0; stroke-width: 2.35099e-37; stroke: #000000" x="355.8" y="201.2" width="76.55" height="38"/>
    <text font-size="12.8" style="fill: #000000;text-anchor:middle;font-family:sans-serif;font-style:normal;font-weight:normal" x="394.075" y="224.1">
      <tspan x="394.075" y="224.1">payer</tspan>
    </text>
  </g>
  <g>
    <path style="fill: none; fill-opacity:0; stroke-width: 2; stroke: #000000" d="M 515.484,151.349 A 255.864,255.864 0 0 0 326.191,155.239"/>
    <polygon style="fill: #000000" points="522.467,154.072 511.312,154.822 515.549,151.175 515.174,145.598 "/>
    <polygon style="fill: none; fill-opacity:0; stroke-width: 2; stroke: #000000" points="522.467,154.072 511.312,154.822 515.549,151.175 515.174,145.598 "/>
  </g>
</svg>
