<?xml version="1.0" encoding="UTF-8" standalone="no"?>
<!DOCTYPE svg PUBLIC "-//W3C//DTD SVG 1.0//EN" "http://www.w3.org/TR/2001/PR-SVG-20010719/DTD/svg10.dtd">
<svg width="38cm" height="38cm" viewBox="147 32 753 759" xmlns="http://www.w3.org/2000/svg" xmlns:xlink="http://www.w3.org/1999/xlink">
  <g>
    <rect style="fill: none; fill-opacity:0; stroke-width: 2; stroke: #000000" x="148.8" y="33.3335" width="430.867" height="756.667"/>
    <text font-size="12.8" style="fill: #000000;text-anchor:middle;font-family:sans-serif;font-style:normal;font-weight:normal" x="364.233" y="415.567">
      <tspan x="364.233" y="415.567"></tspan>
    </text>
  </g>
  <g>
    <polyline style="fill: none; fill-opacity:0; stroke-width: 2; stroke: #000000" points="232.466,129.2 304.362,129.2 304.362,159.464 "/>
    <polygon style="fill: #000000" points="304.362,166.964 299.362,156.964 304.362,159.464 309.362,156.964 "/>
    <polygon style="fill: none; fill-opacity:0; stroke-width: 2; stroke: #000000" points="304.362,166.964 299.362,156.964 304.362,159.464 309.362,156.964 "/>
  </g>
  <g>
    <path style="fill: none; fill-opacity:0; stroke-width: 2; stroke: #000000" d="M 285.924 169.2 L 359.674,169.2 L 359.674,201.2 L 322.799,209.2 L 285.924,201.2 L 285.924,169.2"/>
    <text font-size="12.8" style="fill: #000000;text-anchor:middle;font-family:sans-serif;font-style:normal;font-weight:normal" x="322.799" y="189.2">
      <tspan x="322.799" y="189.2"></tspan>
    </text>
  </g>
  <g>
    <rect style="fill: none; fill-opacity:0; stroke-width: 2.35099e-37; stroke: #000000" x="160.467" y="91.2" width="144" height="38"/>
    <text font-size="12.8" style="fill: #000000;text-anchor:middle;font-family:sans-serif;font-style:normal;font-weight:normal" x="232.467" y="114.1">
      <tspan x="232.467" y="114.1">bon de livraison</tspan>
    </text>
  </g>
  <g>
    <rect style="fill: none; fill-opacity:0; stroke-width: 2; stroke: #000000" x="241.466" y="210.734" width="151.533" height="99.8"/>
    <text font-size="12.8" style="fill: #000000;text-anchor:middle;font-family:sans-serif;font-style:normal;font-weight:normal" x="317.233" y="264.534">
      <tspan x="317.233" y="264.534">Vérifier livraison</tspan>
    </text>
  </g>
  <g>
    <rect style="fill: none; fill-opacity:0; stroke-width: 2; stroke: #000000" x="241.366" y="310.634" width="61.35" height="38"/>
    <text font-size="12.8" style="fill: #000000;text-anchor:middle;font-family:sans-serif;font-style:normal;font-weight:normal" x="272.041" y="333.534">
      <tspan x="272.041" y="333.534">Erreur</tspan>
    </text>
  </g>
  <g>
    <line style="fill: none; fill-opacity:0; stroke-width: 2; stroke: #000000" x1="272.042" y1="348.634" x2="272.418" y2="376.231"/>
    <polygon style="fill: #000000" points="272.52,383.73 267.384,373.799 272.418,376.231 277.383,373.663 "/>
    <polygon style="fill: none; fill-opacity:0; stroke-width: 2; stroke: #000000" points="272.52,383.73 267.384,373.799 272.418,376.231 277.383,373.663 "/>
  </g>
  <g>
    <rect style="fill: none; fill-opacity:0; stroke-width: 2.35099e-37; stroke: #000000" x="221.7" y="385.966" width="101.7" height="38"/>
    <text font-size="12.8" style="fill: #000000;text-anchor:middle;font-family:sans-serif;font-style:normal;font-weight:normal" x="272.55" y="408.866">
      <tspan x="272.55" y="408.866">retour</tspan>
    </text>
  </g>
  <g>
    <rect style="fill: none; fill-opacity:0; stroke-width: 2; stroke: #000000" x="302.666" y="310.8" width="90.1673" height="38"/>
    <text font-size="12.8" style="fill: #000000;text-anchor:middle;font-family:sans-serif;font-style:normal;font-weight:normal" x="347.75" y="333.7">
      <tspan x="347.75" y="333.7">OK</tspan>
    </text>
  </g>
  <g>
    <rect style="fill: none; fill-opacity:0; stroke-width: 2.35099e-37; stroke: #000000" x="248.65" y="442.532" width="197.6" height="38"/>
    <text font-size="12.8" style="fill: #000000;text-anchor:middle;font-family:sans-serif;font-style:normal;font-weight:normal" x="347.45" y="465.432">
      <tspan x="347.45" y="465.432">A : livraison validée</tspan>
    </text>
  </g>
  <g>
    <line style="fill: none; fill-opacity:0; stroke-width: 2; stroke: #000000" x1="347.75" y1="348.8" x2="347.481" y2="432.796"/>
    <polygon style="fill: #000000" points="347.457,440.296 342.489,430.28 347.481,432.796 352.489,430.312 "/>
    <polygon style="fill: none; fill-opacity:0; stroke-width: 2; stroke: #000000" points="347.457,440.296 342.489,430.28 347.481,432.796 352.489,430.312 "/>
  </g>
  <g>
    <rect style="fill: none; fill-opacity:0; stroke-width: 2; stroke: #000000" x="148.833" y="33.1999" width="430.833" height="38"/>
    <text font-size="12.8" style="fill: #000000;text-anchor:middle;font-family:sans-serif;font-style:normal;font-weight:normal" x="364.25" y="56.0999">
      <tspan x="364.25" y="56.0999">Stock</tspan>
    </text>
  </g>
  <g>
    <polyline style="fill: none; fill-opacity:0; stroke-width: 2; stroke: #000000" points="347.45,480.532 446.386,480.532 446.386,509.398 "/>
    <polygon style="fill: #000000" points="446.386,516.898 441.386,506.898 446.386,509.398 451.386,506.898 "/>
    <polygon style="fill: none; fill-opacity:0; stroke-width: 2; stroke: #000000" points="446.386,516.898 441.386,506.898 446.386,509.398 451.386,506.898 "/>
  </g>
  <g>
    <path style="fill: none; fill-opacity:0; stroke-width: 2; stroke: #000000" d="M 427.95 519.134 L 501.7,519.134 L 501.7,551.134 L 464.825,559.134 L 427.95,551.134 L 427.95,519.134"/>
    <text font-size="12.8" style="fill: #000000;text-anchor:middle;font-family:sans-serif;font-style:normal;font-weight:normal" x="464.825" y="539.134">
      <tspan x="464.825" y="539.134"></tspan>
    </text>
  </g>
  <g>
    <rect style="fill: none; fill-opacity:0; stroke-width: 2; stroke: #000000" x="390.824" y="561.334" width="151.033" height="99.8"/>
    <text font-size="12.8" style="fill: #000000;text-anchor:middle;font-family:sans-serif;font-style:normal;font-weight:normal" x="466.341" y="599.134">
      <tspan x="466.341" y="599.134">Compter</tspan>
      <tspan x="466.341" y="615.134">Mettre à jour</tspan>
      <tspan x="466.341" y="631.134">le stock</tspan>
    </text>
  </g>
  <g>
    <line style="fill: none; fill-opacity:0; stroke-width: 2; stroke: #000000" x1="466.34" y1="661.134" x2="465.987" y2="705.498"/>
    <polygon style="fill: #000000" points="465.928,712.998 461.007,702.959 465.987,705.498 471.007,703.038 "/>
    <polygon style="fill: none; fill-opacity:0; stroke-width: 2; stroke: #000000" points="465.928,712.998 461.007,702.959 465.987,705.498 471.007,703.038 "/>
  </g>
  <g>
    <rect style="fill: none; fill-opacity:0; stroke-width: 2.35099e-37; stroke: #000000" x="415.06" y="715.234" width="101.7" height="38"/>
    <text font-size="12.8" style="fill: #000000;text-anchor:middle;font-family:sans-serif;font-style:normal;font-weight:normal" x="465.91" y="738.134">
      <tspan x="465.91" y="738.134">stock à jour</tspan>
    </text>
  </g>
  <g>
    <rect style="fill: none; fill-opacity:0; stroke-width: 2; stroke: #000000" x="200.166" y="210.666" width="41.5333" height="64.4673"/>
    <text font-size="12.8" style="fill: #000000;text-anchor:middle;font-family:sans-serif;font-style:normal;font-weight:normal" x="220.933" y="246.8">
      <tspan x="220.933" y="246.8">1</tspan>
    </text>
  </g>
  <g>
    <rect style="fill: none; fill-opacity:0; stroke-width: 2; stroke: #000000" x="199.833" y="275.134" width="41.8" height="73.5333"/>
    <text font-size="12.8" style="fill: #000000;text-anchor:middle;font-family:sans-serif;font-style:normal;font-weight:normal" x="220.733" y="315.801">
      <tspan x="220.733" y="315.801">MA</tspan>
    </text>
  </g>
  <g>
    <rect style="fill: none; fill-opacity:0; stroke-width: 2; stroke: #000000" x="348.534" y="561.134" width="42.0333" height="38"/>
    <text font-size="12.8" style="fill: #000000;text-anchor:middle;font-family:sans-serif;font-style:normal;font-weight:normal" x="369.551" y="584.034">
      <tspan x="369.551" y="584.034">2</tspan>
    </text>
  </g>
  <g>
    <rect style="fill: none; fill-opacity:0; stroke-width: 2; stroke: #000000" x="349" y="599.134" width="41.8333" height="62.2"/>
    <text font-size="12.8" style="fill: #000000;text-anchor:middle;font-family:sans-serif;font-style:normal;font-weight:normal" x="369.917" y="634.134">
      <tspan x="369.917" y="634.134">TR</tspan>
    </text>
  </g>
  <g>
    <rect style="fill: none; fill-opacity:0; stroke-width: 2; stroke: #000000" x="579.766" y="33.4" width="319.067" height="756.6"/>
    <text font-size="12.8" style="fill: #000000;text-anchor:middle;font-family:sans-serif;font-style:normal;font-weight:normal" x="739.299" y="415.6">
      <tspan x="739.299" y="415.6"></tspan>
    </text>
  </g>
  <g>
    <polyline style="fill: none; fill-opacity:0; stroke-width: 2; stroke: #000000" points="824.308,481.8 762.82,481.8 762.82,514.064 "/>
    <polygon style="fill: #000000" points="762.82,521.564 757.82,511.564 762.82,514.064 767.82,511.564 "/>
    <polygon style="fill: none; fill-opacity:0; stroke-width: 2; stroke: #000000" points="762.82,521.564 757.82,511.564 762.82,514.064 767.82,511.564 "/>
  </g>
  <g>
    <path style="fill: none; fill-opacity:0; stroke-width: 2; stroke: #000000" d="M 707.508 523.8 L 781.258,523.8 L 781.258,555.8 L 744.383,563.8 L 707.508,555.8 L 707.508,523.8"/>
    <text font-size="12.8" style="fill: #000000;text-anchor:middle;font-family:sans-serif;font-style:normal;font-weight:normal" x="744.383" y="543.8">
      <tspan x="744.383" y="543.8">A et B</tspan>
    </text>
  </g>
  <g>
    <rect style="fill: none; fill-opacity:0; stroke-width: 2.35099e-37; stroke: #000000" x="763.034" y="443.8" width="122.55" height="38"/>
    <text font-size="12.8" style="fill: #000000;text-anchor:middle;font-family:sans-serif;font-style:normal;font-weight:normal" x="824.309" y="466.7">
      <tspan x="824.309" y="466.7">B : facture</tspan>
    </text>
  </g>
  <g>
    <rect style="fill: none; fill-opacity:0; stroke-width: 2; stroke: #000000" x="663.05" y="566" width="151.533" height="96.6667"/>
    <text font-size="12.8" style="fill: #000000;text-anchor:middle;font-family:sans-serif;font-style:normal;font-weight:normal" x="738.817" y="602.233">
      <tspan x="738.817" y="602.233">Enregistrer </tspan>
      <tspan x="738.817" y="618.233">facture</tspan>
      <tspan x="738.817" y="634.233">Payer facture</tspan>
    </text>
  </g>
  <g>
    <rect style="fill: none; fill-opacity:0; stroke-width: 2.35099e-37; stroke: #000000" x="668.508" y="717.134" width="141.05" height="38"/>
    <text font-size="12.8" style="fill: #000000;text-anchor:middle;font-family:sans-serif;font-style:normal;font-weight:normal" x="739.033" y="740.034">
      <tspan x="739.033" y="740.034">comptes à jour</tspan>
    </text>
  </g>
  <g>
    <line style="fill: none; fill-opacity:0; stroke-width: 2; stroke: #000000" x1="738.816" y1="662.666" x2="738.995" y2="707.398"/>
    <polygon style="fill: #000000" points="739.025,714.898 733.985,704.918 738.995,707.398 743.985,704.878 "/>
    <polygon style="fill: none; fill-opacity:0; stroke-width: 2; stroke: #000000" points="739.025,714.898 733.985,704.918 738.995,707.398 743.985,704.878 "/>
  </g>
  <g>
    <rect style="fill: none; fill-opacity:0; stroke-width: 2; stroke: #000000" x="620.566" y="566.066" width="42.2667" height="38"/>
    <text font-size="12.8" style="fill: #000000;text-anchor:middle;font-family:sans-serif;font-style:normal;font-weight:normal" x="641.699" y="588.966">
      <tspan x="641.699" y="588.966">3</tspan>
    </text>
  </g>
  <g>
    <rect style="fill: none; fill-opacity:0; stroke-width: 2; stroke: #000000" x="620.7" y="604.166" width="41.8" height="58.5"/>
    <text font-size="12.8" style="fill: #000000;text-anchor:middle;font-family:sans-serif;font-style:normal;font-weight:normal" x="641.6" y="637.316">
      <tspan x="641.6" y="637.316">MA</tspan>
    </text>
  </g>
  <g>
    <rect style="fill: none; fill-opacity:0; stroke-width: 2; stroke: #000000" x="579.434" y="33.4" width="319.4" height="38"/>
    <text font-size="12.8" style="fill: #000000;text-anchor:middle;font-family:sans-serif;font-style:normal;font-weight:normal" x="739.134" y="56.3">
      <tspan x="739.134" y="56.3">Trésorerie</tspan>
    </text>
  </g>
  <g>
    <polyline style="fill: none; fill-opacity:0; stroke-width: 2; stroke: #000000" points="347.45,480.532 725.946,480.532 725.946,514.064 "/>
    <polygon style="fill: #000000" points="725.946,521.564 720.946,511.564 725.946,514.064 730.946,511.564 "/>
    <polygon style="fill: none; fill-opacity:0; stroke-width: 2; stroke: #000000" points="725.946,521.564 720.946,511.564 725.946,514.064 730.946,511.564 "/>
  </g>
</svg>
