<?xml version="1.0" encoding="UTF-8" standalone="no"?>
<!DOCTYPE svg PUBLIC "-//W3C//DTD SVG 1.0//EN" "http://www.w3.org/TR/2001/PR-SVG-20010719/DTD/svg10.dtd">
<svg width="36cm" height="33cm" viewBox="108 -659 714 659" xmlns="http://www.w3.org/2000/svg" xmlns:xlink="http://www.w3.org/1999/xlink">
  <g>
    <polyline style="fill: none; fill-opacity:0; stroke-width: 2; stroke: #000000" points="232.85,-280.92 298.696,-280.92 298.696,-250.654 "/>
    <polygon style="fill: #000000" points="298.696,-243.154 293.696,-253.154 298.696,-250.654 303.696,-253.154 "/>
    <polygon style="fill: none; fill-opacity:0; stroke-width: 2; stroke: #000000" points="298.696,-243.154 293.696,-253.154 298.696,-250.654 303.696,-253.154 "/>
  </g>
  <g>
    <path style="fill: none; fill-opacity:0; stroke-width: 2; stroke: #000000" d="M 280.258 -240.918 L 354.008,-240.918 L 354.008,-208.918 L 317.133,-200.918 L 280.258,-208.918 L 280.258,-240.918"/>
    <text font-size="12.8" style="fill: #000000;text-anchor:middle;font-family:sans-serif;font-style:normal;font-weight:normal" x="317.133" y="-220.918">
      <tspan x="317.133" y="-220.918"></tspan>
    </text>
  </g>
  <g>
    <rect style="fill: none; fill-opacity:0; stroke-width: 2.35099e-37; stroke: #000000" x="166.8" y="-318.92" width="132.1" height="38"/>
    <text font-size="12.8" style="fill: #000000;text-anchor:middle;font-family:sans-serif;font-style:normal;font-weight:normal" x="232.85" y="-296.02">
      <tspan x="232.85" y="-296.02">besoin de produit</tspan>
    </text>
  </g>
  <g>
    <rect style="fill: none; fill-opacity:0; stroke-width: 2; stroke: #000000" x="242.416" y="-199.386" width="152.3" height="99.8"/>
    <text font-size="12.8" style="fill: #000000;text-anchor:middle;font-family:sans-serif;font-style:normal;font-weight:normal" x="318.566" y="-153.586">
      <tspan x="318.566" y="-153.586">Trouver fournisseur</tspan>
      <tspan x="318.566" y="-137.586">Préparer commande</tspan>
    </text>
  </g>
  <g>
    <rect style="fill: none; fill-opacity:0; stroke-width: 2.35099e-37; stroke: #000000" x="249.308" y="-38.5862" width="140.05" height="38"/>
    <text font-size="12.8" style="fill: #000000;text-anchor:middle;font-family:sans-serif;font-style:normal;font-weight:normal" x="319.333" y="-15.6862">
      <tspan x="319.333" y="-15.6862">bon de commande</tspan>
    </text>
  </g>
  <g>
    <line style="fill: none; fill-opacity:0; stroke-width: 2; stroke: #000000" x1="318.566" y1="-99.5862" x2="319.21" y2="-48.3215"/>
    <polygon style="fill: #000000" points="319.304,-40.8221 314.179,-50.7585 319.21,-48.3215 324.178,-50.8841 "/>
    <polygon style="fill: none; fill-opacity:0; stroke-width: 2; stroke: #000000" points="319.304,-40.8221 314.179,-50.7585 319.21,-48.3215 324.178,-50.8841 "/>
  </g>
  <g>
    <polyline style="fill: none; fill-opacity:0; stroke-width: 2; stroke: #000000" points="180.018,-606.92 266.914,-606.92 266.914,-582.654 "/>
    <polygon style="fill: #000000" points="266.914,-575.154 261.914,-585.154 266.914,-582.654 271.914,-585.154 "/>
    <polygon style="fill: none; fill-opacity:0; stroke-width: 2; stroke: #000000" points="266.914,-575.154 261.914,-585.154 266.914,-582.654 271.914,-585.154 "/>
  </g>
  <g>
    <path style="fill: none; fill-opacity:0; stroke-width: 2; stroke: #000000" d="M 248.476 -572.918 L 322.226,-572.918 L 322.226,-540.918 L 285.351,-532.918 L 248.476,-540.918 L 248.476,-572.918"/>
    <text font-size="12.8" style="fill: #000000;text-anchor:middle;font-family:sans-serif;font-style:normal;font-weight:normal" x="285.351" y="-552.918">
      <tspan x="285.351" y="-552.918"></tspan>
    </text>
  </g>
  <g>
    <rect style="fill: none; fill-opacity:0; stroke-width: 2.35099e-37; stroke: #000000" x="108.018" y="-658.92" width="144" height="52"/>
    <text font-size="12.8" style="fill: #000000;text-anchor:middle;font-family:sans-serif;font-style:normal;font-weight:normal" x="180.018" y="-637.02">
      <tspan x="180.018" y="-637.02">demande de</tspan>
      <tspan x="180.018" y="-621.02">prélèvement</tspan>
    </text>
  </g>
  <g>
    <rect style="fill: none; fill-opacity:0; stroke-width: 2; stroke: #000000" x="188.635" y="-532.386" width="175.365" height="99.8"/>
    <text font-size="12.8" style="fill: #000000;text-anchor:middle;font-family:sans-serif;font-style:normal;font-weight:normal" x="276.317" y="-486.586">
      <tspan x="276.317" y="-486.586">Vérification</tspan>
      <tspan x="276.317" y="-470.586">état des stocks</tspan>
    </text>
  </g>
  <g>
    <line style="fill: none; fill-opacity:0; stroke-width: 2; stroke: #000000" x1="232.293" y1="-378.92" x2="232.76" y2="-328.656"/>
    <polygon style="fill: #000000" points="232.829,-321.156 227.737,-331.109 232.76,-328.656 237.736,-331.202 "/>
    <polygon style="fill: none; fill-opacity:0; stroke-width: 2; stroke: #000000" points="232.829,-321.156 227.737,-331.109 232.76,-328.656 237.736,-331.202 "/>
  </g>
  <g>
    <rect style="fill: none; fill-opacity:0; stroke-width: 2; stroke: #000000" x="188.493" y="-432.92" width="87.6" height="54"/>
    <text font-size="12.8" style="fill: #000000;text-anchor:middle;font-family:sans-serif;font-style:normal;font-weight:normal" x="232.293" y="-410.02">
      <tspan x="232.293" y="-410.02">produit</tspan>
      <tspan x="232.293" y="-394.02">manquant</tspan>
    </text>
  </g>
  <g>
    <rect style="fill: none; fill-opacity:0; stroke-width: 2; stroke: #000000" x="276.018" y="-432.92" width="87.6" height="54"/>
    <text font-size="12.8" style="fill: #000000;text-anchor:middle;font-family:sans-serif;font-style:normal;font-weight:normal" x="319.818" y="-410.02">
      <tspan x="319.818" y="-410.02">tout est</tspan>
      <tspan x="319.818" y="-394.02">disponible</tspan>
    </text>
  </g>
  <g>
    <line style="fill: none; fill-opacity:0; stroke-width: 2; stroke: #000000" x1="341.718" y1="-378.92" x2="341.634" y2="-328.656"/>
    <polygon style="fill: #000000" points="341.622,-321.156 336.638,-331.164 341.634,-328.656 346.638,-331.148 "/>
    <polygon style="fill: none; fill-opacity:0; stroke-width: 2; stroke: #000000" points="341.622,-321.156 336.638,-331.164 341.634,-328.656 346.638,-331.148 "/>
  </g>
  <g>
    <rect style="fill: none; fill-opacity:0; stroke-width: 2.35099e-37; stroke: #000000" x="307.218" y="-318.92" width="68.8" height="38"/>
    <text font-size="12.8" style="fill: #000000;text-anchor:middle;font-family:sans-serif;font-style:normal;font-weight:normal" x="341.618" y="-296.02">
      <tspan x="341.618" y="-296.02">accord</tspan>
    </text>
  </g>
  <g>
    <rect style="fill: none; fill-opacity:0; stroke-width: 2.35099e-37; stroke: #000000" x="554.802" y="-319.92" width="144" height="38"/>
    <text font-size="12.8" style="fill: #000000;text-anchor:middle;font-family:sans-serif;font-style:normal;font-weight:normal" x="626.802" y="-297.02">
      <tspan x="626.802" y="-297.02">bon de retour</tspan>
    </text>
  </g>
  <g>
    <polyline style="fill: none; fill-opacity:0; stroke-width: 2; stroke: #000000" points="597.02,-615.92 675.916,-615.92 675.916,-584.654 "/>
    <polygon style="fill: #000000" points="675.916,-577.154 670.916,-587.154 675.916,-584.654 680.916,-587.154 "/>
    <polygon style="fill: none; fill-opacity:0; stroke-width: 2; stroke: #000000" points="675.916,-577.154 670.916,-587.154 675.916,-584.654 680.916,-587.154 "/>
  </g>
  <g>
    <path style="fill: none; fill-opacity:0; stroke-width: 2; stroke: #000000" d="M 657.478 -574.918 L 731.228,-574.918 L 731.228,-542.918 L 694.353,-534.918 L 657.478,-542.918 L 657.478,-574.918"/>
    <text font-size="12.8" style="fill: #000000;text-anchor:middle;font-family:sans-serif;font-style:normal;font-weight:normal" x="694.353" y="-554.918">
      <tspan x="694.353" y="-554.918"></tspan>
    </text>
  </g>
  <g>
    <rect style="fill: none; fill-opacity:0; stroke-width: 2.35099e-37; stroke: #000000" x="525.02" y="-653.92" width="144" height="38"/>
    <text font-size="12.8" style="fill: #000000;text-anchor:middle;font-family:sans-serif;font-style:normal;font-weight:normal" x="597.02" y="-631.02">
      <tspan x="597.02" y="-631.02">bon de livraison</tspan>
    </text>
  </g>
  <g>
    <rect style="fill: none; fill-opacity:0; stroke-width: 2; stroke: #000000" x="605.636" y="-534.386" width="173.583" height="99.8"/>
    <text font-size="12.8" style="fill: #000000;text-anchor:middle;font-family:sans-serif;font-style:normal;font-weight:normal" x="692.428" y="-488.586">
      <tspan x="692.428" y="-488.586">Vérification</tspan>
      <tspan x="692.428" y="-472.586">livraison</tspan>
    </text>
  </g>
  <g>
    <line style="fill: none; fill-opacity:0; stroke-width: 2; stroke: #000000" x1="627.396" y1="-379.92" x2="626.898" y2="-329.656"/>
    <polygon style="fill: #000000" points="626.824,-322.156 621.923,-332.205 626.898,-329.656 631.923,-332.106 "/>
    <polygon style="fill: none; fill-opacity:0; stroke-width: 2; stroke: #000000" points="626.824,-322.156 621.923,-332.205 626.898,-329.656 631.923,-332.106 "/>
  </g>
  <g>
    <rect style="fill: none; fill-opacity:0; stroke-width: 2; stroke: #000000" x="605.496" y="-433.92" width="87.6" height="54"/>
    <text font-size="12.8" style="fill: #000000;text-anchor:middle;font-family:sans-serif;font-style:normal;font-weight:normal" x="649.296" y="-411.02">
      <tspan x="649.296" y="-411.02">produit</tspan>
      <tspan x="649.296" y="-395.02">manquant</tspan>
    </text>
  </g>
  <g>
    <rect style="fill: none; fill-opacity:0; stroke-width: 2; stroke: #000000" x="693.02" y="-433.92" width="85.718" height="54"/>
    <text font-size="12.8" style="fill: #000000;text-anchor:middle;font-family:sans-serif;font-style:normal;font-weight:normal" x="735.879" y="-411.02">
      <tspan x="735.879" y="-411.02">tout est</tspan>
      <tspan x="735.879" y="-395.02">livré</tspan>
    </text>
  </g>
  <g>
    <line style="fill: none; fill-opacity:0; stroke-width: 2; stroke: #000000" x1="757.308" y1="-379.92" x2="760.024" y2="-335.638"/>
    <polygon style="fill: #000000" points="760.483,-328.152 754.88,-337.827 760.024,-335.638 764.862,-338.439 "/>
    <polygon style="fill: none; fill-opacity:0; stroke-width: 2; stroke: #000000" points="760.483,-328.152 754.88,-337.827 760.024,-335.638 764.862,-338.439 "/>
  </g>
  <g>
    <rect style="fill: none; fill-opacity:0; stroke-width: 2.35099e-37; stroke: #000000" x="699.52" y="-325.92" width="122.2" height="52"/>
    <text font-size="12.8" style="fill: #000000;text-anchor:middle;font-family:sans-serif;font-style:normal;font-weight:normal" x="760.62" y="-304.02">
      <tspan x="760.62" y="-304.02">bon de livraison</tspan>
      <tspan x="760.62" y="-288.02">validé</tspan>
    </text>
  </g>
</svg>
