<?xml version="1.0" encoding="UTF-8" standalone="no"?>
<!DOCTYPE svg PUBLIC "-//W3C//DTD SVG 1.0//EN" "http://www.w3.org/TR/2001/PR-SVG-20010719/DTD/svg10.dtd">
<svg width="75cm" height="39cm" viewBox="-2359 -1875 1483 767" xmlns="http://www.w3.org/2000/svg" xmlns:xlink="http://www.w3.org/1999/xlink">
  <g>
    <rect style="fill: none; fill-opacity:0; stroke-width: 2; stroke: #000000" x="-1806.39" y="-1873" width="541.2" height="764"/>
    <text font-size="12.8" style="fill: #000000;text-anchor:middle;font-family:sans-serif;font-style:normal;font-weight:normal" x="-1535.79" y="-1487.1">
      <tspan x="-1535.79" y="-1487.1"></tspan>
    </text>
  </g>
  <g>
    <rect style="fill: none; fill-opacity:0; stroke-width: 2; stroke: #000000" x="-1264.74" y="-1873" width="387.55" height="764"/>
    <text font-size="12.8" style="fill: #000000;text-anchor:middle;font-family:sans-serif;font-style:normal;font-weight:normal" x="-1070.97" y="-1487.1">
      <tspan x="-1070.97" y="-1487.1"></tspan>
    </text>
  </g>
  <g>
    <polyline style="fill: none; fill-opacity:0; stroke-width: 2; stroke: #000000" points="-1015.36,-1437.8 -1038.52,-1437.8 -1038.52,-1401.53 "/>
    <polygon style="fill: #000000" points="-1038.52,-1394.03 -1043.52,-1404.03 -1038.52,-1401.53 -1033.52,-1404.03 "/>
    <polygon style="fill: none; fill-opacity:0; stroke-width: 2; stroke: #000000" points="-1038.52,-1394.03 -1043.52,-1404.03 -1038.52,-1401.53 -1033.52,-1404.03 "/>
  </g>
  <g>
    <path style="fill: none; fill-opacity:0; stroke-width: 2; stroke: #000000" d="M -1056.96 -1391.8 L -983.206,-1391.8 L -983.206,-1359.8 L -1020.08,-1351.8 L -1056.96,-1359.8 L -1056.96,-1391.8"/>
    <text font-size="12.8" style="fill: #000000;text-anchor:middle;font-family:sans-serif;font-style:normal;font-weight:normal" x="-1020.08" y="-1371.8">
      <tspan x="-1020.08" y="-1371.8"></tspan>
    </text>
  </g>
  <g>
    <rect style="fill: none; fill-opacity:0; stroke-width: 2.35099e-37; stroke: #000000" x="-1081.41" y="-1475.8" width="132.1" height="38"/>
    <text font-size="12.8" style="fill: #000000;text-anchor:middle;font-family:sans-serif;font-style:normal;font-weight:normal" x="-1015.36" y="-1452.9">
      <tspan x="-1015.36" y="-1452.9">besoin de produit</tspan>
    </text>
  </g>
  <g>
    <rect style="fill: none; fill-opacity:0; stroke-width: 2; stroke: #000000" x="-1094.8" y="-1350.27" width="152.3" height="99.8"/>
    <text font-size="12.8" style="fill: #000000;text-anchor:middle;font-family:sans-serif;font-style:normal;font-weight:normal" x="-1018.65" y="-1304.47">
      <tspan x="-1018.65" y="-1304.47">Trouver fournisseur</tspan>
      <tspan x="-1018.65" y="-1288.47">Préparer commande</tspan>
    </text>
  </g>
  <g>
    <polyline style="fill: none; fill-opacity:0; stroke-width: 2; stroke: #000000" points="-1157.2,-1757.8 -1070.3,-1757.8 -1070.3,-1733.53 "/>
    <polygon style="fill: #000000" points="-1070.3,-1726.03 -1075.3,-1736.03 -1070.3,-1733.53 -1065.3,-1736.03 "/>
    <polygon style="fill: none; fill-opacity:0; stroke-width: 2; stroke: #000000" points="-1070.3,-1726.03 -1075.3,-1736.03 -1070.3,-1733.53 -1065.3,-1736.03 "/>
  </g>
  <g>
    <path style="fill: none; fill-opacity:0; stroke-width: 2; stroke: #000000" d="M -1088.74 -1723.8 L -1014.99,-1723.8 L -1014.99,-1691.8 L -1051.86,-1683.8 L -1088.74,-1691.8 L -1088.74,-1723.8"/>
    <text font-size="12.8" style="fill: #000000;text-anchor:middle;font-family:sans-serif;font-style:normal;font-weight:normal" x="-1051.86" y="-1703.8">
      <tspan x="-1051.86" y="-1703.8"></tspan>
    </text>
  </g>
  <g>
    <rect style="fill: none; fill-opacity:0; stroke-width: 2.35099e-37; stroke: #000000" x="-1229.2" y="-1809.8" width="144" height="52"/>
    <text font-size="12.8" style="fill: #000000;text-anchor:middle;font-family:sans-serif;font-style:normal;font-weight:normal" x="-1157.2" y="-1787.9">
      <tspan x="-1157.2" y="-1787.9">demande de</tspan>
      <tspan x="-1157.2" y="-1771.9">prélèvement</tspan>
    </text>
  </g>
  <g>
    <rect style="fill: none; fill-opacity:0; stroke-width: 2; stroke: #000000" x="-1148.58" y="-1683.27" width="176.385" height="99.8"/>
    <text font-size="12.8" style="fill: #000000;text-anchor:middle;font-family:sans-serif;font-style:normal;font-weight:normal" x="-1060.39" y="-1637.47">
      <tspan x="-1060.39" y="-1637.47">Vérification</tspan>
      <tspan x="-1060.39" y="-1621.47">état des stocks</tspan>
    </text>
  </g>
  <g>
    <line style="fill: none; fill-opacity:0; stroke-width: 2; stroke: #000000" x1="-1016.4" y1="-1528.8" x2="-1015.55" y2="-1485.53"/>
    <polygon style="fill: #000000" points="-1015.41,-1478.04 -1020.6,-1487.94 -1015.55,-1485.53 -1010.6,-1488.13 "/>
    <polygon style="fill: none; fill-opacity:0; stroke-width: 2; stroke: #000000" points="-1015.41,-1478.04 -1020.6,-1487.94 -1015.55,-1485.53 -1010.6,-1488.13 "/>
  </g>
  <g>
    <rect style="fill: none; fill-opacity:0; stroke-width: 2; stroke: #000000" x="-1147.72" y="-1582.8" width="87.6" height="54"/>
    <text font-size="12.8" style="fill: #000000;text-anchor:middle;font-family:sans-serif;font-style:normal;font-weight:normal" x="-1103.92" y="-1559.9">
      <tspan x="-1103.92" y="-1559.9">tout est</tspan>
      <tspan x="-1103.92" y="-1543.9">disponible</tspan>
    </text>
  </g>
  <g>
    <rect style="fill: none; fill-opacity:0; stroke-width: 2; stroke: #000000" x="-1060.2" y="-1582.8" width="87.6" height="54"/>
    <text font-size="12.8" style="fill: #000000;text-anchor:middle;font-family:sans-serif;font-style:normal;font-weight:normal" x="-1016.4" y="-1559.9">
      <tspan x="-1016.4" y="-1559.9">produit</tspan>
      <tspan x="-1016.4" y="-1543.9">manquant</tspan>
    </text>
  </g>
  <g>
    <rect style="fill: none; fill-opacity:0; stroke-width: 2.35099e-37; stroke: #000000" x="-1348" y="-1468.8" width="68.8" height="38"/>
    <text font-size="12.8" style="fill: #000000;text-anchor:middle;font-family:sans-serif;font-style:normal;font-weight:normal" x="-1313.6" y="-1445.9">
      <tspan x="-1313.6" y="-1445.9">accord</tspan>
    </text>
  </g>
  <g>
    <rect style="fill: none; fill-opacity:0; stroke-width: 2; stroke: #000000" x="-1265.57" y="-1872.8" width="388.375" height="38"/>
    <text font-size="12.8" style="fill: #000000;text-anchor:middle;font-family:sans-serif;font-style:normal;font-weight:normal" x="-1071.38" y="-1849.9">
      <tspan x="-1071.38" y="-1849.9">Bureau des stocks</tspan>
    </text>
  </g>
  <g>
    <rect style="fill: none; fill-opacity:0; stroke-width: 2; stroke: #000000" x="-1189.89" y="-1682.8" width="42.05" height="64.3998"/>
    <text font-size="12.8" style="fill: #000000;text-anchor:middle;font-family:sans-serif;font-style:normal;font-weight:normal" x="-1168.87" y="-1646.7">
      <tspan x="-1168.87" y="-1646.7">4</tspan>
    </text>
  </g>
  <g>
    <rect style="fill: none; fill-opacity:0; stroke-width: 2; stroke: #000000" x="-1189.89" y="-1617.8" width="42.075" height="88.8"/>
    <text font-size="12.8" style="fill: #000000;text-anchor:middle;font-family:sans-serif;font-style:normal;font-weight:normal" x="-1168.86" y="-1569.5">
      <tspan x="-1168.86" y="-1569.5">TR</tspan>
    </text>
  </g>
  <g>
    <rect style="fill: none; fill-opacity:0; stroke-width: 2; stroke: #000000" x="-1136.89" y="-1349.8" width="42.05" height="38"/>
    <text font-size="12.8" style="fill: #000000;text-anchor:middle;font-family:sans-serif;font-style:normal;font-weight:normal" x="-1115.87" y="-1326.9">
      <tspan x="-1115.87" y="-1326.9">5</tspan>
    </text>
  </g>
  <g>
    <rect style="fill: none; fill-opacity:0; stroke-width: 2; stroke: #000000" x="-1136.89" y="-1311.8" width="42.075" height="61.8"/>
    <text font-size="12.8" style="fill: #000000;text-anchor:middle;font-family:sans-serif;font-style:normal;font-weight:normal" x="-1115.86" y="-1277">
      <tspan x="-1115.86" y="-1277">MA</tspan>
    </text>
  </g>
  <g>
    <polyline style="fill: none; fill-opacity:0; stroke-width: 2; stroke: #000000" points="-1103.92,-1528.8 -1103.92,-1498.8 -1313.6,-1498.8 -1313.6,-1478.54 "/>
    <polygon style="fill: #000000" points="-1313.6,-1471.04 -1318.6,-1481.04 -1313.6,-1478.54 -1308.6,-1481.04 "/>
    <polygon style="fill: none; fill-opacity:0; stroke-width: 2; stroke: #000000" points="-1313.6,-1471.04 -1318.6,-1481.04 -1313.6,-1478.54 -1308.6,-1481.04 "/>
  </g>
  <g>
    <rect style="fill: none; fill-opacity:0; stroke-width: 2.35099e-37; stroke: #000000" x="-1768.01" y="-1471.8" width="118.3" height="52"/>
    <text font-size="12.8" style="fill: #000000;text-anchor:middle;font-family:sans-serif;font-style:normal;font-weight:normal" x="-1708.86" y="-1449.9">
      <tspan x="-1708.86" y="-1449.9">pas de </tspan>
      <tspan x="-1708.86" y="-1433.9">ravitaillement</tspan>
    </text>
  </g>
  <g>
    <polyline style="fill: none; fill-opacity:0; stroke-width: 2; stroke: #000000" points="-1687.79,-1746.8 -1604.9,-1746.8 -1604.9,-1722.54 "/>
    <polygon style="fill: #000000" points="-1604.9,-1715.04 -1609.9,-1725.04 -1604.9,-1722.54 -1599.9,-1725.04 "/>
    <polygon style="fill: none; fill-opacity:0; stroke-width: 2; stroke: #000000" points="-1604.9,-1715.04 -1609.9,-1725.04 -1604.9,-1722.54 -1599.9,-1725.04 "/>
  </g>
  <g>
    <path style="fill: none; fill-opacity:0; stroke-width: 2; stroke: #000000" d="M -1623.34 -1712.8 L -1549.59,-1712.8 L -1549.59,-1680.8 L -1586.46,-1672.8 L -1623.34,-1680.8 L -1623.34,-1712.8"/>
    <text font-size="12.8" style="fill: #000000;text-anchor:middle;font-family:sans-serif;font-style:normal;font-weight:normal" x="-1586.46" y="-1692.8">
      <tspan x="-1586.46" y="-1692.8">A ou B</tspan>
    </text>
  </g>
  <g>
    <rect style="fill: none; fill-opacity:0; stroke-width: 2.35099e-37; stroke: #000000" x="-1769.39" y="-1798.8" width="163.2" height="52"/>
    <text font-size="12.8" style="fill: #000000;text-anchor:middle;font-family:sans-serif;font-style:normal;font-weight:normal" x="-1687.79" y="-1776.9">
      <tspan x="-1687.79" y="-1776.9">A : besoin de</tspan>
      <tspan x="-1687.79" y="-1760.9">ravitaillement</tspan>
    </text>
  </g>
  <g>
    <rect style="fill: none; fill-opacity:0; stroke-width: 2; stroke: #000000" x="-1730.19" y="-1672.27" width="277.582" height="99.8"/>
    <text font-size="12.8" style="fill: #000000;text-anchor:middle;font-family:sans-serif;font-style:normal;font-weight:normal" x="-1591.4" y="-1618.47">
      <tspan x="-1591.4" y="-1618.47">Validation besoins</tspan>
    </text>
  </g>
  <g>
    <line style="fill: none; fill-opacity:0; stroke-width: 2; stroke: #000000" x1="-1708.69" y1="-1518" x2="-1708.83" y2="-1481.54"/>
    <polygon style="fill: #000000" points="-1708.85,-1474.04 -1713.82,-1484.05 -1708.83,-1481.54 -1703.82,-1484.02 "/>
    <polygon style="fill: none; fill-opacity:0; stroke-width: 2; stroke: #000000" points="-1708.85,-1474.04 -1713.82,-1484.05 -1708.83,-1481.54 -1703.82,-1484.02 "/>
  </g>
  <g>
    <rect style="fill: none; fill-opacity:0; stroke-width: 2; stroke: #000000" x="-1730.87" y="-1572" width="88.7" height="54"/>
    <text font-size="12.8" style="fill: #000000;text-anchor:middle;font-family:sans-serif;font-style:normal;font-weight:normal" x="-1686.52" y="-1549.1">
      <tspan x="-1686.52" y="-1549.1">besoin</tspan>
      <tspan x="-1686.52" y="-1533.1">non valide</tspan>
    </text>
  </g>
  <g>
    <rect style="fill: none; fill-opacity:0; stroke-width: 2; stroke: #000000" x="-1641.79" y="-1571.8" width="87.6" height="54"/>
    <text font-size="12.8" style="fill: #000000;text-anchor:middle;font-family:sans-serif;font-style:normal;font-weight:normal" x="-1597.99" y="-1548.9">
      <tspan x="-1597.99" y="-1548.9">tout est</tspan>
      <tspan x="-1597.99" y="-1532.9">OK</tspan>
    </text>
  </g>
  <g>
    <line style="fill: none; fill-opacity:0; stroke-width: 2; stroke: #000000" x1="-1597.99" y1="-1517.8" x2="-1597.63" y2="-1403.54"/>
    <polygon style="fill: #000000" points="-1597.6,-1396.04 -1602.63,-1406.02 -1597.63,-1403.54 -1592.63,-1406.05 "/>
    <polygon style="fill: none; fill-opacity:0; stroke-width: 2; stroke: #000000" points="-1597.6,-1396.04 -1602.63,-1406.02 -1597.63,-1403.54 -1592.63,-1406.05 "/>
  </g>
  <g>
    <rect style="fill: none; fill-opacity:0; stroke-width: 2.35099e-37; stroke: #000000" x="-1652.14" y="-1393.8" width="109.1" height="36"/>
    <text font-size="12.8" style="fill: #000000;text-anchor:middle;font-family:sans-serif;font-style:normal;font-weight:normal" x="-1597.59" y="-1371.9">
      <tspan x="-1597.59" y="-1371.9">ravitaillement</tspan>
    </text>
  </g>
  <g>
    <rect style="fill: none; fill-opacity:0; stroke-width: 2; stroke: #000000" x="-1554.76" y="-1571.8" width="103.5" height="54"/>
    <text font-size="12.8" style="fill: #000000;text-anchor:middle;font-family:sans-serif;font-style:normal;font-weight:normal" x="-1503.01" y="-1548.9">
      <tspan x="-1503.01" y="-1548.9">produit</tspan>
      <tspan x="-1503.01" y="-1532.9">manquant</tspan>
    </text>
  </g>
  <g>
    <polyline style="fill: none; fill-opacity:0; stroke-width: 2; stroke: #000000" points="-1467.21,-1750.8 -1568.02,-1750.8 -1568.02,-1722.54 "/>
    <polygon style="fill: #000000" points="-1568.02,-1715.04 -1573.02,-1725.04 -1568.02,-1722.54 -1563.02,-1725.04 "/>
    <polygon style="fill: none; fill-opacity:0; stroke-width: 2; stroke: #000000" points="-1568.02,-1715.04 -1573.02,-1725.04 -1568.02,-1722.54 -1563.02,-1725.04 "/>
  </g>
  <g>
    <rect style="fill: none; fill-opacity:0; stroke-width: 2.35099e-37; stroke: #000000" x="-1548.81" y="-1802.8" width="163.2" height="52"/>
    <text font-size="12.8" style="fill: #000000;text-anchor:middle;font-family:sans-serif;font-style:normal;font-weight:normal" x="-1467.21" y="-1772.9">
      <tspan x="-1467.21" y="-1772.9">B : prélèvement</tspan>
    </text>
  </g>
  <g>
    <rect style="fill: none; fill-opacity:0; stroke-width: 2; stroke: #000000" x="-1806.39" y="-1872.8" width="541.2" height="38"/>
    <text font-size="12.8" style="fill: #000000;text-anchor:middle;font-family:sans-serif;font-style:normal;font-weight:normal" x="-1535.79" y="-1849.9">
      <tspan x="-1535.79" y="-1849.9">Four</tspan>
    </text>
  </g>
  <g>
    <rect style="fill: none; fill-opacity:0; stroke-width: 2; stroke: #000000" x="-1772.39" y="-1671.8" width="42.05" height="64.3998"/>
    <text font-size="12.8" style="fill: #000000;text-anchor:middle;font-family:sans-serif;font-style:normal;font-weight:normal" x="-1751.37" y="-1635.7">
      <tspan x="-1751.37" y="-1635.7">3</tspan>
    </text>
  </g>
  <g>
    <rect style="fill: none; fill-opacity:0; stroke-width: 2; stroke: #000000" x="-1772.39" y="-1606.8" width="42.075" height="88.8"/>
    <text font-size="12.8" style="fill: #000000;text-anchor:middle;font-family:sans-serif;font-style:normal;font-weight:normal" x="-1751.36" y="-1558.5">
      <tspan x="-1751.36" y="-1558.5">MA</tspan>
    </text>
  </g>
  <g>
    <polyline style="fill: none; fill-opacity:0; stroke-width: 2; stroke: #000000" points="-1451.26,-1544.8 -1340.23,-1544.8 -1340.23,-1796.8 -1238.93,-1796.8 "/>
    <polygon style="fill: #000000" points="-1231.43,-1796.8 -1241.43,-1791.8 -1238.93,-1796.8 -1241.43,-1801.8 "/>
    <polygon style="fill: none; fill-opacity:0; stroke-width: 2; stroke: #000000" points="-1231.43,-1796.8 -1241.43,-1791.8 -1238.93,-1796.8 -1241.43,-1801.8 "/>
  </g>
  <g>
    <rect style="fill: none; fill-opacity:0; stroke-width: 2.35099e-37; stroke: #000000" x="-2202.01" y="-1489.8" width="52.1" height="38"/>
    <text font-size="12.8" style="fill: #000000;text-anchor:middle;font-family:sans-serif;font-style:normal;font-weight:normal" x="-2175.96" y="-1466.9">
      <tspan x="-2175.96" y="-1466.9">refus</tspan>
    </text>
  </g>
  <g>
    <polyline style="fill: none; fill-opacity:0; stroke-width: 2; stroke: #000000" points="-2229.79,-1763.8 -2142.9,-1763.8 -2142.9,-1732.54 "/>
    <polygon style="fill: #000000" points="-2142.9,-1725.04 -2147.9,-1735.04 -2142.9,-1732.54 -2137.9,-1735.04 "/>
    <polygon style="fill: none; fill-opacity:0; stroke-width: 2; stroke: #000000" points="-2142.9,-1725.04 -2147.9,-1735.04 -2142.9,-1732.54 -2137.9,-1735.04 "/>
  </g>
  <g>
    <path style="fill: none; fill-opacity:0; stroke-width: 2; stroke: #000000" d="M -2161.34 -1722.8 L -2087.59,-1722.8 L -2087.59,-1690.8 L -2124.46,-1682.8 L -2161.34,-1690.8 L -2161.34,-1722.8"/>
    <text font-size="12.8" style="fill: #000000;text-anchor:middle;font-family:sans-serif;font-style:normal;font-weight:normal" x="-2124.46" y="-1702.8">
      <tspan x="-2124.46" y="-1702.8"></tspan>
    </text>
  </g>
  <g>
    <rect style="fill: none; fill-opacity:0; stroke-width: 2.35099e-37; stroke: #000000" x="-2311.39" y="-1801.8" width="163.2" height="38"/>
    <text font-size="12.8" style="fill: #000000;text-anchor:middle;font-family:sans-serif;font-style:normal;font-weight:normal" x="-2229.79" y="-1778.9">
      <tspan x="-2229.79" y="-1778.9">demande client</tspan>
    </text>
  </g>
  <g>
    <rect style="fill: none; fill-opacity:0; stroke-width: 2; stroke: #000000" x="-2221.18" y="-1682.27" width="173.583" height="99.8"/>
    <text font-size="12.8" style="fill: #000000;text-anchor:middle;font-family:sans-serif;font-style:normal;font-weight:normal" x="-2134.39" y="-1644.47">
      <tspan x="-2134.39" y="-1644.47">Service client</tspan>
      <tspan x="-2134.39" y="-1628.47">Vérification</tspan>
      <tspan x="-2134.39" y="-1612.47">paiement</tspan>
    </text>
  </g>
  <g>
    <line style="fill: none; fill-opacity:0; stroke-width: 2; stroke: #000000" x1="-2174.25" y1="-1527.8" x2="-2175.52" y2="-1499.53"/>
    <polygon style="fill: #000000" points="-2175.86,-1492.03 -2180.41,-1502.25 -2175.52,-1499.53 -2170.42,-1501.8 "/>
    <polygon style="fill: none; fill-opacity:0; stroke-width: 2; stroke: #000000" points="-2175.86,-1492.03 -2180.41,-1502.25 -2175.52,-1499.53 -2170.42,-1501.8 "/>
  </g>
  <g>
    <rect style="fill: none; fill-opacity:0; stroke-width: 2; stroke: #000000" x="-2220.21" y="-1581.8" width="91.918" height="54"/>
    <text font-size="12.8" style="fill: #000000;text-anchor:middle;font-family:sans-serif;font-style:normal;font-weight:normal" x="-2174.25" y="-1558.9">
      <tspan x="-2174.25" y="-1558.9">vente</tspan>
      <tspan x="-2174.25" y="-1542.9">impossible</tspan>
    </text>
  </g>
  <g>
    <rect style="fill: none; fill-opacity:0; stroke-width: 2; stroke: #000000" x="-2128.79" y="-1581.8" width="81.582" height="54"/>
    <text font-size="12.8" style="fill: #000000;text-anchor:middle;font-family:sans-serif;font-style:normal;font-weight:normal" x="-2088" y="-1550.9">
      <tspan x="-2088" y="-1550.9">OK</tspan>
    </text>
  </g>
  <g>
    <line style="fill: none; fill-opacity:0; stroke-width: 2; stroke: #000000" x1="-2088" y1="-1527.8" x2="-2088.24" y2="-1504.54"/>
    <polygon style="fill: #000000" points="-2088.32,-1497.04 -2093.22,-1507.09 -2088.24,-1504.54 -2083.22,-1506.98 "/>
    <polygon style="fill: none; fill-opacity:0; stroke-width: 2; stroke: #000000" points="-2088.32,-1497.04 -2093.22,-1507.09 -2088.24,-1504.54 -2083.22,-1506.98 "/>
  </g>
  <g>
    <polyline style="fill: none; fill-opacity:0; stroke-width: 2; stroke: #000000" points="-2088.34,-1442.8 -2115.42,-1442.8 -2115.42,-1417.54 "/>
    <polygon style="fill: #000000" points="-2115.42,-1410.04 -2120.42,-1420.04 -2115.42,-1417.54 -2110.42,-1420.04 "/>
    <polygon style="fill: none; fill-opacity:0; stroke-width: 2; stroke: #000000" points="-2115.42,-1410.04 -2120.42,-1420.04 -2115.42,-1417.54 -2110.42,-1420.04 "/>
  </g>
  <g>
    <path style="fill: none; fill-opacity:0; stroke-width: 2; stroke: #000000" d="M -2170.74 -1407.8 L -2096.99,-1407.8 L -2096.99,-1375.8 L -2133.86,-1367.8 L -2170.74,-1375.8 L -2170.74,-1407.8"/>
    <text font-size="12.8" style="fill: #000000;text-anchor:middle;font-family:sans-serif;font-style:normal;font-weight:normal" x="-2133.86" y="-1387.8">
      <tspan x="-2133.86" y="-1387.8"></tspan>
    </text>
  </g>
  <g>
    <rect style="fill: none; fill-opacity:0; stroke-width: 2.35099e-37; stroke: #000000" x="-2151.09" y="-1494.8" width="125.5" height="52"/>
    <text font-size="12.8" style="fill: #000000;text-anchor:middle;font-family:sans-serif;font-style:normal;font-weight:normal" x="-2088.34" y="-1472.9">
      <tspan x="-2088.34" y="-1472.9">ticket de</tspan>
      <tspan x="-2088.34" y="-1456.9">caisse</tspan>
    </text>
  </g>
  <g>
    <rect style="fill: none; fill-opacity:0; stroke-width: 2.35099e-37; stroke: #000000" x="-2215.84" y="-1169.33" width="116.95" height="36"/>
    <text font-size="12.8" style="fill: #000000;text-anchor:middle;font-family:sans-serif;font-style:normal;font-weight:normal" x="-2157.36" y="-1147.43">
      <tspan x="-2157.36" y="-1147.43">repos</tspan>
    </text>
  </g>
  <g>
    <rect style="fill: none; fill-opacity:0; stroke-width: 2; stroke: #000000" x="-2199.58" y="-1365.8" width="173.583" height="99.8"/>
    <text font-size="12.8" style="fill: #000000;text-anchor:middle;font-family:sans-serif;font-style:normal;font-weight:normal" x="-2112.79" y="-1320">
      <tspan x="-2112.79" y="-1320">Vérification</tspan>
      <tspan x="-2112.79" y="-1304">produits en vente</tspan>
    </text>
  </g>
  <g>
    <line style="fill: none; fill-opacity:0; stroke-width: 2; stroke: #000000" x1="-2156.65" y1="-1212.33" x2="-2157.2" y2="-1179.07"/>
    <polygon style="fill: #000000" points="-2157.33,-1171.57 -2162.16,-1181.65 -2157.2,-1179.07 -2152.16,-1181.48 "/>
    <polygon style="fill: none; fill-opacity:0; stroke-width: 2; stroke: #000000" points="-2157.33,-1171.57 -2162.16,-1181.65 -2157.2,-1179.07 -2152.16,-1181.48 "/>
  </g>
  <g>
    <rect style="fill: none; fill-opacity:0; stroke-width: 2; stroke: #000000" x="-2199.61" y="-1266.33" width="85.918" height="54"/>
    <text font-size="12.8" style="fill: #000000;text-anchor:middle;font-family:sans-serif;font-style:normal;font-weight:normal" x="-2156.65" y="-1235.43">
      <tspan x="-2156.65" y="-1235.43">OK</tspan>
    </text>
  </g>
  <g>
    <rect style="fill: none; fill-opacity:0; stroke-width: 2; stroke: #000000" x="-2113.2" y="-1266.33" width="87.6" height="54"/>
    <text font-size="12.8" style="fill: #000000;text-anchor:middle;font-family:sans-serif;font-style:normal;font-weight:normal" x="-2069.4" y="-1243.43">
      <tspan x="-2069.4" y="-1243.43">produit</tspan>
      <tspan x="-2069.4" y="-1227.43">manquant</tspan>
    </text>
  </g>
  <g>
    <rect style="fill: none; fill-opacity:0; stroke-width: 2; stroke: #000000" x="-2262.89" y="-1680.8" width="42.05" height="64.3998"/>
    <text font-size="12.8" style="fill: #000000;text-anchor:middle;font-family:sans-serif;font-style:normal;font-weight:normal" x="-2241.87" y="-1644.7">
      <tspan x="-2241.87" y="-1644.7">1</tspan>
    </text>
  </g>
  <g>
    <rect style="fill: none; fill-opacity:0; stroke-width: 2; stroke: #000000" x="-2262.89" y="-1615.8" width="42.075" height="87.8"/>
    <text font-size="12.8" style="fill: #000000;text-anchor:middle;font-family:sans-serif;font-style:normal;font-weight:normal" x="-2241.86" y="-1568">
      <tspan x="-2241.86" y="-1568">MA</tspan>
    </text>
  </g>
  <g>
    <rect style="fill: none; fill-opacity:0; stroke-width: 2; stroke: #000000" x="-2241.89" y="-1365.8" width="42.05" height="64.3998"/>
    <text font-size="12.8" style="fill: #000000;text-anchor:middle;font-family:sans-serif;font-style:normal;font-weight:normal" x="-2220.87" y="-1329.7">
      <tspan x="-2220.87" y="-1329.7">2</tspan>
    </text>
  </g>
  <g>
    <rect style="fill: none; fill-opacity:0; stroke-width: 2; stroke: #000000" x="-2241.89" y="-1300.8" width="42.075" height="87.8"/>
    <text font-size="12.8" style="fill: #000000;text-anchor:middle;font-family:sans-serif;font-style:normal;font-weight:normal" x="-2220.86" y="-1253">
      <tspan x="-2220.86" y="-1253">TR</tspan>
    </text>
  </g>
  <g>
    <polyline style="fill: none; fill-opacity:0; stroke-width: 2; stroke: #000000" points="-2025.6,-1239.33 -1897.5,-1239.33 -1897.5,-1785.8 -1779.13,-1785.8 "/>
    <polygon style="fill: #000000" points="-1771.63,-1785.8 -1781.63,-1780.8 -1779.13,-1785.8 -1781.63,-1790.8 "/>
    <polygon style="fill: none; fill-opacity:0; stroke-width: 2; stroke: #000000" points="-1771.63,-1785.8 -1781.63,-1780.8 -1779.13,-1785.8 -1781.63,-1790.8 "/>
  </g>
  <g>
    <rect style="fill: none; fill-opacity:0; stroke-width: 2; stroke: #000000" x="-2357.19" y="-1872.8" width="550.5" height="763.8"/>
    <text font-size="12.8" style="fill: #000000;text-anchor:middle;font-family:sans-serif;font-style:normal;font-weight:normal" x="-2081.94" y="-1487">
      <tspan x="-2081.94" y="-1487"></tspan>
    </text>
  </g>
  <g>
    <rect style="fill: none; fill-opacity:0; stroke-width: 2; stroke: #000000" x="-2356.89" y="-1872.8" width="550.2" height="38"/>
    <text font-size="12.8" style="fill: #000000;text-anchor:middle;font-family:sans-serif;font-style:normal;font-weight:normal" x="-2081.79" y="-1849.9">
      <tspan x="-2081.79" y="-1849.9">Caisse</tspan>
    </text>
  </g>
  <g>
    <rect style="fill: none; fill-opacity:0; stroke-width: 2.35099e-37; stroke: #000000" x="-1087.87" y="-1181.8" width="140.05" height="38"/>
    <text font-size="12.8" style="fill: #000000;text-anchor:middle;font-family:sans-serif;font-style:normal;font-weight:normal" x="-1017.84" y="-1158.9">
      <tspan x="-1017.84" y="-1158.9">bon de commande</tspan>
    </text>
  </g>
  <g>
    <line style="fill: none; fill-opacity:0; stroke-width: 2; stroke: #000000" x1="-1018.65" y1="-1250.47" x2="-1017.6" y2="-1192.52"/>
    <polygon style="fill: #000000" points="-1017.46,-1185.02 -1022.64,-1194.92 -1017.6,-1192.52 -1012.64,-1195.11 "/>
    <polygon style="fill: none; fill-opacity:0; stroke-width: 2; stroke: #000000" points="-1017.46,-1185.02 -1022.64,-1194.92 -1017.6,-1192.52 -1012.64,-1195.11 "/>
  </g>
</svg>
