<?xml version="1.0" encoding="UTF-8" standalone="no"?>
<!DOCTYPE svg PUBLIC "-//W3C//DTD SVG 1.0//EN" "http://www.w3.org/TR/2001/PR-SVG-20010719/DTD/svg10.dtd">
<svg width="59cm" height="23cm" viewBox="-167 2 1169 441" xmlns="http://www.w3.org/2000/svg" xmlns:xlink="http://www.w3.org/1999/xlink">
  <g>
    <rect style="fill: none; fill-opacity:0; stroke-width: 2; stroke: #000000" x="-165.8" y="5.8" width="264" height="436.333"/>
    <text font-size="12.8" style="fill: #000000;text-anchor:middle;font-family:sans-serif;font-style:normal;font-weight:normal" x="-33.8" y="227.867">
      <tspan x="-33.8" y="227.867"></tspan>
    </text>
  </g>
  <g>
    <rect style="fill: none; fill-opacity:0; stroke-width: 2; stroke: #000000" x="736.533" y="4.46667" width="264" height="436.333"/>
    <text font-size="12.8" style="fill: #000000;text-anchor:middle;font-family:sans-serif;font-style:normal;font-weight:normal" x="868.533" y="226.533">
      <tspan x="868.533" y="226.533"></tspan>
    </text>
  </g>
  <g>
    <polyline style="fill: none; fill-opacity:0; stroke-width: 2; stroke: #000000" points="222.742,98.8667 283.712,98.8667 283.712,129.131 "/>
    <polygon style="fill: #000000" points="283.712,136.631 278.712,126.631 283.712,129.131 288.712,126.631 "/>
    <polygon style="fill: none; fill-opacity:0; stroke-width: 2; stroke: #000000" points="283.712,136.631 278.712,126.631 283.712,129.131 288.712,126.631 "/>
  </g>
  <g>
    <path style="fill: none; fill-opacity:0; stroke-width: 2; stroke: #000000" d="M 265.275 138.867 L 339.025,138.867 L 339.025,170.867 L 302.15,178.867 L 265.275,170.867 L 265.275,138.867"/>
    <text font-size="12.8" style="fill: #000000;text-anchor:middle;font-family:sans-serif;font-style:normal;font-weight:normal" x="302.15" y="158.867">
      <tspan x="302.15" y="158.867"></tspan>
    </text>
  </g>
  <g>
    <rect style="fill: none; fill-opacity:0; stroke-width: 2.35099e-37; stroke: #000000" x="161.467" y="60.8667" width="122.55" height="38"/>
    <text font-size="12.8" style="fill: #000000;text-anchor:middle;font-family:sans-serif;font-style:normal;font-weight:normal" x="222.742" y="83.7667">
      <tspan x="222.742" y="83.7667">nouvel employé</tspan>
    </text>
  </g>
  <g>
    <rect style="fill: none; fill-opacity:0; stroke-width: 2; stroke: #000000" x="220.817" y="181.067" width="151.533" height="138.267"/>
    <text font-size="12.8" style="fill: #000000;text-anchor:middle;font-family:sans-serif;font-style:normal;font-weight:normal" x="296.583" y="246.1">
      <tspan x="296.583" y="246.1">Enregistrer </tspan>
      <tspan x="296.583" y="262.1">informations</tspan>
    </text>
  </g>
  <g>
    <rect style="fill: none; fill-opacity:0; stroke-width: 2.35099e-37; stroke: #000000" x="226.275" y="380.867" width="141.05" height="38"/>
    <text font-size="12.8" style="fill: #000000;text-anchor:middle;font-family:sans-serif;font-style:normal;font-weight:normal" x="296.8" y="403.767">
      <tspan x="296.8" y="403.767">nouveau contrat</tspan>
    </text>
  </g>
  <g>
    <line style="fill: none; fill-opacity:0; stroke-width: 2; stroke: #000000" x1="296.583" y1="319.333" x2="296.766" y2="371.131"/>
    <polygon style="fill: #000000" points="296.792,378.631 291.757,368.649 296.766,371.131 301.757,368.614 "/>
    <polygon style="fill: none; fill-opacity:0; stroke-width: 2; stroke: #000000" points="296.792,378.631 291.757,368.649 296.766,371.131 301.757,368.614 "/>
  </g>
  <g>
    <rect style="fill: none; fill-opacity:0; stroke-width: 2; stroke: #000000" x="179.45" y="181.133" width="41.15" height="64"/>
    <text font-size="12.8" style="fill: #000000;text-anchor:middle;font-family:sans-serif;font-style:normal;font-weight:normal" x="200.025" y="217.033">
      <tspan x="200.025" y="217.033">1</tspan>
    </text>
  </g>
  <g>
    <rect style="fill: none; fill-opacity:0; stroke-width: 2; stroke: #000000" x="179.133" y="245.233" width="41.8" height="73.9"/>
    <text font-size="12.8" style="fill: #000000;text-anchor:middle;font-family:sans-serif;font-style:normal;font-weight:normal" x="200.033" y="286.083">
      <tspan x="200.033" y="286.083">MA</tspan>
    </text>
  </g>
  <g>
    <polyline style="fill: none; fill-opacity:0; stroke-width: 2; stroke: #000000" points="524.475,100.133 585.445,100.133 585.445,130.397 "/>
    <polygon style="fill: #000000" points="585.445,137.897 580.445,127.897 585.445,130.397 590.445,127.897 "/>
    <polygon style="fill: none; fill-opacity:0; stroke-width: 2; stroke: #000000" points="585.445,137.897 580.445,127.897 585.445,130.397 590.445,127.897 "/>
  </g>
  <g>
    <path style="fill: none; fill-opacity:0; stroke-width: 2; stroke: #000000" d="M 567.008 140.133 L 640.758,140.133 L 640.758,172.133 L 603.883,180.133 L 567.008,172.133 L 567.008,140.133"/>
    <text font-size="12.8" style="fill: #000000;text-anchor:middle;font-family:sans-serif;font-style:normal;font-weight:normal" x="603.883" y="160.133">
      <tspan x="603.883" y="160.133"></tspan>
    </text>
  </g>
  <g>
    <rect style="fill: none; fill-opacity:0; stroke-width: 2.35099e-37; stroke: #000000" x="463.2" y="62.1333" width="122.55" height="38"/>
    <text font-size="12.8" style="fill: #000000;text-anchor:middle;font-family:sans-serif;font-style:normal;font-weight:normal" x="524.475" y="85.0333">
      <tspan x="524.475" y="85.0333">jour de paye</tspan>
    </text>
  </g>
  <g>
    <rect style="fill: none; fill-opacity:0; stroke-width: 2; stroke: #000000" x="522.55" y="182.333" width="151.533" height="138.267"/>
    <text font-size="12.8" style="fill: #000000;text-anchor:middle;font-family:sans-serif;font-style:normal;font-weight:normal" x="598.317" y="239.367">
      <tspan x="598.317" y="239.367">Calculer salaire</tspan>
      <tspan x="598.317" y="255.367">Calculer prime</tspan>
      <tspan x="598.317" y="271.367">Calculer impôts</tspan>
    </text>
  </g>
  <g>
    <rect style="fill: none; fill-opacity:0; stroke-width: 2.35099e-37; stroke: #000000" x="528.009" y="382.134" width="141.05" height="38"/>
    <text font-size="12.8" style="fill: #000000;text-anchor:middle;font-family:sans-serif;font-style:normal;font-weight:normal" x="598.534" y="405.034">
      <tspan x="598.534" y="405.034">fiche de paye</tspan>
    </text>
  </g>
  <g>
    <line style="fill: none; fill-opacity:0; stroke-width: 2; stroke: #000000" x1="598.317" y1="320.6" x2="598.499" y2="372.398"/>
    <polygon style="fill: #000000" points="598.526,379.898 593.491,369.916 598.499,372.398 603.49,369.88 "/>
    <polygon style="fill: none; fill-opacity:0; stroke-width: 2; stroke: #000000" points="598.526,379.898 593.491,369.916 598.499,372.398 603.49,369.88 "/>
  </g>
  <g>
    <rect style="fill: none; fill-opacity:0; stroke-width: 2; stroke: #000000" x="480.667" y="182.4" width="42.3333" height="64"/>
    <text font-size="12.8" style="fill: #000000;text-anchor:middle;font-family:sans-serif;font-style:normal;font-weight:normal" x="501.833" y="218.3">
      <tspan x="501.833" y="218.3">1</tspan>
    </text>
  </g>
  <g>
    <rect style="fill: none; fill-opacity:0; stroke-width: 2; stroke: #000000" x="480.867" y="246.5" width="41.8" height="73.9"/>
    <text font-size="12.8" style="fill: #000000;text-anchor:middle;font-family:sans-serif;font-style:normal;font-weight:normal" x="501.767" y="287.35">
      <tspan x="501.767" y="287.35">TD</tspan>
    </text>
  </g>
  <g>
    <polyline style="fill: none; fill-opacity:0; stroke-width: 2; stroke: #000000" points="827.142,99.4667 888.112,99.4667 888.112,129.731 "/>
    <polygon style="fill: #000000" points="888.112,137.231 883.112,127.231 888.112,129.731 893.112,127.231 "/>
    <polygon style="fill: none; fill-opacity:0; stroke-width: 2; stroke: #000000" points="888.112,137.231 883.112,127.231 888.112,129.731 893.112,127.231 "/>
  </g>
  <g>
    <path style="fill: none; fill-opacity:0; stroke-width: 2; stroke: #000000" d="M 869.675 139.467 L 943.425,139.467 L 943.425,171.467 L 906.55,179.467 L 869.675,171.467 L 869.675,139.467"/>
    <text font-size="12.8" style="fill: #000000;text-anchor:middle;font-family:sans-serif;font-style:normal;font-weight:normal" x="906.55" y="159.467">
      <tspan x="906.55" y="159.467"></tspan>
    </text>
  </g>
  <g>
    <rect style="fill: none; fill-opacity:0; stroke-width: 2.35099e-37; stroke: #000000" x="759.217" y="61.4667" width="135.85" height="38"/>
    <text font-size="12.8" style="fill: #000000;text-anchor:middle;font-family:sans-serif;font-style:normal;font-weight:normal" x="827.142" y="84.3667">
      <tspan x="827.142" y="84.3667">demande de bilan</tspan>
    </text>
  </g>
  <g>
    <rect style="fill: none; fill-opacity:0; stroke-width: 2; stroke: #000000" x="825.108" y="181.667" width="155.75" height="138.267"/>
    <text font-size="12.8" style="fill: #000000;text-anchor:middle;font-family:sans-serif;font-style:normal;font-weight:normal" x="902.983" y="238.7">
      <tspan x="902.983" y="238.7">Compter factures</tspan>
      <tspan x="902.983" y="254.7">Compter salaires</tspan>
      <tspan x="902.983" y="270.7">Compter ventes</tspan>
    </text>
  </g>
  <g>
    <rect style="fill: none; fill-opacity:0; stroke-width: 2.35099e-37; stroke: #000000" x="832.675" y="381.467" width="141.05" height="38"/>
    <text font-size="12.8" style="fill: #000000;text-anchor:middle;font-family:sans-serif;font-style:normal;font-weight:normal" x="903.2" y="404.367">
      <tspan x="903.2" y="404.367">bilan</tspan>
    </text>
  </g>
  <g>
    <line style="fill: none; fill-opacity:0; stroke-width: 2; stroke: #000000" x1="902.983" y1="319.933" x2="903.166" y2="371.731"/>
    <polygon style="fill: #000000" points="903.192,379.231 898.157,369.249 903.166,371.731 908.157,369.214 "/>
    <polygon style="fill: none; fill-opacity:0; stroke-width: 2; stroke: #000000" points="903.192,379.231 898.157,369.249 903.166,371.731 908.157,369.214 "/>
  </g>
  <g>
    <rect style="fill: none; fill-opacity:0; stroke-width: 2; stroke: #000000" x="783.333" y="181.733" width="42.3333" height="64"/>
    <text font-size="12.8" style="fill: #000000;text-anchor:middle;font-family:sans-serif;font-style:normal;font-weight:normal" x="804.5" y="217.633">
      <tspan x="804.5" y="217.633">1</tspan>
    </text>
  </g>
  <g>
    <rect style="fill: none; fill-opacity:0; stroke-width: 2; stroke: #000000" x="783.533" y="245.833" width="41.8" height="73.9"/>
    <text font-size="12.8" style="fill: #000000;text-anchor:middle;font-family:sans-serif;font-style:normal;font-weight:normal" x="804.433" y="286.683">
      <tspan x="804.433" y="286.683">TR</tspan>
    </text>
  </g>
  <g>
    <rect style="fill: none; fill-opacity:0; stroke-width: 2; stroke: #000000" x="136.867" y="3.8" width="264" height="436.333"/>
    <text font-size="12.8" style="fill: #000000;text-anchor:middle;font-family:sans-serif;font-style:normal;font-weight:normal" x="268.867" y="225.867">
      <tspan x="268.867" y="225.867"></tspan>
    </text>
  </g>
  <g>
    <rect style="fill: none; fill-opacity:0; stroke-width: 2; stroke: #000000" x="434.867" y="4.46667" width="264" height="436.333"/>
    <text font-size="12.8" style="fill: #000000;text-anchor:middle;font-family:sans-serif;font-style:normal;font-weight:normal" x="566.867" y="226.533">
      <tspan x="566.867" y="226.533"></tspan>
    </text>
  </g>
  <g>
    <rect style="fill: none; fill-opacity:0; stroke-width: 2; stroke: #000000" x="137.2" y="3.8" width="263.825" height="38"/>
    <text font-size="12.8" style="fill: #000000;text-anchor:middle;font-family:sans-serif;font-style:normal;font-weight:normal" x="269.113" y="26.7">
      <tspan x="269.113" y="26.7">Trésorerie</tspan>
    </text>
  </g>
  <g>
    <rect style="fill: none; fill-opacity:0; stroke-width: 2; stroke: #000000" x="435.2" y="4.46667" width="263.825" height="38"/>
    <text font-size="12.8" style="fill: #000000;text-anchor:middle;font-family:sans-serif;font-style:normal;font-weight:normal" x="567.113" y="27.3667">
      <tspan x="567.113" y="27.3667">Trésorerie</tspan>
    </text>
  </g>
  <g>
    <rect style="fill: none; fill-opacity:0; stroke-width: 2; stroke: #000000" x="736.533" y="4.46667" width="263.825" height="38"/>
    <text font-size="12.8" style="fill: #000000;text-anchor:middle;font-family:sans-serif;font-style:normal;font-weight:normal" x="868.446" y="27.3667">
      <tspan x="868.446" y="27.3667">Trésorerie</tspan>
    </text>
  </g>
  <g>
    <polyline style="fill: none; fill-opacity:0; stroke-width: 2; stroke: #000000" points="-79.925,100.867 -18.9545,100.867 -18.9545,131.131 "/>
    <polygon style="fill: #000000" points="-18.9545,138.631 -23.9545,128.631 -18.9545,131.131 -13.9545,128.631 "/>
    <polygon style="fill: none; fill-opacity:0; stroke-width: 2; stroke: #000000" points="-18.9545,138.631 -23.9545,128.631 -18.9545,131.131 -13.9545,128.631 "/>
  </g>
  <g>
    <path style="fill: none; fill-opacity:0; stroke-width: 2; stroke: #000000" d="M -37.392 140.867 L 36.358,140.867 L 36.358,172.867 L -0.517,180.867 L -37.392,172.867 L -37.392,140.867"/>
    <text font-size="12.8" style="fill: #000000;text-anchor:middle;font-family:sans-serif;font-style:normal;font-weight:normal" x="-0.517" y="160.867">
      <tspan x="-0.517" y="160.867"></tspan>
    </text>
  </g>
  <g>
    <rect style="fill: none; fill-opacity:0; stroke-width: 2.35099e-37; stroke: #000000" x="-141.2" y="62.8667" width="122.55" height="38"/>
    <text font-size="12.8" style="fill: #000000;text-anchor:middle;font-family:sans-serif;font-style:normal;font-weight:normal" x="-79.925" y="85.7667">
      <tspan x="-79.925" y="85.7667">facture</tspan>
    </text>
  </g>
  <g>
    <rect style="fill: none; fill-opacity:0; stroke-width: 2; stroke: #000000" x="-81.85" y="183.067" width="151.533" height="138.267"/>
    <text font-size="12.8" style="fill: #000000;text-anchor:middle;font-family:sans-serif;font-style:normal;font-weight:normal" x="-6.08333" y="240.1">
      <tspan x="-6.08333" y="240.1">Enregistrer </tspan>
      <tspan x="-6.08333" y="256.1">facture</tspan>
      <tspan x="-6.08333" y="272.1">Payer facture</tspan>
    </text>
  </g>
  <g>
    <rect style="fill: none; fill-opacity:0; stroke-width: 2.35099e-37; stroke: #000000" x="-76.3913" y="382.867" width="141.05" height="38"/>
    <text font-size="12.8" style="fill: #000000;text-anchor:middle;font-family:sans-serif;font-style:normal;font-weight:normal" x="-5.86633" y="405.767">
      <tspan x="-5.86633" y="405.767">comptes à jour</tspan>
    </text>
  </g>
  <g>
    <line style="fill: none; fill-opacity:0; stroke-width: 2; stroke: #000000" x1="-6.08333" y1="321.333" x2="-5.90067" y2="373.131"/>
    <polygon style="fill: #000000" points="-5.87422,380.631 -10.9095,370.649 -5.90067,373.131 -0.909515,370.614 "/>
    <polygon style="fill: none; fill-opacity:0; stroke-width: 2; stroke: #000000" points="-5.87422,380.631 -10.9095,370.649 -5.90067,373.131 -0.909515,370.614 "/>
  </g>
  <g>
    <rect style="fill: none; fill-opacity:0; stroke-width: 2; stroke: #000000" x="-123.667" y="183.133" width="42.2667" height="64"/>
    <text font-size="12.8" style="fill: #000000;text-anchor:middle;font-family:sans-serif;font-style:normal;font-weight:normal" x="-102.533" y="219.033">
      <tspan x="-102.533" y="219.033">1</tspan>
    </text>
  </g>
  <g>
    <rect style="fill: none; fill-opacity:0; stroke-width: 2; stroke: #000000" x="-123.533" y="247.233" width="41.8" height="73.9"/>
    <text font-size="12.8" style="fill: #000000;text-anchor:middle;font-family:sans-serif;font-style:normal;font-weight:normal" x="-102.633" y="288.083">
      <tspan x="-102.633" y="288.083">MA</tspan>
    </text>
  </g>
  <g>
    <rect style="fill: none; fill-opacity:0; stroke-width: 2; stroke: #000000" x="-165.467" y="5.8" width="263.825" height="38"/>
    <text font-size="12.8" style="fill: #000000;text-anchor:middle;font-family:sans-serif;font-style:normal;font-weight:normal" x="-33.5542" y="28.7">
      <tspan x="-33.5542" y="28.7">Trésorerie</tspan>
    </text>
  </g>
</svg>
