<?xml version="1.0" encoding="UTF-8" standalone="no"?>
<!DOCTYPE svg PUBLIC "-//W3C//DTD SVG 1.0//EN" "http://www.w3.org/TR/2001/PR-SVG-20010719/DTD/svg10.dtd">
<svg width="30cm" height="17cm" viewBox="161 604 582 339" xmlns="http://www.w3.org/2000/svg" xmlns:xlink="http://www.w3.org/1999/xlink">
  <g>
    <rect style="fill: #81d8d0" x="223.026" y="604.2" width="110.7" height="18"/>
    <rect style="fill: none; fill-opacity:0; stroke-width: 2; stroke: #000000" x="223.026" y="604.2" width="110.7" height="18"/>
    <text font-size="11.2" style="fill: #000000;text-anchor:middle;font-family:sans-serif;font-style:normal;font-weight:700" x="278.376" y="618.2">Ticket</text>
    <rect style="fill: #81d8d0" x="223.026" y="622.2" width="110.7" height="36"/>
    <rect style="fill: none; fill-opacity:0; stroke-width: 2; stroke: #000000" x="223.026" y="622.2" width="110.7" height="36"/>
    <polygon style="fill: #000000" points="226.026,632.2 228.026,635.2 230.026,632.2 228.026,629.2 "/>
    <text font-size="12.8" style="fill: #000000;text-anchor:start;font-family:monospace;font-style:normal;font-weight:normal" x="232.026" y="638.2">ref-ticket</text>
    <line style="fill: none; fill-opacity:0; stroke-width: 1; stroke: #000000" x1="232.026" y1="639.8" x2="326.726" y2="639.8"/>
    <ellipse style="fill: none; fill-opacity:0; stroke-width: 0.2; stroke: #000000" cx="228.026" cy="648.2" rx="2" ry="2"/>
    <text font-size="12.8" style="fill: #000000;text-anchor:start;font-family:monospace;font-style:normal;font-weight:normal" x="232.026" y="654.2">date-ticket</text>
  </g>
  <g>
    <rect style="fill: #81d8d0" x="196.076" y="873.2" width="164.6" height="18"/>
    <rect style="fill: none; fill-opacity:0; stroke-width: 2; stroke: #000000" x="196.076" y="873.2" width="164.6" height="18"/>
    <text font-size="11.2" style="fill: #000000;text-anchor:middle;font-family:sans-serif;font-style:normal;font-weight:700" x="278.376" y="887.2">Produit vendu</text>
    <rect style="fill: #81d8d0" x="196.076" y="891.2" width="164.6" height="52"/>
    <rect style="fill: none; fill-opacity:0; stroke-width: 2; stroke: #000000" x="196.076" y="891.2" width="164.6" height="52"/>
    <polygon style="fill: #000000" points="199.076,901.2 201.076,904.2 203.076,901.2 201.076,898.2 "/>
    <text font-size="12.8" style="fill: #000000;text-anchor:start;font-family:monospace;font-style:normal;font-weight:normal" x="205.076" y="907.2">id-produit-vendu</text>
    <line style="fill: none; fill-opacity:0; stroke-width: 1; stroke: #000000" x1="205.076" y1="908.8" x2="353.676" y2="908.8"/>
    <ellipse style="fill: none; fill-opacity:0; stroke-width: 0.2; stroke: #000000" cx="201.076" cy="917.2" rx="2" ry="2"/>
    <text font-size="12.8" style="fill: #000000;text-anchor:start;font-family:monospace;font-style:normal;font-weight:normal" x="205.076" y="923.2">nom-produit-vendu</text>
    <ellipse style="fill: none; fill-opacity:0; stroke-width: 0.2; stroke: #000000" cx="201.076" cy="933.2" rx="2" ry="2"/>
    <text font-size="12.8" style="fill: #000000;text-anchor:start;font-family:monospace;font-style:normal;font-weight:normal" x="205.076" y="939.2">prix-produit-vendu</text>
  </g>
  <g>
    <path style="fill: none; fill-opacity:0; stroke-width: 2; stroke: #000000" d="M 201.325 735.2 L 355.425,735.2 C 376.702,735.2 393.95,747.288 393.95,762.2 C 393.95,777.112 376.702,789.2 355.425,789.2 L 201.325,789.2 C 180.048,789.2 162.8,777.112 162.8,762.2 C 162.8,747.288 180.048,735.2 201.325,735.2"/>
    <text font-size="12.8" style="fill: #000000;text-anchor:middle;font-family:sans-serif;font-style:normal;font-weight:normal" x="278.375" y="750.2">
      <tspan x="278.375" y="750.2">Vendre</tspan>
      <tspan x="278.375" y="766.2"></tspan>
      <tspan x="278.375" y="782.2">quantité-produit-vendu</tspan>
    </text>
  </g>
  <g>
    <polyline style="fill: none; fill-opacity:0; stroke-width: 2; stroke: #000000" points="278.376,658.2 278.376,696.7 278.375,696.7 278.375,735.2 "/>
    <text font-size="9.6" style="fill: #000000;text-anchor:start;font-family:monospace;font-style:normal;font-weight:normal" x="282.376" y="670.2">1,n</text>
  </g>
  <g>
    <polyline style="fill: none; fill-opacity:0; stroke-width: 2; stroke: #000000" points="278.376,789.2 278.528,789.2 278.528,873.2 278.376,873.2 "/>
    <text font-size="9.6" style="fill: #000000;text-anchor:start;font-family:monospace;font-style:normal;font-weight:normal" x="282.376" y="869.2">0,n</text>
  </g>
  <line style="fill: none; fill-opacity:0; stroke-width: 2; stroke: #000000" x1="162.8" y1="762.2" x2="393.95" y2="762.2"/>
  <g>
    <path style="fill: none; fill-opacity:0; stroke-width: 2; stroke: #000000" d="M 475.1 874.2 L 637.65,874.2 C 660.093,874.2 678.287,886.288 678.287,901.2 C 678.287,916.112 660.093,928.2 637.65,928.2 L 475.1,928.2 C 452.656,928.2 434.462,916.112 434.462,901.2 C 434.462,886.288 452.656,874.2 475.1,874.2"/>
    <text font-size="12.8" style="fill: #000000;text-anchor:middle;font-family:sans-serif;font-style:normal;font-weight:normal" x="556.375" y="889.2">
      <tspan x="556.375" y="889.2">Fournir</tspan>
      <tspan x="556.375" y="905.2"></tspan>
      <tspan x="556.375" y="921.2">quantité-produit-fourni</tspan>
    </text>
  </g>
  <g>
    <rect style="fill: #81d8d0" x="469.8" y="774.2" width="172.3" height="18"/>
    <rect style="fill: none; fill-opacity:0; stroke-width: 2; stroke: #000000" x="469.8" y="774.2" width="172.3" height="18"/>
    <text font-size="11.2" style="fill: #000000;text-anchor:middle;font-family:sans-serif;font-style:normal;font-weight:700" x="555.95" y="788.2">Ravitaillement</text>
    <rect style="fill: #81d8d0" x="469.8" y="792.2" width="172.3" height="36"/>
    <rect style="fill: none; fill-opacity:0; stroke-width: 2; stroke: #000000" x="469.8" y="792.2" width="172.3" height="36"/>
    <polygon style="fill: #000000" points="472.8,802.2 474.8,805.2 476.8,802.2 474.8,799.2 "/>
    <text font-size="12.8" style="fill: #000000;text-anchor:start;font-family:monospace;font-style:normal;font-weight:normal" x="478.8" y="808.2">id-ravitaillement</text>
    <line style="fill: none; fill-opacity:0; stroke-width: 1; stroke: #000000" x1="478.8" y1="809.8" x2="635.1" y2="809.8"/>
    <ellipse style="fill: none; fill-opacity:0; stroke-width: 0.2; stroke: #000000" cx="474.8" cy="818.2" rx="2" ry="2"/>
    <text font-size="12.8" style="fill: #000000;text-anchor:start;font-family:monospace;font-style:normal;font-weight:normal" x="478.8" y="824.2">date-ravitaillement</text>
  </g>
  <g>
    <polyline style="fill: none; fill-opacity:0; stroke-width: 2; stroke: #000000" points="555.95,828.2 556,828.2 556,874.2 557.376,874.2 "/>
    <text font-size="9.6" style="fill: #000000;text-anchor:end;font-family:monospace;font-style:normal;font-weight:normal" x="553.376" y="870.2">1,n</text>
  </g>
  <g>
    <polyline style="fill: none; fill-opacity:0; stroke-width: 2; stroke: #000000" points="434.462,901.2 398,901.2 398,901.2 360.676,901.2 "/>
    <text font-size="9.6" style="fill: #000000;text-anchor:start;font-family:monospace;font-style:normal;font-weight:normal" x="364.676" y="897.2">1,n</text>
  </g>
  <line style="fill: none; fill-opacity:0; stroke-width: 2; stroke: #000000" x1="434.462" y1="901.2" x2="678.288" y2="901.2"/>
  <g>
    <path style="fill: none; fill-opacity:0; stroke-width: 2; stroke: #000000" d="M 517 700 L 593.8,700 C 604.404,700 613,709.561 613,721.355 C 613,733.148 604.404,742.709 593.8,742.709 L 517,742.709 C 506.396,742.709 497.8,733.148 497.8,721.355 C 497.8,709.561 506.396,700 517,700"/>
    <text font-size="12.8" style="fill: #000000;text-anchor:middle;font-family:sans-serif;font-style:normal;font-weight:normal" x="555.4" y="725.355">
      <tspan x="555.4" y="725.355">Ravitailler</tspan>
    </text>
  </g>
  <g>
    <rect style="fill: #81d8d0" x="609.8" y="608.2" width="133.8" height="18"/>
    <rect style="fill: none; fill-opacity:0; stroke-width: 2; stroke: #000000" x="609.8" y="608.2" width="133.8" height="18"/>
    <text font-size="11.2" style="fill: #000000;text-anchor:middle;font-family:sans-serif;font-style:normal;font-weight:700" x="676.7" y="622.2">Stand</text>
    <rect style="fill: #81d8d0" x="609.8" y="626.2" width="133.8" height="52"/>
    <rect style="fill: none; fill-opacity:0; stroke-width: 2; stroke: #000000" x="609.8" y="626.2" width="133.8" height="52"/>
    <polygon style="fill: #000000" points="612.8,636.2 614.8,639.2 616.8,636.2 614.8,633.2 "/>
    <text font-size="12.8" style="fill: #000000;text-anchor:start;font-family:monospace;font-style:normal;font-weight:normal" x="618.8" y="642.2">id-stand</text>
    <line style="fill: none; fill-opacity:0; stroke-width: 1; stroke: #000000" x1="618.8" y1="643.8" x2="736.6" y2="643.8"/>
    <ellipse style="fill: none; fill-opacity:0; stroke-width: 0.2; stroke: #000000" cx="614.8" cy="652.2" rx="2" ry="2"/>
    <text font-size="12.8" style="fill: #000000;text-anchor:start;font-family:monospace;font-style:normal;font-weight:normal" x="618.8" y="658.2">nom-stand</text>
    <ellipse style="fill: none; fill-opacity:0; stroke-width: 0.2; stroke: #000000" cx="614.8" cy="668.2" rx="2" ry="2"/>
    <text font-size="12.8" style="fill: #000000;text-anchor:start;font-family:monospace;font-style:normal;font-weight:normal" x="618.8" y="674.2">location-stand</text>
  </g>
  <g>
    <polyline style="fill: none; fill-opacity:0; stroke-width: 2; stroke: #000000" points="555.4,742.709 556,742.709 556,774.2 555.95,774.2 "/>
    <text font-size="9.6" style="fill: #000000;text-anchor:start;font-family:monospace;font-style:normal;font-weight:normal" x="559.95" y="770.2">1,1</text>
  </g>
  <g>
    <polyline style="fill: none; fill-opacity:0; stroke-width: 2; stroke: #000000" points="609.8,652.2 555,652.2 555,700 555.4,700 "/>
    <text font-size="9.6" style="fill: #000000;text-anchor:end;font-family:monospace;font-style:normal;font-weight:normal" x="605.8" y="648.2">0,n</text>
  </g>
</svg>
