<svg xmlns="http://www.w3.org/2000/svg" xmlns:xlink="http://www.w3.org/1999/xlink" version="1.1" x="0px" y="0px" viewBox="0 0 48 60" enable-background="new 0 0 48 48" xml:space="preserve"><g><path d="M23.934,41.541c-9.87,0-17.9-7.869-17.9-17.541c0-9.672,8.03-17.541,17.9-17.541c9.87,0,17.9,7.869,17.9,17.541   C41.834,33.672,33.804,41.541,23.934,41.541z M23.934,8.459c-8.767,0-15.9,6.972-15.9,15.541s7.133,15.541,15.9,15.541   s15.9-6.972,15.9-15.541S32.701,8.459,23.934,8.459z"/><path d="M45.328,15.71c-0.382,0-0.745-0.219-0.912-0.589C40.815,7.15,32.732,2,23.824,2C15.249,2,7.293,6.882,3.557,14.438   c-0.245,0.495-0.843,0.698-1.34,0.453c-0.495-0.245-0.698-0.845-0.453-1.34C5.834,5.319,14.494,0,23.824,0   c9.692,0,18.49,5.612,22.414,14.298c0.228,0.503,0.004,1.096-0.499,1.323C45.605,15.682,45.466,15.71,45.328,15.71z"/><path d="M23.824,48c-9.448,0-18.153-5.414-22.178-13.794c-0.239-0.497-0.029-1.095,0.468-1.334   c0.497-0.239,1.095-0.029,1.334,0.469C7.143,41.031,15.14,46,23.824,46c8.551,0,16.254-4.641,20.104-12.11   c0.253-0.492,0.857-0.686,1.347-0.431c0.491,0.253,0.684,0.855,0.431,1.347C41.511,42.944,33.127,48,23.824,48z"/><path d="M23.934,41.541c-5.857,0-10.445-7.705-10.445-17.541S18.077,6.459,23.934,6.459S34.379,14.164,34.379,24   S29.791,41.541,23.934,41.541z M23.934,8.459c-4.578,0-8.445,7.117-8.445,15.541c0,8.424,3.867,15.541,8.445,15.541   S32.379,32.424,32.379,24C32.379,15.576,28.512,8.459,23.934,8.459z"/><path d="M23.933,41.541c-0.552,0-1-0.447-1-1V7.459c0-0.552,0.448-1,1-1s1,0.448,1,1v33.082   C24.934,41.094,24.485,41.541,23.933,41.541z"/><path d="M40.834,25h-33.8c-0.552,0-1-0.447-1-1c0-0.552,0.448-1,1-1h33.8c0.553,0,1,0.448,1,1C41.834,24.553,41.387,25,40.834,25z"/><g><path d="M38.721,17.233H9.147c-0.552,0-1-0.448-1-1s0.448-1,1-1h29.574c0.553,0,1,0.448,1,1S39.273,17.233,38.721,17.233z"/><path d="M38.721,32.77H9.147c-0.552,0-1-0.447-1-1s0.448-1,1-1h29.574c0.553,0,1,0.447,1,1S39.273,32.77,38.721,32.77z"/></g><path d="M45.843,16.22c-0.105,0-0.211-0.017-0.313-0.05l-5.345-1.765c-0.524-0.173-0.81-0.739-0.636-1.263   c0.173-0.524,0.737-0.81,1.263-0.636l4.304,1.421l0.91-3.946c0.124-0.538,0.664-0.871,1.199-0.75   c0.538,0.125,0.874,0.661,0.75,1.199l-1.157,5.015c-0.063,0.274-0.239,0.509-0.484,0.647C46.182,16.177,46.013,16.22,45.843,16.22z   "/><path d="M1.001,38.759c-0.075,0-0.15-0.008-0.226-0.025c-0.539-0.124-0.874-0.661-0.75-1.199l1.157-5.016   c0.063-0.274,0.239-0.509,0.484-0.646c0.245-0.139,0.538-0.167,0.804-0.078l5.344,1.764c0.524,0.173,0.809,0.738,0.636,1.263   c-0.173,0.523-0.738,0.812-1.263,0.636l-4.302-1.42l-0.911,3.947C1.868,38.446,1.456,38.759,1.001,38.759z"/></g><text visibility="hidden" x="0" y="63" fill="#000000" font-size="5px" font-weight="bold" font-family="'Helvetica Neue', Helvetica, Arial-Unicode, Arial, Sans-serif">Created by Creative Stall</text><text visibility="hidden" x="0" y="68" fill="#000000" font-size="5px" font-weight="bold" font-family="'Helvetica Neue', Helvetica, Arial-Unicode, Arial, Sans-serif">from the Noun Project</text></svg>
