<svg xmlns="http://www.w3.org/2000/svg" xmlns:xlink="http://www.w3.org/1999/xlink" version="1.1" x="0px" y="0px" viewBox="0 0 72 90" enable-background="new 0 0 72 72" xml:space="preserve"><g><path fill="#000000" d="M67.3,4.9H4.7c-2.3,0-4.2,1.9-4.2,4.2v39.3c0,2.3,1.9,4.2,4.2,4.2h24.7c0.4,0,0.7,0.3,0.7,0.7v4.4   c0,0.4-0.3,0.7-0.6,0.7C22.2,59.1,17,60.7,17,62.6c0,2.4,8.5,4.4,19,4.4c10.5,0,19-2,19-4.4c0-1.9-5.2-3.5-12.5-4.2   c-0.4,0-0.6-0.3-0.6-0.7v-4.4c0-0.4,0.3-0.7,0.7-0.7h24.7c2.3,0,4.2-1.9,4.2-4.2V9.2C71.5,6.8,69.6,4.9,67.3,4.9z M66.5,45.9   c0,1-0.8,1.8-1.8,1.8H7.3c-1,0-1.8-0.8-1.8-1.8V11.7c0-1,0.8-1.8,1.8-1.8h57.5c1,0,1.8,0.8,1.8,1.8V45.9z"/><path fill="#000000" d="M58.3,15.1c-0.8,0-1.6,0.4-2.1,1.1c-0.9,1-0.9,1.8-0.7,2.5c0,0.1,0,0.2-0.1,0.3l-14.2,14   C41.1,33,41,33.1,40.8,33c-0.3-0.1-0.5-0.1-0.8-0.1c-0.4,0-0.8,0.1-1.2,0.3c-0.1,0.1-0.3,0-0.4-0.1l-7.5-7.2   c-0.1-0.1-0.1-0.2-0.2-0.3c-0.1-1.4-1.2-2.5-2.6-2.6c-0.5,0-1,0.1-1.4,0.4c-1.7,1.2-1.9,2-1.8,2.8c0,0.2,0,0.3-0.1,0.5L14.6,37.3   c-0.1,0.1-0.3,0.2-0.5,0.2c-0.7-0.1-1.5,0-2.5,1c-0.5,0.5-0.8,1.2-0.8,1.8c0,1.8,1.6,3.2,3.5,2.9c0.8-0.1,1.6-0.7,2-1.5   c0.5-0.8,0.5-1.5,0.3-2.2c0-0.1,0-0.3,0.1-0.4l10-10.5c0.1-0.1,0.2-0.1,0.3-0.1c0.3,0.1,0.6,0.2,1,0.2c0.5,0,1-0.1,1.4-0.4   c0.1-0.1,0.2,0,0.3,0l7.4,7.1c0.1,0.1,0.1,0.2,0.1,0.3c0,0.3,0.1,1.1,0.3,1.4c0.5,0.9,1.4,1.5,2.4,1.6c1,0.1,1.9-0.5,2.5-1.2   c0.6-0.8,0.7-1.5,0.6-2.1c0-0.1,0-0.3,0.1-0.3l14.3-14.1c0.1-0.1,0.2-0.1,0.3-0.1c0.7,0.2,1.4,0.1,2.3-0.5c0.8-0.6,1.4-1.5,1.3-2.6   C61.1,16.3,59.9,15.1,58.3,15.1z"/></g><text visibility="hidden" x="0" y="87" fill="#000000" font-size="5px" font-weight="bold" font-family="'Helvetica Neue', Helvetica, Arial-Unicode, Arial, Sans-serif">Created by Creative Stall</text><text visibility="hidden" x="0" y="92" fill="#000000" font-size="5px" font-weight="bold" font-family="'Helvetica Neue', Helvetica, Arial-Unicode, Arial, Sans-serif">from the Noun Project</text></svg>
