<?xml version="1.0" encoding="UTF-8" standalone="no"?>
<!DOCTYPE svg PUBLIC "-//W3C//DTD SVG 1.0//EN" "http://www.w3.org/TR/2001/PR-SVG-20010719/DTD/svg10.dtd">
<svg width="25cm" height="3cm" viewBox="237 107 481 59" xmlns="http://www.w3.org/2000/svg" xmlns:xlink="http://www.w3.org/1999/xlink">
  <g>
    <rect style="fill: none;" x="237.8" y="107.2" width="87.6" height="18"/>
    <rect style="fill: none; fill-opacity:0; stroke-width: 2; stroke: #000000" x="237.8" y="107.2" width="87.6" height="18"/>
    <text font-size="11.2" style="fill: #000000;text-anchor:middle;font-family:sans-serif;font-style:normal;font-weight:700" x="281.6" y="121.2">Livre</text>
    <rect style="fill: none;" x="237.8" y="125.2" width="87.6" height="36"/>
    <rect style="fill: none; fill-opacity:0; stroke-width: 2; stroke: #000000" x="237.8" y="125.2" width="87.6" height="36"/>
    <polygon style="fill: #000000" points="240.8,135.2 242.8,138.2 244.8,135.2 242.8,132.2 "/>
    <text font-size="12.8" style="fill: #000000;text-anchor:start;font-family:monospace;font-style:normal;font-weight:normal" x="246.8" y="141.2">id-livre</text>
    <line style="fill: none; fill-opacity:0; stroke-width: 1; stroke: #000000" x1="246.8" y1="142.8" x2="318.4" y2="142.8"/>
    <ellipse style="fill: none; fill-opacity:0; stroke-width: 0.2; stroke: #000000" cx="242.8" cy="151.2" rx="2" ry="2"/>
    <text font-size="12.8" style="fill: #000000;text-anchor:start;font-family:monospace;font-style:normal;font-weight:normal" x="246.8" y="157.2">titre</text>
  </g>
  <g>
    <rect style="fill: none;" x="615.8" y="108.7" width="103" height="18"/>
    <rect style="fill: none; fill-opacity:0; stroke-width: 2; stroke: #000000" x="615.8" y="108.7" width="103" height="18"/>
    <text font-size="11.2" style="fill: #000000;text-anchor:middle;font-family:sans-serif;font-style:normal;font-weight:700" x="667.3" y="122.7">Éditeur</text>
    <rect style="fill: none;" x="615.8" y="126.7" width="103" height="36"/>
    <rect style="fill: none; fill-opacity:0; stroke-width: 2; stroke: #000000" x="615.8" y="126.7" width="103" height="36"/>
    <polygon style="fill: #000000" points="618.8,136.7 620.8,139.7 622.8,136.7 620.8,133.7 "/>
    <text font-size="12.8" style="fill: #000000;text-anchor:start;font-family:monospace;font-style:normal;font-weight:normal" x="624.8" y="142.7">id-éditeur</text>
    <line style="fill: none; fill-opacity:0; stroke-width: 1; stroke: #000000" x1="624.8" y1="144.3" x2="711.8" y2="144.3"/>
    <ellipse style="fill: none; fill-opacity:0; stroke-width: 0.2; stroke: #000000" cx="620.8" cy="152.7" rx="2" ry="2"/>
    <text font-size="12.8" style="fill: #000000;text-anchor:start;font-family:monospace;font-style:normal;font-weight:normal" x="624.8" y="158.7">nom</text>
  </g>
  <g>
    <polyline style="fill: none; fill-opacity:0; stroke-width: 2; stroke: #000000" points="325.4,135.2 385.5,135.2 385.5,135.2 401.8,135.2 "/>
    <text font-size="9.6" style="fill: #000000;text-anchor:start;font-family:monospace;font-style:normal;font-weight:normal" x="329.4" y="131.2">1,n</text>
  </g>
  <g>
    <polyline style="fill: none; fill-opacity:0; stroke-width: 2; stroke: #000000" points="615.8,136.7 587,136.7 587,136.6 547,136.6 "/>
    <text font-size="9.6" style="fill: #000000;text-anchor:end;font-family:monospace;font-style:normal;font-weight:normal" x="611.8" y="132.7">1,n</text>
  </g>
  <g>
    <path style="fill: none; fill-opacity:0; stroke-width: 2; stroke: #000000" d="M 426 108.2 L 522.8,108.2 C 536.165,108.2 547,120.915 547,136.6 C 547,152.285 536.165,165 522.8,165 L 426,165 C 412.635,165 401.8,152.285 401.8,136.6 C 401.8,120.915 412.635,108.2 426,108.2"/>
    <text font-size="12.8" style="fill: #000000;text-anchor:middle;font-family:sans-serif;font-style:normal;font-weight:normal" x="474.4" y="124.6">
      <tspan x="474.4" y="124.6">Publier</tspan>
      <tspan x="474.4" y="140.6"></tspan>
      <tspan x="474.4" y="156.6">date</tspan>
    </text>
  </g>
  <line style="fill: none; fill-opacity:0; stroke-width: 2; stroke: #000000" x1="403" y1="129" x2="547.5" y2="129"/>
</svg>
