<?xml version="1.0" encoding="UTF-8" standalone="no"?>
<!DOCTYPE svg PUBLIC "-//W3C//DTD SVG 1.0//EN" "http://www.w3.org/TR/2001/PR-SVG-20010719/DTD/svg10.dtd">
<svg width="32cm" height="28cm" viewBox="161 91 639 546" xmlns="http://www.w3.org/2000/svg" xmlns:xlink="http://www.w3.org/1999/xlink">
  <g>
    <rect style="fill: none; fill-opacity:0; stroke-width: 2; stroke: #000000" x="162.8" y="92.2" width="264" height="537.468"/>
    <text font-size="12.8" style="fill: #000000;text-anchor:middle;font-family:sans-serif;font-style:normal;font-weight:normal" x="294.8" y="364.834">
      <tspan x="294.8" y="364.834"></tspan>
    </text>
  </g>
  <g>
    <rect style="fill: none; fill-opacity:0; stroke-width: 2; stroke: #000000" x="426.7" y="92.3" width="264" height="537.368"/>
    <text font-size="12.8" style="fill: #000000;text-anchor:middle;font-family:sans-serif;font-style:normal;font-weight:normal" x="558.7" y="364.884">
      <tspan x="558.7" y="364.884"></tspan>
    </text>
  </g>
  <g>
    <polyline style="fill: none; fill-opacity:0; stroke-width: 2; stroke: #000000" points="203.1,156.4 288.138,156.4 288.138,185.564 "/>
    <polygon style="fill: #000000" points="288.138,193.064 283.138,183.064 288.138,185.564 293.138,183.064 "/>
    <polygon style="fill: none; fill-opacity:0; stroke-width: 2; stroke: #000000" points="288.138,193.064 283.138,183.064 288.138,185.564 293.138,183.064 "/>
  </g>
  <g>
    <polyline style="fill: none; fill-opacity:0; stroke-width: 2; stroke: #000000" points="380.1,157.4 325.012,157.4 325.012,185.564 "/>
    <polygon style="fill: #000000" points="325.012,193.064 320.012,183.064 325.012,185.564 330.012,183.064 "/>
    <polygon style="fill: none; fill-opacity:0; stroke-width: 2; stroke: #000000" points="325.012,193.064 320.012,183.064 325.012,185.564 330.012,183.064 "/>
  </g>
  <g>
    <rect style="fill: none; fill-opacity:0; stroke-width: 2; stroke: #000000" x="248.737" y="225.1" width="124.6" height="99.8"/>
    <text font-size="12.8" style="fill: #000000;text-anchor:middle;font-family:sans-serif;font-style:normal;font-weight:normal" x="311.037" y="262.9">
      <tspan x="311.037" y="262.9">Vérifier</tspan>
      <tspan x="311.037" y="278.9">la</tspan>
      <tspan x="311.037" y="294.9">correspondance</tspan>
    </text>
  </g>
  <g>
    <path style="fill: none; fill-opacity:0; stroke-width: 2; stroke: #000000" d="M 269.7 195.3 L 343.45,195.3 L 343.45,217.3 L 306.575,222.8 L 269.7,217.3 L 269.7,195.3"/>
    <text font-size="12.8" style="fill: #000000;text-anchor:middle;font-family:sans-serif;font-style:normal;font-weight:normal" x="306.575" y="210.3">
      <tspan x="306.575" y="210.3">A et B</tspan>
    </text>
  </g>
  <g>
    <rect style="fill: none; fill-opacity:0; stroke-width: 2; stroke: #000000" x="206.75" y="225.3" width="42.05" height="64.3998"/>
    <text font-size="12.8" style="fill: #000000;text-anchor:middle;font-family:sans-serif;font-style:normal;font-weight:normal" x="227.775" y="261.4">
      <tspan x="227.775" y="261.4">1</tspan>
    </text>
  </g>
  <g>
    <rect style="fill: none; fill-opacity:0; stroke-width: 2; stroke: #000000" x="206.926" y="289.8" width="42.075" height="73.0002"/>
    <text font-size="12.8" style="fill: #000000;text-anchor:middle;font-family:sans-serif;font-style:normal;font-weight:normal" x="227.963" y="330.2">
      <tspan x="227.963" y="330.2">MA</tspan>
    </text>
  </g>
  <g>
    <rect style="fill: none; fill-opacity:0; stroke-width: 2; stroke: #000000" x="162.975" y="92.2" width="263.825" height="38"/>
    <text font-size="12.8" style="fill: #000000;text-anchor:middle;font-family:sans-serif;font-style:normal;font-weight:normal" x="294.888" y="115.1">
      <tspan x="294.888" y="115.1">PC secrétariat RH</tspan>
    </text>
  </g>
  <g>
    <rect style="fill: none; fill-opacity:0; stroke-width: 2; stroke: #000000" x="426.7" y="92.3" width="263.825" height="38"/>
    <text font-size="12.8" style="fill: #000000;text-anchor:middle;font-family:sans-serif;font-style:normal;font-weight:normal" x="558.613" y="115.2">
      <tspan x="558.613" y="115.2">PC direction technique</tspan>
    </text>
  </g>
  <g>
    <polyline style="fill: none; fill-opacity:0; stroke-width: 2; stroke: #000000" points="474.7,364.3 545.262,364.3 545.262,393.564 "/>
    <polygon style="fill: #000000" points="545.262,401.064 540.262,391.064 545.262,393.564 550.262,391.064 "/>
    <polygon style="fill: none; fill-opacity:0; stroke-width: 2; stroke: #000000" points="545.262,401.064 540.262,391.064 545.262,393.564 550.262,391.064 "/>
  </g>
  <g>
    <path style="fill: none; fill-opacity:0; stroke-width: 2; stroke: #000000" d="M 526.7 404.3 L 600.45,404.3 L 600.45,426.3 L 563.575,431.8 L 526.7,426.3 L 526.7,404.3"/>
    <text font-size="12.8" style="fill: #000000;text-anchor:middle;font-family:sans-serif;font-style:normal;font-weight:normal" x="563.575" y="419.3">
      <tspan x="563.575" y="419.3"></tspan>
    </text>
  </g>
  <g>
    <rect style="fill: none; fill-opacity:0; stroke-width: 2.35099e-37; stroke: #000000" x="310.15" y="122.6" width="108.65" height="36"/>
    <text font-size="12.8" style="fill: #000000;text-anchor:middle;font-family:sans-serif;font-style:normal;font-weight:normal" x="364.475" y="144.5">
      <tspan x="364.475" y="144.5">offre d'emploi</tspan>
    </text>
  </g>
  <g>
    <rect style="fill: none; fill-opacity:0; stroke-width: 2.35099e-37; stroke: #000000" x="175.7" y="122.072" width="96.65" height="36"/>
    <text font-size="12.8" style="fill: #000000;text-anchor:middle;font-family:sans-serif;font-style:normal;font-weight:normal" x="224.025" y="143.972">
      <tspan x="224.025" y="143.972">candidature</tspan>
    </text>
  </g>
  <g>
    <rect style="fill: none; fill-opacity:0; stroke-width: 2; stroke: #000000" x="248.65" y="324.9" width="60.95" height="38"/>
    <text font-size="8.28604" style="fill: #000000;text-anchor:middle;font-family:sans-serif;font-style:normal;font-weight:normal" x="279.125" y="346.421">
      <tspan x="279.125" y="346.421">Anomalie</tspan>
    </text>
  </g>
  <g>
    <rect style="fill: none; fill-opacity:0; stroke-width: 2; stroke: #000000" x="310" y="324.9" width="63" height="38"/>
    <text font-size="8.28604" style="fill: #000000;text-anchor:middle;font-family:sans-serif;font-style:normal;font-weight:normal" x="341.5" y="346.421">
      <tspan x="341.5" y="346.421">OK</tspan>
    </text>
  </g>
  <g>
    <line style="fill: none; fill-opacity:0; stroke-width: 2; stroke: #000000" x1="279.125" y1="362.9" x2="277.872" y2="395.671"/>
    <polygon style="fill: #000000" points="277.585,403.166 272.971,392.982 277.872,395.671 282.964,393.364 "/>
    <polygon style="fill: none; fill-opacity:0; stroke-width: 2; stroke: #000000" points="277.585,403.166 272.971,392.982 277.872,395.671 282.964,393.364 "/>
  </g>
  <g>
    <rect style="fill: none; fill-opacity:0; stroke-width: 2.35099e-37; stroke: #000000" x="210.8" y="405.4" width="133.4" height="38"/>
    <text font-size="12.8" style="fill: #000000;text-anchor:middle;font-family:sans-serif;font-style:normal;font-weight:normal" x="277.5" y="428.3">
      <tspan x="277.5" y="428.3">rejet candidature</tspan>
    </text>
  </g>
  <g>
    <line style="fill: none; fill-opacity:0; stroke-width: 2; stroke: #000000" x1="373" y1="343.9" x2="432.414" y2="343.47"/>
    <polygon style="fill: #000000" points="439.914,343.416 429.95,348.488 432.414,343.47 429.878,338.489 "/>
    <polygon style="fill: none; fill-opacity:0; stroke-width: 2; stroke: #000000" points="439.914,343.416 429.95,348.488 432.414,343.47 429.878,338.489 "/>
  </g>
  <g>
    <rect style="fill: none; fill-opacity:0; stroke-width: 2.35099e-37; stroke: #000000" x="442.15" y="317.4" width="104.3" height="52"/>
    <text font-size="12.8" style="fill: #000000;text-anchor:middle;font-family:sans-serif;font-style:normal;font-weight:normal" x="494.3" y="339.3">
      <tspan x="494.3" y="339.3">rdv pour</tspan>
      <tspan x="494.3" y="355.3">entretien</tspan>
    </text>
  </g>
  <g>
    <polyline style="fill: none; fill-opacity:0; stroke-width: 2; stroke: #000000" points="652.948,366.9 583.386,366.9 583.386,394.164 "/>
    <polygon style="fill: #000000" points="583.386,401.664 578.386,391.664 583.386,394.164 588.386,391.664 "/>
    <polygon style="fill: none; fill-opacity:0; stroke-width: 2; stroke: #000000" points="583.386,401.664 578.386,391.664 583.386,394.164 588.386,391.664 "/>
  </g>
  <g>
    <rect style="fill: none; fill-opacity:0; stroke-width: 2.35099e-37; stroke: #000000" x="584.3" y="327.9" width="77.6" height="36"/>
    <text font-size="12.8" style="fill: #000000;text-anchor:middle;font-family:sans-serif;font-style:normal;font-weight:normal" x="623.1" y="349.8">
      <tspan x="623.1" y="349.8">candidat</tspan>
    </text>
  </g>
  <g>
    <rect style="fill: none; fill-opacity:0; stroke-width: 2; stroke: #000000" x="530.45" y="431.8" width="104.475" height="102"/>
    <text font-size="12.8" style="fill: #000000;text-anchor:middle;font-family:sans-serif;font-style:normal;font-weight:normal" x="582.688" y="454.7">
      <tspan x="582.688" y="454.7">Enregistrer</tspan>
      <tspan x="582.688" y="470.7">le</tspan>
      <tspan x="582.688" y="486.7">résultat</tspan>
      <tspan x="582.688" y="502.7">de</tspan>
      <tspan x="582.688" y="518.7">l'entretien</tspan>
    </text>
  </g>
  <g>
    <rect style="fill: none; fill-opacity:0; stroke-width: 2; stroke: #000000" x="488.4" y="433.1" width="42.05" height="64.3998"/>
    <text font-size="12.8" style="fill: #000000;text-anchor:middle;font-family:sans-serif;font-style:normal;font-weight:normal" x="509.425" y="469.2">
      <tspan x="509.425" y="469.2">2</tspan>
    </text>
  </g>
  <g>
    <rect style="fill: none; fill-opacity:0; stroke-width: 2; stroke: #000000" x="487.7" y="497.1" width="41.8" height="73.6685"/>
    <text font-size="12.8" style="fill: #000000;text-anchor:middle;font-family:sans-serif;font-style:normal;font-weight:normal" x="508.6" y="537.834">
      <tspan x="508.6" y="537.834">MA</tspan>
    </text>
  </g>
  <g>
    <rect style="fill: none; fill-opacity:0; stroke-width: 2; stroke: #000000" x="530.65" y="532.7" width="48.25" height="38"/>
    <text font-size="8.28604" style="fill: #000000;text-anchor:middle;font-family:sans-serif;font-style:normal;font-weight:normal" x="554.775" y="554.221">
      <tspan x="554.775" y="554.221">POK</tspan>
    </text>
  </g>
  <g>
    <rect style="fill: none; fill-opacity:0; stroke-width: 2; stroke: #000000" x="578.8" y="532.7" width="56.1" height="38"/>
    <text font-size="8.28604" style="fill: #000000;text-anchor:middle;font-family:sans-serif;font-style:normal;font-weight:normal" x="606.85" y="554.221">
      <tspan x="606.85" y="554.221">OK</tspan>
    </text>
  </g>
  <g>
    <line style="fill: none; fill-opacity:0; stroke-width: 2; stroke: #000000" x1="554.776" y1="570.7" x2="554.661" y2="589.032"/>
    <polygon style="fill: #000000" points="554.614,596.532 549.677,586.501 554.661,589.032 559.677,586.564 "/>
    <polygon style="fill: none; fill-opacity:0; stroke-width: 2; stroke: #000000" points="554.614,596.532 549.677,586.501 554.661,589.032 559.677,586.564 "/>
  </g>
  <g>
    <rect style="fill: none; fill-opacity:0; stroke-width: 2.35099e-37; stroke: #000000" x="487.9" y="598.768" width="133.4" height="38"/>
    <text font-size="12.8" style="fill: #000000;text-anchor:middle;font-family:sans-serif;font-style:normal;font-weight:normal" x="554.6" y="621.668">
      <tspan x="554.6" y="621.668">rejet candidature</tspan>
    </text>
  </g>
  <g>
    <line style="fill: none; fill-opacity:0; stroke-width: 2; stroke: #000000" x1="634.904" y1="551.066" x2="725.168" y2="551.517"/>
    <polygon style="fill: #000000" points="732.668,551.555 722.643,556.505 725.168,551.517 722.693,546.505 "/>
    <polygon style="fill: none; fill-opacity:0; stroke-width: 2; stroke: #000000" points="732.668,551.555 722.643,556.505 725.168,551.517 722.693,546.505 "/>
  </g>
  <g>
    <rect style="fill: none; fill-opacity:0; stroke-width: 2.35099e-37; stroke: #000000" x="698.4" y="532.368" width="101.7" height="38"/>
    <text font-size="12.8" style="fill: #000000;text-anchor:middle;font-family:sans-serif;font-style:normal;font-weight:700" x="749.25" y="555.268">
      <tspan x="749.25" y="555.268">...</tspan>
    </text>
  </g>
  <g>
    <rect style="fill: none; fill-opacity:0; stroke-width: 2.35099e-37; stroke: #000000" x="205.8" y="161" width="28.75" height="36"/>
    <text font-size="12.8" style="fill: #000000;text-anchor:middle;font-family:sans-serif;font-style:normal;font-weight:normal" x="220.175" y="182.9">
      <tspan x="220.175" y="182.9">A</tspan>
    </text>
  </g>
  <g>
    <rect style="fill: none; fill-opacity:0; stroke-width: 2.35099e-37; stroke: #000000" x="350.775" y="159" width="28.8" height="36"/>
    <text font-size="12.8" style="fill: #000000;text-anchor:middle;font-family:sans-serif;font-style:normal;font-weight:normal" x="365.175" y="180.9">
      <tspan x="365.175" y="180.9">B</tspan>
    </text>
  </g>
  <g>
    <rect style="fill: none; fill-opacity:0; stroke-width: 2.35099e-37; stroke: #000000" x="475.8" y="371" width="28.75" height="36"/>
    <text font-size="12.8" style="fill: #000000;text-anchor:middle;font-family:sans-serif;font-style:normal;font-weight:normal" x="490.175" y="392.9">
      <tspan x="490.175" y="392.9">A</tspan>
    </text>
  </g>
  <g>
    <rect style="fill: none; fill-opacity:0; stroke-width: 2.35099e-37; stroke: #000000" x="623.8" y="372" width="28.8" height="36"/>
    <text font-size="12.8" style="fill: #000000;text-anchor:middle;font-family:sans-serif;font-style:normal;font-weight:normal" x="638.2" y="393.9">
      <tspan x="638.2" y="393.9">B</tspan>
    </text>
  </g>
</svg>
