<?xml version="1.0" encoding="UTF-8" standalone="no"?>
<!DOCTYPE svg PUBLIC "-//W3C//DTD SVG 1.0//EN" "http://www.w3.org/TR/2001/PR-SVG-20010719/DTD/svg10.dtd">
<svg width="27cm" height="22cm" viewBox="121 37 530 440" xmlns="http://www.w3.org/2000/svg" xmlns:xlink="http://www.w3.org/1999/xlink">
  <g>
    <rect style="fill: none; fill-opacity:0; stroke-width: 2; stroke: #000000" x="122.5" y="39.6667" width="264" height="436.333"/>
    <text font-size="12.8" style="fill: #000000;text-anchor:middle;font-family:sans-serif;font-style:normal;font-weight:normal" x="254.5" y="261.733">
      <tspan x="254.5" y="261.733"></tspan>
    </text>
  </g>
  <g>
    <rect style="fill: none; fill-opacity:0; stroke-width: 2; stroke: #000000" x="386.4" y="39.4333" width="264" height="436.9"/>
    <text font-size="12.8" style="fill: #000000;text-anchor:middle;font-family:sans-serif;font-style:normal;font-weight:normal" x="518.4" y="261.783">
      <tspan x="518.4" y="261.783"></tspan>
    </text>
  </g>
  <g>
    <polyline style="fill: none; fill-opacity:0; stroke-width: 2; stroke: #000000" points="162.8,123.2 233.362,123.2 233.362,152.464 "/>
    <polygon style="fill: #000000" points="233.362,159.964 228.362,149.964 233.362,152.464 238.362,149.964 "/>
    <polygon style="fill: none; fill-opacity:0; stroke-width: 2; stroke: #000000" points="233.362,159.964 228.362,149.964 233.362,152.464 238.362,149.964 "/>
  </g>
  <g>
    <polyline style="fill: none; fill-opacity:0; stroke-width: 2; stroke: #000000" points="339.8,125.2 270.238,125.2 270.238,152.464 "/>
    <polygon style="fill: #000000" points="270.238,159.964 265.238,149.964 270.238,152.464 275.238,149.964 "/>
    <polygon style="fill: none; fill-opacity:0; stroke-width: 2; stroke: #000000" points="270.238,159.964 265.238,149.964 270.238,152.464 275.238,149.964 "/>
  </g>
  <g>
    <rect style="fill: none; fill-opacity:0; stroke-width: 2.35099e-37; stroke: #000000" x="197.95" y="85.8667" width="101.7" height="38"/>
    <text font-size="12.8" style="fill: #000000;text-anchor:middle;font-family:sans-serif;font-style:normal;font-weight:normal" x="248.8" y="108.767">
      <tspan x="248.8" y="108.767">Evènements</tspan>
    </text>
  </g>
  <g>
    <rect style="fill: none; fill-opacity:0; stroke-width: 2; stroke: #000000" x="218.5" y="204.4" width="104.475" height="99.8"/>
    <text font-size="12.8" style="fill: #000000;text-anchor:middle;font-family:sans-serif;font-style:normal;font-weight:normal" x="270.738" y="258.2">
      <tspan x="270.738" y="258.2">Actions</tspan>
    </text>
  </g>
  <g>
    <rect style="fill: none; fill-opacity:0; stroke-width: 2; stroke: #000000" x="218.5" y="304.3" width="104.375" height="38.3667"/>
    <text font-size="12.8" style="fill: #000000;text-anchor:middle;font-family:sans-serif;font-style:normal;font-weight:normal" x="270.688" y="327.383">
      <tspan x="270.688" y="327.383">Conditions</tspan>
    </text>
  </g>
  <g>
    <rect style="fill: none; fill-opacity:0; stroke-width: 2.35099e-37; stroke: #000000" x="446.2" y="331.3" width="101.7" height="38"/>
    <text font-size="12.8" style="fill: #000000;text-anchor:middle;font-family:sans-serif;font-style:normal;font-weight:normal" x="497.05" y="354.2">
      <tspan x="497.05" y="354.2">Résultats</tspan>
    </text>
  </g>
  <g>
    <path style="fill: none; fill-opacity:0; stroke-width: 2; stroke: #000000" d="M 213.4 162.6 L 287.15,162.6 L 287.15,194.6 L 250.275,202.6 L 213.4,194.6 L 213.4,162.6"/>
    <text font-size="12.8" style="fill: #000000;text-anchor:middle;font-family:sans-serif;font-style:normal;font-weight:normal" x="250.275" y="182.6">
      <tspan x="250.275" y="182.6"></tspan>
    </text>
  </g>
  <g>
    <rect style="fill: none; fill-opacity:0; stroke-width: 2; stroke: #000000" x="178" y="204.5" width="40.5" height="64"/>
    <text font-size="12.8" style="fill: #000000;text-anchor:middle;font-family:sans-serif;font-style:normal;font-weight:normal" x="198.25" y="240.4">
      <tspan x="198.25" y="240.4">No</tspan>
    </text>
  </g>
  <g>
    <rect style="fill: none; fill-opacity:0; stroke-width: 2; stroke: #000000" x="178" y="268.6" width="40.4" height="73.9"/>
    <text font-size="12.8" style="fill: #000000;text-anchor:middle;font-family:sans-serif;font-style:normal;font-weight:normal" x="198.2" y="309.45">
      <tspan x="198.2" y="309.45">T</tspan>
    </text>
  </g>
  <g>
    <rect style="fill: none; fill-opacity:0; stroke-width: 2; stroke: #000000" x="122.675" y="39" width="263.825" height="38"/>
    <text font-size="12.8" style="fill: #000000;text-anchor:middle;font-family:sans-serif;font-style:normal;font-weight:normal" x="254.588" y="61.9">
      <tspan x="254.588" y="61.9">Poste de travail 1</tspan>
    </text>
  </g>
  <g>
    <rect style="fill: none; fill-opacity:0; stroke-width: 2; stroke: #000000" x="386.4" y="39.1" width="263.825" height="38"/>
    <text font-size="12.8" style="fill: #000000;text-anchor:middle;font-family:sans-serif;font-style:normal;font-weight:normal" x="518.313" y="62">
      <tspan x="518.313" y="62">Poste de travail 2</tspan>
    </text>
  </g>
  <g>
    <polyline style="fill: none; fill-opacity:0; stroke-width: 2; stroke: #000000" points="497.05,369.3 546.962,369.3 546.962,398.364 "/>
    <polygon style="fill: #000000" points="546.962,405.864 541.962,395.864 546.962,398.364 551.962,395.864 "/>
    <polygon style="fill: none; fill-opacity:0; stroke-width: 2; stroke: #000000" points="546.962,405.864 541.962,395.864 546.962,398.364 551.962,395.864 "/>
  </g>
  <g>
    <path style="fill: none; fill-opacity:0; stroke-width: 2; stroke: #000000" d="M 526.9 407.1 L 600.65,407.1 L 600.65,439.1 L 563.775,447.1 L 526.9,439.1 L 526.9,407.1"/>
    <text font-size="12.8" style="fill: #000000;text-anchor:middle;font-family:sans-serif;font-style:normal;font-weight:normal" x="563.775" y="427.1">
      <tspan x="563.775" y="427.1"></tspan>
    </text>
  </g>
  <g>
    <rect style="fill: none; fill-opacity:0; stroke-width: 2.35099e-37; stroke: #000000" x="513.9" y="439.6" width="101.7" height="36"/>
    <text font-size="12.8" style="fill: #000000;text-anchor:middle;font-family:sans-serif;font-style:normal;font-weight:700" x="564.75" y="461.5">
      <tspan x="564.75" y="461.5">...</tspan>
    </text>
  </g>
  <g>
    <polyline style="fill: none; fill-opacity:0; stroke-width: 2; stroke: #000000" points="270.688,342.667 270.688,350.3 436.464,350.3 "/>
    <polygon style="fill: #000000" points="443.964,350.3 433.964,355.3 436.464,350.3 433.964,345.3 "/>
    <polygon style="fill: none; fill-opacity:0; stroke-width: 2; stroke: #000000" points="443.964,350.3 433.964,355.3 436.464,350.3 433.964,345.3 "/>
  </g>
</svg>
