<svg xmlns="http://www.w3.org/2000/svg" xmlns:xlink="http://www.w3.org/1999/xlink" version="1.1" x="0px" y="0px" viewBox="0 0 48 60" enable-background="new 0 0 48 48" xml:space="preserve"><g><path fill="#000000" d="M38.5,46.8H7.8c-4,0-7.3-3.3-7.3-7.3V1.2h40.6v39.4h-2V3.2H2.5v36.3c0,2.9,2.4,5.3,5.3,5.3h30.8   c3.8,0,7-3.1,7-7V2.2h2v35.6C47.5,42.8,43.5,46.8,38.5,46.8z"/><path fill="#000000" d="M20.8,29H5.7V13.8h15.2V29z M7.7,27h11.2V15.8H7.7V27z"/><rect x="25.6" y="14.8" fill="#000000" width="9" height="2"/><rect x="25.6" y="20.4" fill="#000000" width="9" height="2"/><rect x="25.6" y="26" fill="#000000" width="9" height="2"/><rect x="6.7" y="8.2" fill="#000000" width="28" height="2"/><rect x="6.7" y="33.8" fill="#000000" width="28" height="2"/><rect x="8.2" y="39.3" fill="#000000" width="26.5" height="2"/></g><text visibility="hidden" x="0" y="63" fill="#000000" font-size="5px" font-weight="bold" font-family="'Helvetica Neue', Helvetica, Arial-Unicode, Arial, Sans-serif">Created by Creative Stall</text><text visibility="hidden" x="0" y="68" fill="#000000" font-size="5px" font-weight="bold" font-family="'Helvetica Neue', Helvetica, Arial-Unicode, Arial, Sans-serif">from the Noun Project</text></svg>
