<svg xmlns="http://www.w3.org/2000/svg" xmlns:xlink="http://www.w3.org/1999/xlink" version="1.1" x="0px" y="0px" viewBox="0 0 48 60" enable-background="new 0 0 48 48" xml:space="preserve"><g><g><g><path fill="#000000" d="M32.5,12.7h-17c-0.6,0-1-0.4-1-1V1.5c0-0.6,0.4-1,1-1h17c0.6,0,1,0.4,1,1v10.2     C33.5,12.3,33.1,12.7,32.5,12.7z M16.5,10.7h15V2.5h-15V10.7z"/><path fill="#000000" d="M34.7,21.8H13.3c-0.3,0-0.7-0.2-0.8-0.5c-0.2-0.3-0.2-0.7,0-1l2.2-4.5c0.2-0.3,0.5-0.6,0.9-0.6h17     c0.4,0,0.7,0.2,0.9,0.6l2.2,4.5c0.2,0.3,0.1,0.7,0,1C35.4,21.7,35.1,21.8,34.7,21.8z M14.9,19.8h18.2l-1.2-2.5H16.1L14.9,19.8z"/></g><g><path fill="#000000" d="M32.5,37.2h-17c-0.6,0-1-0.4-1-1V24.6c0-0.6,0.4-1,1-1h17c0.6,0,1,0.4,1,1v11.6     C33.5,36.8,33.1,37.2,32.5,37.2z M16.5,35.2h15v-9.6h-15V35.2z"/><path fill="#000000" d="M34.7,47.5H13.3c-0.3,0-0.7-0.2-0.8-0.5c-0.2-0.3-0.2-0.6-0.1-0.9l2.2-5.1c0.2-0.4,0.5-0.6,0.9-0.6h17     c0.4,0,0.8,0.2,0.9,0.6l2.2,5.1c0.1,0.3,0.1,0.7-0.1,0.9C35.4,47.3,35.1,47.5,34.7,47.5z M14.8,45.5h18.4l-1.3-3.1H16.1     L14.8,45.5z"/></g></g><g><g><path fill="#000000" d="M46.5,41h-7.7c-0.6,0-1-0.4-1-1c0-0.6,0.4-1,1-1h6.7V12.4h-7c-0.6,0-1-0.4-1-1c0-0.6,0.4-1,1-1h8     c0.6,0,1,0.4,1,1V40C47.5,40.6,47.1,41,46.5,41z"/><path fill="#000000" d="M41.6,15.9c-0.3,0-0.5-0.1-0.7-0.3l-3.4-3.4c-0.4-0.4-0.4-1,0-1.4l3.4-3.4c0.4-0.4,1-0.4,1.4,0     c0.4,0.4,0.4,1,0,1.4l-2.7,2.7l2.7,2.7c0.4,0.4,0.4,1,0,1.4C42.1,15.8,41.8,15.9,41.6,15.9z"/></g><g><path fill="#000000" d="M9.5,37.6h-8c-0.6,0-1-0.4-1-1V8c0-0.6,0.4-1,1-1h7.7c0.6,0,1,0.4,1,1c0,0.6-0.4,1-1,1H2.5v26.6h7     c0.6,0,1,0.4,1,1C10.5,37.1,10.1,37.6,9.5,37.6z"/><path fill="#000000" d="M6.4,41c-0.3,0-0.5-0.1-0.7-0.3c-0.4-0.4-0.4-1,0-1.4l2.7-2.7l-2.7-2.7c-0.4-0.4-0.4-1,0-1.4     c0.4-0.4,1-0.4,1.4,0l3.4,3.4c0.4,0.4,0.4,1,0,1.4l-3.4,3.4C7,40.9,6.7,41,6.4,41z"/></g></g></g><text visibility="hidden" x="0" y="63" fill="#000000" font-size="5px" font-weight="bold" font-family="'Helvetica Neue', Helvetica, Arial-Unicode, Arial, Sans-serif">Created by Creative Stall</text><text visibility="hidden" x="0" y="68" fill="#000000" font-size="5px" font-weight="bold" font-family="'Helvetica Neue', Helvetica, Arial-Unicode, Arial, Sans-serif">from the Noun Project</text></svg>
