<svg xmlns="http://www.w3.org/2000/svg" xmlns:xlink="http://www.w3.org/1999/xlink" version="1.1" x="0px" y="0px" viewBox="0 0 48 60" enable-background="new 0 0 48 48" xml:space="preserve"><g><path fill="#000000" d="M24,47.5C11,47.5,0.5,37,0.5,24S11,0.5,24,0.5S47.5,11,47.5,24S37,47.5,24,47.5z M24,2.5   C12.1,2.5,2.5,12.1,2.5,24S12.1,45.5,24,45.5S45.5,35.9,45.5,24S35.9,2.5,24,2.5z"/><g><path fill="#000000" d="M15.8,13.5c-0.3,0-0.7-0.2-0.8-0.5c-0.3-0.5-0.2-1.1,0.3-1.4l0.5,0.8l-0.5-0.9l0.1-0.1    c0.5-0.3,1.1-0.2,1.4,0.3c0.3,0.5,0.2,1.1-0.3,1.4c0,0-0.2,0.1-0.2,0.1C16.2,13.5,16,13.5,15.8,13.5z"/><path fill="#000000" d="M16,13.4c-0.3,0-0.7-0.2-0.8-0.5c-0.3-0.5-0.2-1.1,0.3-1.4C21.5,7.7,28.1,5.1,35,3.8    c0.5-0.1,1.1,0.3,1.2,0.8c0.1,0.5-0.3,1.1-0.8,1.2c-6.7,1.2-13,3.7-18.9,7.4C16.3,13.3,16.1,13.4,16,13.4z"/><path fill="#000000" d="M1.9,25.7c-0.2,0-0.5-0.1-0.6-0.2c-0.4-0.4-0.5-1-0.1-1.4c2.8-3.3,7.4-8.1,14.1-12.3    c0.5-0.3,1.1-0.2,1.4,0.3c0.3,0.5,0.2,1.1-0.3,1.4C9.9,17.4,5.4,22.1,2.7,25.3C2.5,25.5,2.2,25.7,1.9,25.7z"/><path fill="#000000" d="M26.2,35.4c-0.2,0-0.3,0-0.5,0c-0.6,0-1-0.5-1-1c0-0.5,0.5-1,1-1c0.1,0,0.3,0,0.4,0c7.7,0,14.3-1.6,18.4-3    c0.5-0.2,1.1,0.1,1.3,0.6c0.2,0.5-0.1,1.1-0.6,1.3C41,33.7,34.2,35.4,26.2,35.4z"/><path fill="#000000" d="M25.8,35.4C25.8,35.4,25.8,35.4,25.8,35.4l-0.6,0c-0.6,0-1-0.5-1-1c0-0.6,0.5-1,1-1l0.6,0c0.6,0,1,0.5,1,1    C26.8,35,26.3,35.4,25.8,35.4z"/><path fill="#000000" d="M25.2,35.4C25.2,35.4,25.2,35.4,25.2,35.4c-8.1-0.2-15.9-2-23.1-5.5c-0.5-0.2-0.7-0.8-0.5-1.3    c0.2-0.5,0.8-0.7,1.3-0.5c7,3.4,14.4,5.2,22.3,5.3c0.6,0,1,0.5,1,1C26.2,35,25.7,35.4,25.2,35.4z"/><path fill="#000000" d="M39.8,22.9c-0.2,0-0.5-0.1-0.6-0.2c-0.4-0.4-0.5-1-0.1-1.4c1.7-2,3.2-4.1,4.6-6.4c0.3-0.5,0.9-0.6,1.4-0.3    c0.5,0.3,0.6,0.9,0.3,1.4c-1.5,2.3-3.1,4.5-4.8,6.6C40.4,22.8,40.1,22.9,39.8,22.9z"/><path fill="#000000" d="M25.2,35.4c-0.3,0-0.7-0.2-0.9-0.5c-0.3-0.5-0.2-1.1,0.3-1.3l0.1,0l0.3-0.2c0.5-0.3,1.1-0.1,1.4,0.3    c0.3,0.5,0.1,1.1-0.3,1.4l-0.3,0.2C25.6,35.3,25.4,35.4,25.2,35.4z"/><path fill="#000000" d="M9.4,41.6c-0.5,0-0.9-0.3-1-0.8c-0.1-0.5,0.2-1.1,0.8-1.2c5.5-1.2,10.8-3.3,15.5-6.1    c0.5-0.3,1.1-0.1,1.4,0.4c0.3,0.5,0.1,1.1-0.4,1.4c-4.9,2.9-10.3,5-16.1,6.3C9.5,41.6,9.5,41.6,9.4,41.6z"/><path fill="#000000" d="M25.6,35.1c-0.3,0-0.7-0.2-0.9-0.5c-0.3-0.5-0.1-1.1,0.3-1.4c5.2-3.1,9.9-7.2,14-12c0.4-0.4,1-0.5,1.4-0.1    c0.4,0.4,0.5,1,0.1,1.4c-4.2,5-9,9.2-14.5,12.5C26,35.1,25.8,35.1,25.6,35.1z"/><path fill="#000000" d="M8.9,41.7c-0.5,0-0.9-0.3-1-0.8c-0.1-0.5,0.2-1.1,0.8-1.2l0.5-0.1c0.5-0.1,1.1,0.2,1.2,0.8    c0.1,0.5-0.2,1.1-0.8,1.2l-0.2,0c-0.1,0-0.2,0-0.3,0.1C9,41.7,9,41.7,8.9,41.7z"/><path fill="#000000" d="M16,13.4c-0.5,0-0.9-0.3-1-0.8c-0.6-2.8-0.9-5.8-1-8.7c0-0.6,0.4-1,1-1c0.6,0,1,0.4,1,1    c0.1,2.8,0.4,5.7,1,8.4c0.1,0.5-0.2,1.1-0.8,1.2C16.1,13.4,16,13.4,16,13.4z"/><path fill="#000000" d="M25.8,35.4c-0.3,0-0.6-0.1-0.8-0.4l-0.2-0.3c-0.3-0.4-0.2-1.1,0.2-1.4c0.4-0.3,1.1-0.2,1.4,0.2l0.2,0.3    c0.3,0.4,0.2,1.1-0.2,1.4C26.2,35.3,26,35.4,25.8,35.4z"/><path fill="#000000" d="M34.2,44.7c-0.2,0-0.5-0.1-0.7-0.3c-2.1-1.9-5.3-5.1-8.5-9.5c-0.3-0.4-0.2-1.1,0.2-1.4    c0.4-0.3,1.1-0.2,1.4,0.2c3.1,4.2,6.2,7.3,8.3,9.2c0.4,0.4,0.4,1,0.1,1.4C34.7,44.6,34.5,44.7,34.2,44.7z"/><path fill="#000000" d="M25.6,35.1c-0.3,0-0.6-0.1-0.8-0.4c-4.9-6.8-8.2-14.2-9.8-22c-0.1-0.5,0.2-1.1,0.8-1.2    c0.5-0.1,1.1,0.2,1.2,0.8c1.5,7.5,4.7,14.7,9.5,21.2c0.3,0.4,0.2,1.1-0.2,1.4C26,35.1,25.8,35.1,25.6,35.1z"/><path fill="#000000" d="M16,13.5c-0.5,0-0.9-0.3-1-0.8l1-0.3l-1,0.1c-0.1-0.5,0.2-1.1,0.8-1.2c0.5-0.1,1.1,0.2,1.2,0.8    c0,0,0,0.1,0,0.1c0.1,0.5-0.2,1.1-0.8,1.2C16.1,13.5,16,13.5,16,13.5z"/><path fill="#000000" d="M15.8,13.5c0,0-0.1,0-0.1,0c-4.2-0.6-7.8-0.7-10.1-0.7c-0.5,0-1-0.4-1-1c0-0.6,0.4-1,1-1    c2.3-0.1,6,0,10.4,0.7c0.5,0.1,0.9,0.6,0.8,1.1C16.7,13.2,16.3,13.5,15.8,13.5z"/><path fill="#000000" d="M39.8,22.9c-0.2,0-0.4-0.1-0.6-0.2c-6.9-4.8-14.7-7.9-23.4-9.2c-0.5-0.1-0.9-0.6-0.8-1.1    c0.1-0.5,0.6-0.9,1.1-0.8c9,1.4,17.1,4.6,24.3,9.5c0.5,0.3,0.6,0.9,0.2,1.4C40.4,22.7,40.1,22.9,39.8,22.9z"/><path fill="#000000" d="M46.1,28c-0.2,0-0.5-0.1-0.7-0.3c-1.9-1.8-4-3.5-6.1-5c-0.5-0.3-0.6-0.9-0.2-1.4c0.3-0.5,0.9-0.6,1.4-0.2    c2.2,1.5,4.4,3.3,6.4,5.2c0.4,0.4,0.4,1,0,1.4C46.6,27.9,46.3,28,46.1,28z"/><path fill="#000000" d="M16,13.5c-0.1,0-0.1,0-0.2,0l-0.1,0l0.1-1l0.1-1l-0.1,1l0.2-1l0.1,0c0.5,0.1,0.9,0.6,0.8,1.1    C16.9,13.2,16.5,13.5,16,13.5z"/></g></g><text visibility="hidden" x="0" y="63" fill="#000000" font-size="5px" font-weight="bold" font-family="'Helvetica Neue', Helvetica, Arial-Unicode, Arial, Sans-serif">Created by Creative Stall</text><text visibility="hidden" x="0" y="68" fill="#000000" font-size="5px" font-weight="bold" font-family="'Helvetica Neue', Helvetica, Arial-Unicode, Arial, Sans-serif">from the Noun Project</text></svg>
