<?xml version="1.0" encoding="UTF-8" standalone="no"?>
<!DOCTYPE svg PUBLIC "-//W3C//DTD SVG 1.0//EN" "http://www.w3.org/TR/2001/PR-SVG-20010719/DTD/svg10.dtd">
<svg width="51cm" height="34cm" viewBox="282 -29 1020 666" xmlns="http://www.w3.org/2000/svg" xmlns:xlink="http://www.w3.org/1999/xlink">
  <g>
    <path style="fill: none; fill-opacity:0; stroke-width: 6; stroke: #000000" d="M 601.95 16.5154 L 939.05,16.5154 C 985.594,16.5154 1023.33,34.5325 1023.33,56.7577 C 1023.33,78.9829 985.594,97 939.05,97 L 601.95,97 C 555.406,97 517.675,78.9829 517.675,56.7577 C 517.675,34.5325 555.406,16.5154 601.95,16.5154"/>
    <text font-size="28.2222" style="fill: #000000;text-anchor:middle;font-family:DejaVu Sans;font-style:normal;font-weight:700" x="770.5" y="65.5771">
      <tspan x="770.5" y="65.5771">Système de pilotage</tspan>
    </text>
  </g>
  <g>
    <path style="fill: none; fill-opacity:0; stroke-width: 6; stroke: #000000" d="M 626.55 502.7 L 913.05,502.7 C 952.607,502.7 984.675,520.717 984.675,542.942 C 984.675,565.168 952.607,583.185 913.05,583.185 L 626.55,583.185 C 586.993,583.185 554.925,565.168 554.925,542.942 C 554.925,520.717 586.993,502.7 626.55,502.7"/>
    <text font-size="28.2222" style="fill: #000000;text-anchor:middle;font-family:DejaVu Sans;font-style:normal;font-weight:700" x="769.8" y="551.762">
      <tspan x="769.8" y="551.762">Système opérant</tspan>
    </text>
  </g>
  <g>
    <path style="fill: none; fill-opacity:0; stroke-width: 6; stroke: #000000" d="M 593.275 262.7 L 965.175,262.7 C 1016.52,262.7 1058.15,280.717 1058.15,302.942 C 1058.15,325.168 1016.52,343.185 965.175,343.185 L 593.275,343.185 C 541.926,343.185 500.3,325.168 500.3,302.942 C 500.3,280.717 541.926,262.7 593.275,262.7"/>
    <text font-size="28.2222" style="fill: #000000;text-anchor:middle;font-family:DejaVu Sans;font-style:normal;font-weight:700" x="779.225" y="311.762">
      <tspan x="779.225" y="311.762">Système d'information</tspan>
    </text>
  </g>
  <g>
    <polygon style="fill: none; fill-opacity:0; stroke-width: 4; stroke: #000000" points="684,163 684,201 665,201 703,239 741,201 722,201 722,163 "/>
    <polygon style="fill: none; fill-opacity:0; stroke-width: 4; stroke: #000000" points="684,163 684,201 665,201 703,239 741,201 722,201 722,163 "/>
  </g>
  <g>
    <polygon style="fill: none; fill-opacity:0; stroke-width: 4; stroke: #000000" points="692.714,401.7 692.714,439.7 673.714,439.7 711.714,477.7 749.714,439.7 730.714,439.7 730.714,401.7 "/>
    <polygon style="fill: none; fill-opacity:0; stroke-width: 4; stroke: #000000" points="692.714,401.7 692.714,439.7 673.714,439.7 711.714,477.7 749.714,439.7 730.714,439.7 730.714,401.7 "/>
  </g>
  <g>
    <polygon style="fill: none; fill-opacity:0; stroke-width: 4; stroke: #000000" points="823.714,438.7 823.714,400.7 804.714,400.7 842.714,362.7 880.714,400.7 861.714,400.7 861.714,438.7 "/>
    <polygon style="fill: none; fill-opacity:0; stroke-width: 4; stroke: #000000" points="823.714,438.7 823.714,400.7 804.714,400.7 842.714,362.7 880.714,400.7 861.714,400.7 861.714,438.7 "/>
  </g>
  <g>
    <polygon style="fill: none; fill-opacity:0; stroke-width: 4; stroke: #000000" points="823.714,198.114 823.714,160.114 804.714,160.114 842.714,122.114 880.714,160.114 861.714,160.114 861.714,198.114 "/>
    <polygon style="fill: none; fill-opacity:0; stroke-width: 4; stroke: #000000" points="823.714,198.114 823.714,160.114 804.714,160.114 842.714,122.114 880.714,160.114 861.714,160.114 861.714,198.114 "/>
  </g>
  <g>
    <rect style="fill: none; fill-opacity:0; stroke-width: 4; stroke: #000000" x="468" y="-26.5833" width="640.323" height="661.667"/>
    <rect style="fill: none; fill-opacity:0; stroke-width: 4; stroke: #000000" x="468" y="-26.5833" width="640.323" height="661.667"/>
  </g>
  <g>
    <rect style="fill: none; fill-opacity:0; stroke-width: 2.35099e-37; stroke: #000000" x="665.798" y="124.417" width="76.5" height="38"/>
    <text font-size="12.7998" style="fill: #000000;text-anchor:middle;font-family:sans-serif;font-style:normal;font-weight:normal" x="704.048" y="147.317">
      <tspan x="704.048" y="147.317">Décision</tspan>
    </text>
  </g>
  <g>
    <rect style="fill: none; fill-opacity:0; stroke-width: 2.35099e-37; stroke: #000000" x="673.348" y="361.117" width="76.5" height="38"/>
    <text font-size="12.7998" style="fill: #000000;text-anchor:middle;font-family:sans-serif;font-style:normal;font-weight:normal" x="711.598" y="384.017">
      <tspan x="711.598" y="384.017">Décision</tspan>
    </text>
  </g>
  <g>
    <rect style="fill: none; fill-opacity:0; stroke-width: 2.35099e-37; stroke: #000000" x="796.548" y="438.117" width="94.1" height="38"/>
    <text font-size="12.7998" style="fill: #000000;text-anchor:middle;font-family:sans-serif;font-style:normal;font-weight:normal" x="843.598" y="461.017">
      <tspan x="843.598" y="461.017">Information</tspan>
    </text>
  </g>
  <g>
    <rect style="fill: none; fill-opacity:0; stroke-width: 2.35099e-37; stroke: #000000" x="796.348" y="199.117" width="94.1" height="36"/>
    <text font-size="12.7998" style="fill: #000000;text-anchor:middle;font-family:sans-serif;font-style:normal;font-weight:normal" x="843.398" y="221.017">
      <tspan x="843.398" y="221.017">Information</tspan>
    </text>
  </g>
  <g>
    <polygon style="fill: #fdf6e3" points="421.169,532.41 476.169,532.41 476.169,522.41 531.169,542.41 476.169,562.41 476.169,552.41 421.169,552.41 "/>
    <polygon style="fill: none; fill-opacity:0; stroke-width: 2; stroke: #000000" points="421.169,532.41 476.169,532.41 476.169,522.41 531.169,542.41 476.169,562.41 476.169,552.41 421.169,552.41 "/>
    <polygon style="fill: none; fill-opacity:0; stroke-width: 2; stroke: #000000" points="421.169,532.41 476.169,532.41 476.169,522.41 531.169,542.41 476.169,562.41 476.169,552.41 421.169,552.41 "/>
  </g>
  <g>
    <polygon style="fill: #fdf6e3" points="1024.47,533.544 1079.47,533.544 1079.47,523.544 1134.47,543.544 1079.47,563.544 1079.47,553.544 1024.47,553.544 "/>
    <polygon style="fill: none; fill-opacity:0; stroke-width: 2; stroke: #000000" points="1024.47,533.544 1079.47,533.544 1079.47,523.544 1134.47,543.544 1079.47,563.544 1079.47,553.544 1024.47,553.544 "/>
    <polygon style="fill: none; fill-opacity:0; stroke-width: 2; stroke: #000000" points="1024.47,533.544 1079.47,533.544 1079.47,523.544 1134.47,543.544 1079.47,563.544 1079.47,553.544 1024.47,553.544 "/>
  </g>
  <g>
    <rect style="fill: none; fill-opacity:0; stroke-width: 2.35099e-37; stroke: #000000" x="282.594" y="280.769" width="158.25" height="44.6944"/>
    <text font-size="19.7553" style="fill: #000000;text-anchor:middle;font-family:sans-serif;font-style:normal;font-weight:normal" x="361.719" y="309.119">
      <tspan x="361.719" y="309.119">Environement</tspan>
    </text>
  </g>
  <g>
    <rect style="fill: none; fill-opacity:0; stroke-width: 2.35099e-37; stroke: #000000" x="1143.47" y="281.117" width="158.25" height="44.6944"/>
    <text font-size="19.7553" style="fill: #000000;text-anchor:middle;font-family:sans-serif;font-style:normal;font-weight:normal" x="1222.59" y="309.467">
      <tspan x="1222.59" y="309.467">Environement</tspan>
    </text>
  </g>
  <g>
    <rect style="fill: none; fill-opacity:0; stroke-width: 2.35099e-37; stroke: #000000" x="959.469" y="-27.8833" width="158.25" height="44.6944"/>
    <text font-size="19.7553" style="fill: #000000;text-anchor:middle;font-family:sans-serif;font-style:normal;font-weight:normal" x="1038.59" y="0.466667">
      <tspan x="1038.59" y="0.466667">Entreprise</tspan>
    </text>
  </g>
</svg>
